<svg class="rich-terminal" viewBox="0 0 1238 660.0" xmlns="http://www.w3.org/2000/svg">
    <!-- Generated with Rich https://www.textualize.io -->
    <style>

    @font-face {
        font-family: "Fira Code";
        src: local("FiraCode-Regular"),
                url("https://cdnjs.cloudflare.com/ajax/libs/firacode/6.2.0/woff2/FiraCode-Regular.woff2") format("woff2"),
                url("https://cdnjs.cloudflare.com/ajax/libs/firacode/6.2.0/woff/FiraCode-Regular.woff") format("woff");
        font-style: normal;
        font-weight: 400;
    }
    @font-face {
        font-family: "Fira Code";
        src: local("FiraCode-Bold"),
                url("https://cdnjs.cloudflare.com/ajax/libs/firacode/6.2.0/woff2/FiraCode-Bold.woff2") format("woff2"),
                url("https://cdnjs.cloudflare.com/ajax/libs/firacode/6.2.0/woff/FiraCode-Bold.woff") format("woff");
        font-style: bold;
        font-weight: 700;
    }

    .terminal-1209353277-matrix {
        font-family: Fira Code, monospace;
        font-size: 20px;
        line-height: 24.4px;
        font-variant-east-asian: full-width;
    }

    .terminal-1209353277-title {
        font-size: 18px;
        font-weight: bold;
        font-family: arial;
    }

    .terminal-1209353277-r1 { fill: #121212 }
.terminal-1209353277-r2 { fill: #c5c8c6 }
.terminal-1209353277-r3 { fill: #0178d4 }
.terminal-1209353277-r4 { fill: #e1e1e1 }
.terminal-1209353277-r5 { fill: #9e9e9e }
.terminal-1209353277-r6 { fill: #e0e0e0;font-weight: bold }
.terminal-1209353277-r7 { fill: #e3e3e3;font-weight: bold }
.terminal-1209353277-r8 { fill: #e1e4e6;font-weight: bold }
.terminal-1209353277-r9 { fill: #a5a5a5 }
.terminal-1209353277-r10 { fill: #1e1e1e;font-weight: bold }
.terminal-1209353277-r11 { fill: #242f38 }
.terminal-1209353277-r12 { fill: #8ad4a1 }
.terminal-1209353277-r13 { fill: #e0e0e0 }
.terminal-1209353277-r14 { fill: #000f18 }
.terminal-1209353277-r15 { fill: #ddedf9;font-weight: bold }
    </style>

    <defs>
    <clipPath id="terminal-1209353277-clip-terminal">
      <rect x="0" y="0" width="1219.0" height="609.0" />
    </clipPath>
    <clipPath id="terminal-1209353277-line-0">
    <rect x="0" y="1.5" width="1220" height="24.65"/>
            </clipPath>
<clipPath id="terminal-1209353277-line-1">
    <rect x="0" y="25.9" width="1220" height="24.65"/>
            </clipPath>
<clipPath id="terminal-1209353277-line-2">
    <rect x="0" y="50.3" width="1220" height="24.65"/>
            </clipPath>
<clipPath id="terminal-1209353277-line-3">
    <rect x="0" y="74.7" width="1220" height="24.65"/>
            </clipPath>
<clipPath id="terminal-1209353277-line-4">
    <rect x="0" y="99.1" width="1220" height="24.65"/>
            </clipPath>
<clipPath id="terminal-1209353277-line-5">
    <rect x="0" y="123.5" width="1220" height="24.65"/>
            </clipPath>
<clipPath id="terminal-1209353277-line-6">
    <rect x="0" y="147.9" width="1220" height="24.65"/>
            </clipPath>
<clipPath id="terminal-1209353277-line-7">
    <rect x="0" y="172.3" width="1220" height="24.65"/>
            </clipPath>
<clipPath id="terminal-1209353277-line-8">
    <rect x="0" y="196.7" width="1220" height="24.65"/>
            </clipPath>
<clipPath id="terminal-1209353277-line-9">
    <rect x="0" y="221.1" width="1220" height="24.65"/>
            </clipPath>
<clipPath id="terminal-1209353277-line-10">
    <rect x="0" y="245.5" width="1220" height="24.65"/>
            </clipPath>
<clipPath id="terminal-1209353277-line-11">
    <rect x="0" y="269.9" width="1220" height="24.65"/>
            </clipPath>
<clipPath id="terminal-1209353277-line-12">
    <rect x="0" y="294.3" width="1220" height="24.65"/>
            </clipPath>
<clipPath id="terminal-1209353277-line-13">
    <rect x="0" y="318.7" width="1220" height="24.65"/>
            </clipPath>
<clipPath id="terminal-1209353277-line-14">
    <rect x="0" y="343.1" width="1220" height="24.65"/>
            </clipPath>
<clipPath id="terminal-1209353277-line-15">
    <rect x="0" y="367.5" width="1220" height="24.65"/>
            </clipPath>
<clipPath id="terminal-1209353277-line-16">
    <rect x="0" y="391.9" width="1220" height="24.65"/>
            </clipPath>
<clipPath id="terminal-1209353277-line-17">
    <rect x="0" y="416.3" width="1220" height="24.65"/>
            </clipPath>
<clipPath id="terminal-1209353277-line-18">
    <rect x="0" y="440.7" width="1220" height="24.65"/>
            </clipPath>
<clipPath id="terminal-1209353277-line-19">
    <rect x="0" y="465.1" width="1220" height="24.65"/>
            </clipPath>
<clipPath id="terminal-1209353277-line-20">
    <rect x="0" y="489.5" width="1220" height="24.65"/>
            </clipPath>
<clipPath id="terminal-1209353277-line-21">
    <rect x="0" y="513.9" width="1220" height="24.65"/>
            </clipPath>
<clipPath id="terminal-1209353277-line-22">
    <rect x="0" y="538.3" width="1220" height="24.65"/>
            </clipPath>
<clipPath id="terminal-1209353277-line-23">
    <rect x="0" y="562.7" width="1220" height="24.65"/>
            </clipPath>
    </defs>

    <rect fill="#292929" stroke="rgba(255,255,255,0.35)" stroke-width="1" x="1" y="1" width="1236" height="658" rx="8"/><text class="terminal-1209353277-title" fill="#c5c8c6" text-anchor="middle" x="618" y="27">aicage</text>
            <g transform="translate(26,22)">
            <circle cx="0" cy="0" r="7" fill="#ff5f57"/>
            <circle cx="22" cy="0" r="7" fill="#febc2e"/>
            <circle cx="44" cy="0" r="7" fill="#28c840"/>
            </g>
        
    <g transform="translate(9, 41)" clip-path="url(#terminal-1209353277-clip-terminal)">
    <rect fill="#121212" x="0" y="1.5" width="1220" height="24.65" shape-rendering="crispEdges"/><rect fill="#121212" x="0" y="25.9" width="24.4" height="24.65" shape-rendering="crispEdges"/><rect fill="#121212" x="24.4" y="25.9" width="1171.2" height="24.65" shape-rendering="crispEdges"/><rect fill="#121212" x="1195.6" y="25.9" width="24.4" height="24.65" shape-rendering="crispEdges"/><rect fill="#121212" x="0" y="50.3" width="24.4" height="24.65" shape-rendering="crispEdges"/><rect fill="#1e1e1e" x="24.4" y="50.3" width="12.2" height="24.65" shape-rendering="crispEdges"/><rect fill="#1e1e1e" x="36.6" y="50.3" width="1146.8" height="24.65" shape-rendering="crispEdges"/><rect fill="#1e1e1e" x="1183.4" y="50.3" width="12.2" height="24.65" shape-rendering="crispEdges"/><rect fill="#121212" x="1195.6" y="50.3" width="24.4" height="24.65" shape-rendering="crispEdges"/><rect fill="#121212" x="0" y="74.7" width="24.4" height="24.65" shape-rendering="crispEdges"/><rect fill="#1e1e1e" x="24.4" y="74.7" width="12.2" height="24.65" shape-rendering="crispEdges"/><rect fill="#1e1e1e" x="36.6" y="74.7" width="24.4" height="24.65" shape-rendering="crispEdges"/><rect fill="#1e1e1e" x="61" y="74.7" width="12.2" height="24.65" shape-rendering="crispEdges"/><rect fill="#1e1e1e" x="73.2" y="74.7" width="12.2" height="24.65" shape-rendering="crispEdges"/><rect fill="#1e1e1e" x="85.4" y="74.7" width="61" height="24.65" shape-rendering="crispEdges"/><rect fill="#1e1e1e" x="146.4" y="74.7" width="12.2" height="24.65" shape-rendering="crispEdges"/><rect fill="#1e1e1e" x="158.6" y="74.7" width="280.6" height="24.65" shape-rendering="crispEdges"/><rect fill="#1e1e1e" x="439.2" y="74.7" width="73.2" height="24.65" shape-rendering="crispEdges"/><rect fill="#1e1e1e" x="512.4" y="74.7" width="36.6" height="24.65" shape-rendering="crispEdges"/><rect fill="#1e1e1e" x="549" y="74.7" width="195.2" height="24.65" shape-rendering="crispEdges"/><rect fill="#1e1e1e" x="744.2" y="74.7" width="292.8" height="24.65" shape-rendering="crispEdges"/><rect fill="#1e1e1e" x="1037" y="74.7" width="12.2" height="24.65" shape-rendering="crispEdges"/><rect fill="#1e1e1e" x="1049.2" y="74.7" width="0" height="24.65" shape-rendering="crispEdges"/><rect fill="#1e1e1e" x="1049.2" y="74.7" width="97.6" height="24.65" shape-rendering="crispEdges"/><rect fill="#1e1e1e" x="1146.8" y="74.7" width="12.2" height="24.65" shape-rendering="crispEdges"/><rect fill="#1e1e1e" x="1159" y="74.7" width="24.4" height="24.65" shape-rendering="crispEdges"/><rect fill="#1e1e1e" x="1183.4" y="74.7" width="12.2" height="24.65" shape-rendering="crispEdges"/><rect fill="#121212" x="1195.6" y="74.7" width="24.4" height="24.65" shape-rendering="crispEdges"/><rect fill="#121212" x="0" y="99.1" width="24.4" height="24.65" shape-rendering="crispEdges"/><rect fill="#1e1e1e" x="24.4" y="99.1" width="12.2" height="24.65" shape-rendering="crispEdges"/><rect fill="#1e1e1e" x="36.6" y="99.1" width="24.4" height="24.65" shape-rendering="crispEdges"/><rect fill="#1e1e1e" x="61" y="99.1" width="1098" height="24.65" shape-rendering="crispEdges"/><rect fill="#1e1e1e" x="1159" y="99.1" width="24.4" height="24.65" shape-rendering="crispEdges"/><rect fill="#1e1e1e" x="1183.4" y="99.1" width="12.2" height="24.65" shape-rendering="crispEdges"/><rect fill="#121212" x="1195.6" y="99.1" width="24.4" height="24.65" shape-rendering="crispEdges"/><rect fill="#121212" x="0" y="123.5" width="24.4" height="24.65" shape-rendering="crispEdges"/><rect fill="#1e1e1e" x="24.4" y="123.5" width="12.2" height="24.65" shape-rendering="crispEdges"/><rect fill="#1e1e1e" x="36.6" y="123.5" width="24.4" height="24.65" shape-rendering="crispEdges"/><rect fill="#1e1e1e" x="61" y="123.5" width="170.8" height="24.65" shape-rendering="crispEdges"/><rect fill="#1e1e1e" x="231.8" y="123.5" width="927.2" height="24.65" shape-rendering="crispEdges"/><rect fill="#1e1e1e" x="1159" y="123.5" width="24.4" height="24.65" shape-rendering="crispEdges"/><rect fill="#1e1e1e" x="1183.4" y="123.5" width="12.2" height="24.65" shape-rendering="crispEdges"/><rect fill="#121212" x="1195.6" y="123.5" width="24.4" height="24.65" shape-rendering="crispEdges"/><rect fill="#121212" x="0" y="147.9" width="24.4" height="24.65" shape-rendering="crispEdges"/><rect fill="#1e1e1e" x="24.4" y="147.9" width="12.2" height="24.65" shape-rendering="crispEdges"/><rect fill="#1e1e1e" x="36.6" y="147.9" width="24.4" height="24.65" shape-rendering="crispEdges"/><rect fill="#1e1e1e" x="61" y="147.9" width="305" height="24.65" shape-rendering="crispEdges"/><rect fill="#1e1e1e" x="366" y="147.9" width="793" height="24.65" shape-rendering="crispEdges"/><rect fill="#1e1e1e" x="1159" y="147.9" width="24.4" height="24.65" shape-rendering="crispEdges"/><rect fill="#1e1e1e" x="1183.4" y="147.9" width="12.2" height="24.65" shape-rendering="crispEdges"/><rect fill="#121212" x="1195.6" y="147.9" width="24.4" height="24.65" shape-rendering="crispEdges"/><rect fill="#121212" x="0" y="172.3" width="24.4" height="24.65" shape-rendering="crispEdges"/><rect fill="#1e1e1e" x="24.4" y="172.3" width="12.2" height="24.65" shape-rendering="crispEdges"/><rect fill="#1e1e1e" x="36.6" y="172.3" width="24.4" height="24.65" shape-rendering="crispEdges"/><rect fill="#1e1e1e" x="61" y="172.3" width="1098" height="24.65" shape-rendering="crispEdges"/><rect fill="#1e1e1e" x="1159" y="172.3" width="24.4" height="24.65" shape-rendering="crispEdges"/><rect fill="#1e1e1e" x="1183.4" y="172.3" width="12.2" height="24.65" shape-rendering="crispEdges"/><rect fill="#121212" x="1195.6" y="172.3" width="24.4" height="24.65" shape-rendering="crispEdges"/><rect fill="#121212" x="0" y="196.7" width="24.4" height="24.65" shape-rendering="crispEdges"/><rect fill="#1e1e1e" x="24.4" y="196.7" width="12.2" height="24.65" shape-rendering="crispEdges"/><rect fill="#1e1e1e" x="36.6" y="196.7" width="24.4" height="24.65" shape-rendering="crispEdges"/><rect fill="#2d2d2d" x="61" y="196.7" width="341.6" height="24.65" shape-rendering="crispEdges"/><rect fill="#1e1e1e" x="402.6" y="196.7" width="12.2" height="24.65" shape-rendering="crispEdges"/><rect fill="#2d2d2d" x="414.8" y="196.7" width="341.6" height="24.65" shape-rendering="crispEdges"/><rect fill="#1e1e1e" x="756.4" y="196.7" width="12.2" height="24.65" shape-rendering="crispEdges"/><rect fill="#1a3142" x="768.6" y="196.7" width="341.6" height="24.65" shape-rendering="crispEdges"/><rect fill="#1e1e1e" x="1110.2" y="196.7" width="12.2" height="24.65" shape-rendering="crispEdges"/><rect fill="#1e1e1e" x="1122.4" y="196.7" width="36.6" height="24.65" shape-rendering="crispEdges"/><rect fill="#1e1e1e" x="1159" y="196.7" width="24.4" height="24.65" shape-rendering="crispEdges"/><rect fill="#1e1e1e" x="1183.4" y="196.7" width="12.2" height="24.65" shape-rendering="crispEdges"/><rect fill="#121212" x="1195.6" y="196.7" width="24.4" height="24.65" shape-rendering="crispEdges"/><rect fill="#121212" x="0" y="221.1" width="24.4" height="24.65" shape-rendering="crispEdges"/><rect fill="#1e1e1e" x="24.4" y="221.1" width="12.2" height="24.65" shape-rendering="crispEdges"/><rect fill="#1e1e1e" x="36.6" y="221.1" width="24.4" height="24.65" shape-rendering="crispEdges"/><rect fill="#2d2d2d" x="61" y="221.1" width="134.2" height="24.65" shape-rendering="crispEdges"/><rect fill="#2d2d2d" x="195.2" y="221.1" width="73.2" height="24.65" shape-rendering="crispEdges"/><rect fill="#2d2d2d" x="268.4" y="221.1" width="134.2" height="24.65" shape-rendering="crispEdges"/><rect fill="#1e1e1e" x="402.6" y="221.1" width="12.2" height="24.65" shape-rendering="crispEdges"/><rect fill="#2d2d2d" x="414.8" y="221.1" width="97.6" height="24.65" shape-rendering="crispEdges"/><rect fill="#2d2d2d" x="512.4" y="221.1" width="146.4" height="24.65" shape-rendering="crispEdges"/><rect fill="#2d2d2d" x="658.8" y="221.1" width="97.6" height="24.65" shape-rendering="crispEdges"/><rect fill="#1e1e1e" x="756.4" y="221.1" width="12.2" height="24.65" shape-rendering="crispEdges"/><rect fill="#1a3142" x="768.6" y="221.1" width="85.4" height="24.65" shape-rendering="crispEdges"/><rect fill="#1a3142" x="854" y="221.1" width="158.6" height="24.65" shape-rendering="crispEdges"/><rect fill="#1a3142" x="1012.6" y="221.1" width="97.6" height="24.65" shape-rendering="crispEdges"/><rect fill="#1e1e1e" x="1110.2" y="221.1" width="12.2" height="24.65" shape-rendering="crispEdges"/><rect fill="#1e1e1e" x="1122.4" y="221.1" width="36.6" height="24.65" shape-rendering="crispEdges"/><rect fill="#1e1e1e" x="1159" y="221.1" width="24.4" height="24.65" shape-rendering="crispEdges"/><rect fill="#1e1e1e" x="1183.4" y="221.1" width="12.2" height="24.65" shape-rendering="crispEdges"/><rect fill="#121212" x="1195.6" y="221.1" width="24.4" height="24.65" shape-rendering="crispEdges"/><rect fill="#121212" x="0" y="245.5" width="24.4" height="24.65" shape-rendering="crispEdges"/><rect fill="#1e1e1e" x="24.4" y="245.5" width="12.2" height="24.65" shape-rendering="crispEdges"/><rect fill="#1e1e1e" x="36.6" y="245.5" width="24.4" height="24.65" shape-rendering="crispEdges"/><rect fill="#2d2d2d" x="61" y="245.5" width="122" height="24.65" shape-rendering="crispEdges"/><rect fill="#2d2d2d" x="183" y="245.5" width="97.6" height="24.65" shape-rendering="crispEdges"/><rect fill="#2d2d2d" x="280.6" y="245.5" width="122" height="24.65" shape-rendering="crispEdges"/><rect fill="#1e1e1e" x="402.6" y="245.5" width="12.2" height="24.65" shape-rendering="crispEdges"/><rect fill="#2d2d2d" x="414.8" y="245.5" width="97.6" height="24.65" shape-rendering="crispEdges"/><rect fill="#2d2d2d" x="512.4" y="245.5" width="146.4" height="24.65" shape-rendering="crispEdges"/><rect fill="#2d2d2d" x="658.8" y="245.5" width="97.6" height="24.65" shape-rendering="crispEdges"/><rect fill="#1e1e1e" x="756.4" y="245.5" width="12.2" height="24.65" shape-rendering="crispEdges"/><rect fill="#1a3142" x="768.6" y="245.5" width="134.2" height="24.65" shape-rendering="crispEdges"/><rect fill="#1a3142" x="902.8" y="245.5" width="61" height="24.65" shape-rendering="crispEdges"/><rect fill="#1a3142" x="963.8" y="245.5" width="146.4" height="24.65" shape-rendering="crispEdges"/><rect fill="#1e1e1e" x="1110.2" y="245.5" width="12.2" height="24.65" shape-rendering="crispEdges"/><rect fill="#1e1e1e" x="1122.4" y="245.5" width="36.6" height="24.65" shape-rendering="crispEdges"/><rect fill="#1e1e1e" x="1159" y="245.5" width="24.4" height="24.65" shape-rendering="crispEdges"/><rect fill="#1e1e1e" x="1183.4" y="245.5" width="12.2" height="24.65" shape-rendering="crispEdges"/><rect fill="#121212" x="1195.6" y="245.5" width="24.4" height="24.65" shape-rendering="crispEdges"/><rect fill="#121212" x="0" y="269.9" width="24.4" height="24.65" shape-rendering="crispEdges"/><rect fill="#1e1e1e" x="24.4" y="269.9" width="12.2" height="24.65" shape-rendering="crispEdges"/><rect fill="#1e1e1e" x="36.6" y="269.9" width="24.4" height="24.65" shape-rendering="crispEdges"/><rect fill="#2d2d2d" x="61" y="269.9" width="341.6" height="24.65" shape-rendering="crispEdges"/><rect fill="#1e1e1e" x="402.6" y="269.9" width="12.2" height="24.65" shape-rendering="crispEdges"/><rect fill="#2d2d2d" x="414.8" y="269.9" width="341.6" height="24.65" shape-rendering="crispEdges"/><rect fill="#1e1e1e" x="756.4" y="269.9" width="12.2" height="24.65" shape-rendering="crispEdges"/><rect fill="#1a3142" x="768.6" y="269.9" width="341.6" height="24.65" shape-rendering="crispEdges"/><rect fill="#1e1e1e" x="1110.2" y="269.9" width="12.2" height="24.65" shape-rendering="crispEdges"/><rect fill="#1e1e1e" x="1122.4" y="269.9" width="36.6" height="24.65" shape-rendering="crispEdges"/><rect fill="#1e1e1e" x="1159" y="269.9" width="24.4" height="24.65" shape-rendering="crispEdges"/><rect fill="#1e1e1e" x="1183.4" y="269.9" width="12.2" height="24.65" shape-rendering="crispEdges"/><rect fill="#121212" x="1195.6" y="269.9" width="24.4" height="24.65" shape-rendering="crispEdges"/><rect fill="#121212" x="0" y="294.3" width="24.4" height="24.65" shape-rendering="crispEdges"/><rect fill="#1e1e1e" x="24.4" y="294.3" width="12.2" height="24.65" shape-rendering="crispEdges"/><rect fill="#1e1e1e" x="36.6" y="294.3" width="24.4" height="24.65" shape-rendering="crispEdges"/><rect fill="#1e1e1e" x="61" y="294.3" width="1098" height="24.65" shape-rendering="crispEdges"/><rect fill="#1e1e1e" x="1159" y="294.3" width="24.4" height="24.65" shape-rendering="crispEdges"/><rect fill="#1e1e1e" x="1183.4" y="294.3" width="12.2" height="24.65" shape-rendering="crispEdges"/><rect fill="#121212" x="1195.6" y="294.3" width="24.4" height="24.65" shape-rendering="crispEdges"/><rect fill="#121212" x="0" y="318.7" width="24.4" height="24.65" shape-rendering="crispEdges"/><rect fill="#1e1e1e" x="24.4" y="318.7" width="12.2" height="24.65" shape-rendering="crispEdges"/><rect fill="#1e1e1e" x="36.6" y="318.7" width="24.4" height="24.65" shape-rendering="crispEdges"/><rect fill="#1e1e1e" x="61" y="318.7" width="134.2" height="24.65" shape-rendering="crispEdges"/><rect fill="#1e1e1e" x="195.2" y="318.7" width="12.2" height="24.65" shape-rendering="crispEdges"/><rect fill="#0178d4" x="207.4" y="318.7" width="36.6" height="24.65" shape-rendering="crispEdges"/><rect fill="#1e1e1e" x="244" y="318.7" width="915" height="24.65" shape-rendering="crispEdges"/><rect fill="#1e1e1e" x="1159" y="318.7" width="24.4" height="24.65" shape-rendering="crispEdges"/><rect fill="#1e1e1e" x="1183.4" y="318.7" width="12.2" height="24.65" shape-rendering="crispEdges"/><rect fill="#121212" x="1195.6" y="318.7" width="24.4" height="24.65" shape-rendering="crispEdges"/><rect fill="#121212" x="0" y="343.1" width="24.4" height="24.65" shape-rendering="crispEdges"/><rect fill="#1e1e1e" x="24.4" y="343.1" width="12.2" height="24.65" shape-rendering="crispEdges"/><rect fill="#1e1e1e" x="36.6" y="343.1" width="24.4" height="24.65" shape-rendering="crispEdges"/><rect fill="#1e1e1e" x="61" y="343.1" width="12.2" height="24.65" shape-rendering="crispEdges"/><rect fill="#242f38" x="73.2" y="343.1" width="12.2" height="24.65" shape-rendering="crispEdges"/><rect fill="#1e1e1e" x="85.4" y="343.1" width="12.2" height="24.65" shape-rendering="crispEdges"/><rect fill="#1e1e1e" x="97.6" y="343.1" width="12.2" height="24.65" shape-rendering="crispEdges"/><rect fill="#1e1e1e" x="109.8" y="343.1" width="451.4" height="24.65" shape-rendering="crispEdges"/><rect fill="#1e1e1e" x="561.2" y="343.1" width="597.8" height="24.65" shape-rendering="crispEdges"/><rect fill="#1e1e1e" x="1159" y="343.1" width="24.4" height="24.65" shape-rendering="crispEdges"/><rect fill="#1e1e1e" x="1183.4" y="343.1" width="12.2" height="24.65" shape-rendering="crispEdges"/><rect fill="#121212" x="1195.6" y="343.1" width="24.4" height="24.65" shape-rendering="crispEdges"/><rect fill="#121212" x="0" y="367.5" width="24.4" height="24.65" shape-rendering="crispEdges"/><rect fill="#1e1e1e" x="24.4" y="367.5" width="12.2" height="24.65" shape-rendering="crispEdges"/><rect fill="#1e1e1e" x="36.6" y="367.5" width="24.4" height="24.65" shape-rendering="crispEdges"/><rect fill="#1e1e1e" x="61" y="367.5" width="12.2" height="24.65" shape-rendering="crispEdges"/><rect fill="#242f38" x="73.2" y="367.5" width="12.2" height="24.65" shape-rendering="crispEdges"/><rect fill="#1e1e1e" x="85.4" y="367.5" width="12.2" height="24.65" shape-rendering="crispEdges"/><rect fill="#1e1e1e" x="97.6" y="367.5" width="12.2" height="24.65" shape-rendering="crispEdges"/><rect fill="#1e1e1e" x="109.8" y="367.5" width="402.6" height="24.65" shape-rendering="crispEdges"/><rect fill="#1e1e1e" x="512.4" y="367.5" width="646.6" height="24.65" shape-rendering="crispEdges"/><rect fill="#1e1e1e" x="1159" y="367.5" width="24.4" height="24.65" shape-rendering="crispEdges"/><rect fill="#1e1e1e" x="1183.4" y="367.5" width="12.2" height="24.65" shape-rendering="crispEdges"/><rect fill="#121212" x="1195.6" y="367.5" width="24.4" height="24.65" shape-rendering="crispEdges"/><rect fill="#121212" x="0" y="391.9" width="24.4" height="24.65" shape-rendering="crispEdges"/><rect fill="#1e1e1e" x="24.4" y="391.9" width="12.2" height="24.65" shape-rendering="crispEdges"/><rect fill="#1e1e1e" x="36.6" y="391.9" width="24.4" height="24.65" shape-rendering="crispEdges"/><rect fill="#1e1e1e" x="61" y="391.9" width="12.2" height="24.65" shape-rendering="crispEdges"/><rect fill="#242f38" x="73.2" y="391.9" width="12.2" height="24.65" shape-rendering="crispEdges"/><rect fill="#1e1e1e" x="85.4" y="391.9" width="12.2" height="24.65" shape-rendering="crispEdges"/><rect fill="#1e1e1e" x="97.6" y="391.9" width="12.2" height="24.65" shape-rendering="crispEdges"/><rect fill="#1e1e1e" x="109.8" y="391.9" width="451.4" height="24.65" shape-rendering="crispEdges"/><rect fill="#1e1e1e" x="561.2" y="391.9" width="597.8" height="24.65" shape-rendering="crispEdges"/><rect fill="#1e1e1e" x="1159" y="391.9" width="24.4" height="24.65" shape-rendering="crispEdges"/><rect fill="#1e1e1e" x="1183.4" y="391.9" width="12.2" height="24.65" shape-rendering="crispEdges"/><rect fill="#121212" x="1195.6" y="391.9" width="24.4" height="24.65" shape-rendering="crispEdges"/><rect fill="#121212" x="0" y="416.3" width="24.4" height="24.65" shape-rendering="crispEdges"/><rect fill="#1e1e1e" x="24.4" y="416.3" width="12.2" height="24.65" shape-rendering="crispEdges"/><rect fill="#1e1e1e" x="36.6" y="416.3" width="24.4" height="24.65" shape-rendering="crispEdges"/><rect fill="#1e1e1e" x="61" y="416.3" width="12.2" height="24.65" shape-rendering="crispEdges"/><rect fill="#242f38" x="73.2" y="416.3" width="12.2" height="24.65" shape-rendering="crispEdges"/><rect fill="#1e1e1e" x="85.4" y="416.3" width="12.2" height="24.65" shape-rendering="crispEdges"/><rect fill="#1e1e1e" x="97.6" y="416.3" width="12.2" height="24.65" shape-rendering="crispEdges"/><rect fill="#1e1e1e" x="109.8" y="416.3" width="268.4" height="24.65" shape-rendering="crispEdges"/><rect fill="#1e1e1e" x="378.2" y="416.3" width="780.8" height="24.65" shape-rendering="crispEdges"/><rect fill="#1e1e1e" x="1159" y="416.3" width="24.4" height="24.65" shape-rendering="crispEdges"/><rect fill="#1e1e1e" x="1183.4" y="416.3" width="12.2" height="24.65" shape-rendering="crispEdges"/><rect fill="#121212" x="1195.6" y="416.3" width="24.4" height="24.65" shape-rendering="crispEdges"/><rect fill="#121212" x="0" y="440.7" width="24.4" height="24.65" shape-rendering="crispEdges"/><rect fill="#1e1e1e" x="24.4" y="440.7" width="12.2" height="24.65" shape-rendering="crispEdges"/><rect fill="#1e1e1e" x="36.6" y="440.7" width="24.4" height="24.65" shape-rendering="crispEdges"/><rect fill="#1e1e1e" x="61" y="440.7" width="12.2" height="24.65" shape-rendering="crispEdges"/><rect fill="#242f38" x="73.2" y="440.7" width="12.2" height="24.65" shape-rendering="crispEdges"/><rect fill="#1e1e1e" x="85.4" y="440.7" width="12.2" height="24.65" shape-rendering="crispEdges"/><rect fill="#1e1e1e" x="97.6" y="440.7" width="12.2" height="24.65" shape-rendering="crispEdges"/><rect fill="#1e1e1e" x="109.8" y="440.7" width="292.8" height="24.65" shape-rendering="crispEdges"/><rect fill="#1e1e1e" x="402.6" y="440.7" width="756.4" height="24.65" shape-rendering="crispEdges"/><rect fill="#1e1e1e" x="1159" y="440.7" width="24.4" height="24.65" shape-rendering="crispEdges"/><rect fill="#1e1e1e" x="1183.4" y="440.7" width="12.2" height="24.65" shape-rendering="crispEdges"/><rect fill="#121212" x="1195.6" y="440.7" width="24.4" height="24.65" shape-rendering="crispEdges"/><rect fill="#121212" x="0" y="465.1" width="24.4" height="24.65" shape-rendering="crispEdges"/><rect fill="#1e1e1e" x="24.4" y="465.1" width="12.2" height="24.65" shape-rendering="crispEdges"/><rect fill="#1e1e1e" x="36.6" y="465.1" width="24.4" height="24.65" shape-rendering="crispEdges"/><rect fill="#1e1e1e" x="61" y="465.1" width="73.2" height="24.65" shape-rendering="crispEdges"/><rect fill="#1e1e1e" x="134.2" y="465.1" width="1024.8" height="24.65" shape-rendering="crispEdges"/><rect fill="#1e1e1e" x="1159" y="465.1" width="24.4" height="24.65" shape-rendering="crispEdges"/><rect fill="#1e1e1e" x="1183.4" y="465.1" width="12.2" height="24.65" shape-rendering="crispEdges"/><rect fill="#121212" x="1195.6" y="465.1" width="24.4" height="24.65" shape-rendering="crispEdges"/><rect fill="#121212" x="0" y="489.5" width="24.4" height="24.65" shape-rendering="crispEdges"/><rect fill="#1e1e1e" x="24.4" y="489.5" width="12.2" height="24.65" shape-rendering="crispEdges"/><rect fill="#1e1e1e" x="36.6" y="489.5" width="24.4" height="24.65" shape-rendering="crispEdges"/><rect fill="#1e1e1e" x="61" y="489.5" width="12.2" height="24.65" shape-rendering="crispEdges"/><rect fill="#242f38" x="73.2" y="489.5" width="12.2" height="24.65" shape-rendering="crispEdges"/><rect fill="#1e1e1e" x="85.4" y="489.5" width="12.2" height="24.65" shape-rendering="crispEdges"/><rect fill="#1e1e1e" x="97.6" y="489.5" width="12.2" height="24.65" shape-rendering="crispEdges"/><rect fill="#1e1e1e" x="109.8" y="489.5" width="158.6" height="24.65" shape-rendering="crispEdges"/><rect fill="#1e1e1e" x="268.4" y="489.5" width="890.6" height="24.65" shape-rendering="crispEdges"/><rect fill="#1e1e1e" x="1159" y="489.5" width="24.4" height="24.65" shape-rendering="crispEdges"/><rect fill="#1e1e1e" x="1183.4" y="489.5" width="12.2" height="24.65" shape-rendering="crispEdges"/><rect fill="#121212" x="1195.6" y="489.5" width="24.4" height="24.65" shape-rendering="crispEdges"/><rect fill="#121212" x="0" y="513.9" width="24.4" height="24.65" shape-rendering="crispEdges"/><rect fill="#1e1e1e" x="24.4" y="513.9" width="12.2" height="24.65" shape-rendering="crispEdges"/><rect fill="#1e1e1e" x="36.6" y="513.9" width="24.4" height="24.65" shape-rendering="crispEdges"/><rect fill="#1e1e1e" x="61" y="513.9" width="1098" height="24.65" shape-rendering="crispEdges"/><rect fill="#1e1e1e" x="1159" y="513.9" width="24.4" height="24.65" shape-rendering="crispEdges"/><rect fill="#1e1e1e" x="1183.4" y="513.9" width="12.2" height="24.65" shape-rendering="crispEdges"/><rect fill="#121212" x="1195.6" y="513.9" width="24.4" height="24.65" shape-rendering="crispEdges"/><rect fill="#121212" x="0" y="538.3" width="24.4" height="24.65" shape-rendering="crispEdges"/><rect fill="#1e1e1e" x="24.4" y="538.3" width="12.2" height="24.65" shape-rendering="crispEdges"/><rect fill="#1e1e1e" x="36.6" y="538.3" width="24.4" height="24.65" shape-rendering="crispEdges"/><rect fill="#1e1e1e" x="61" y="538.3" width="902.8" height="24.65" shape-rendering="crispEdges"/><rect fill="#1e1e1e" x="963.8" y="538.3" width="97.6" height="24.65" shape-rendering="crispEdges"/><rect fill="#0178d4" x="1061.4" y="538.3" width="24.4" height="24.65" shape-rendering="crispEdges"/><rect fill="#0178d4" x="1085.8" y="538.3" width="48.8" height="24.65" shape-rendering="crispEdges"/><rect fill="#0178d4" x="1134.6" y="538.3" width="24.4" height="24.65" shape-rendering="crispEdges"/><rect fill="#1e1e1e" x="1159" y="538.3" width="24.4" height="24.65" shape-rendering="crispEdges"/><rect fill="#1e1e1e" x="1183.4" y="538.3" width="12.2" height="24.65" shape-rendering="crispEdges"/><rect fill="#121212" x="1195.6" y="538.3" width="24.4" height="24.65" shape-rendering="crispEdges"/><rect fill="#121212" x="0" y="562.7" width="24.4" height="24.65" shape-rendering="crispEdges"/><rect fill="#1e1e1e" x="24.4" y="562.7" width="12.2" height="24.65" shape-rendering="crispEdges"/><rect fill="#1e1e1e" x="36.6" y="562.7" width="1146.8" height="24.65" shape-rendering="crispEdges"/><rect fill="#1e1e1e" x="1183.4" y="562.7" width="12.2" height="24.65" shape-rendering="crispEdges"/><rect fill="#121212" x="1195.6" y="562.7" width="24.4" height="24.65" shape-rendering="crispEdges"/><rect fill="#121212" x="0" y="587.1" width="1220" height="24.65" shape-rendering="crispEdges"/>
    <g class="terminal-1209353277-matrix">
    <text class="terminal-1209353277-r1" x="0" y="20" textLength="1220" clip-path="url(#terminal-1209353277-line-0)">▔▔▔▔▔▔▔▔▔▔▔▔▔▔▔▔▔▔▔▔▔▔▔▔▔▔▔▔▔▔▔▔▔▔▔▔▔▔▔▔▔▔▔▔▔▔▔▔▔▔▔▔▔▔▔▔▔▔▔▔▔▔▔▔▔▔▔▔▔▔▔▔▔▔▔▔▔▔▔▔▔▔▔▔▔▔▔▔▔▔▔▔▔▔▔▔▔▔▔▔</text><text class="terminal-1209353277-r2" x="1220" y="20" textLength="12.2" clip-path="url(#terminal-1209353277-line-0)">
</text><text class="terminal-1209353277-r2" x="1220" y="44.4" textLength="12.2" clip-path="url(#terminal-1209353277-line-1)">
</text><text class="terminal-1209353277-r3" x="24.4" y="68.8" textLength="12.2" clip-path="url(#terminal-1209353277-line-2)">┏</text><text class="terminal-1209353277-r3" x="36.6" y="68.8" textLength="1146.8" clip-path="url(#terminal-1209353277-line-2)">━━━━━━━━━━━━━━━━━━━━━━━━━━━━━━━━━━━━━━━━━━━━━━━━━━━━━━━━━━━━━━━━━━━━━━━━━━━━━━━━━━━━━━━━━━━━━━</text><text class="terminal-1209353277-r3" x="1183.4" y="68.8" textLength="12.2" clip-path="url(#terminal-1209353277-line-2)">┓</text><text class="terminal-1209353277-r2" x="1220" y="68.8" textLength="12.2" clip-path="url(#terminal-1209353277-line-2)">
</text><text class="terminal-1209353277-r3" x="24.4" y="93.2" textLength="12.2" clip-path="url(#terminal-1209353277-line-3)">┃</text><text class="terminal-1209353277-r4" x="73.2" y="93.2" textLength="12.2" clip-path="url(#terminal-1209353277-line-3)">⭘</text><text class="terminal-1209353277-r4" x="439.2" y="93.2" textLength="73.2" clip-path="url(#terminal-1209353277-line-3)">aicage</text><text class="terminal-1209353277-r5" x="512.4" y="93.2" textLength="36.6" clip-path="url(#terminal-1209353277-line-3)">&#160;—&#160;</text><text class="terminal-1209353277-r5" x="549" y="93.2" textLength="195.2" clip-path="url(#terminal-1209353277-line-3)">container&#160;config</text><text class="terminal-1209353277-r3" x="1183.4" y="93.2" textLength="12.2" clip-path="url(#terminal-1209353277-line-3)">┃</text><text class="terminal-1209353277-r2" x="1220" y="93.2" textLength="12.2" clip-path="url(#terminal-1209353277-line-3)">
</text><text class="terminal-1209353277-r3" x="24.4" y="117.6" textLength="12.2" clip-path="url(#terminal-1209353277-line-4)">┃</text><text class="terminal-1209353277-r3" x="1183.4" y="117.6" textLength="12.2" clip-path="url(#terminal-1209353277-line-4)">┃</text><text class="terminal-1209353277-r2" x="1220" y="117.6" textLength="12.2" clip-path="url(#terminal-1209353277-line-4)">
</text><text class="terminal-1209353277-r3" x="24.4" y="142" textLength="12.2" clip-path="url(#terminal-1209353277-line-5)">┃</text><text class="terminal-1209353277-r6" x="61" y="142" textLength="170.8" clip-path="url(#terminal-1209353277-line-5)">Agent:&#160;&#160;&#160;codex</text><text class="terminal-1209353277-r3" x="1183.4" y="142" textLength="12.2" clip-path="url(#terminal-1209353277-line-5)">┃</text><text class="terminal-1209353277-r2" x="1220" y="142" textLength="12.2" clip-path="url(#terminal-1209353277-line-5)">
</text><text class="terminal-1209353277-r3" x="24.4" y="166.4" textLength="12.2" clip-path="url(#terminal-1209353277-line-6)">┃</text><text class="terminal-1209353277-r6" x="61" y="166.4" textLength="305" clip-path="url(#terminal-1209353277-line-6)">Project:&#160;/tmp/aicage-test</text><text class="terminal-1209353277-r3" x="1183.4" y="166.4" textLength="12.2" clip-path="url(#terminal-1209353277-line-6)">┃</text><text class="terminal-1209353277-r2" x="1220" y="166.4" textLength="12.2" clip-path="url(#terminal-1209353277-line-6)">
</text><text class="terminal-1209353277-r3" x="24.4" y="190.8" textLength="12.2" clip-path="url(#terminal-1209353277-line-7)">┃</text><text class="terminal-1209353277-r3" x="1183.4" y="190.8" textLength="12.2" clip-path="url(#terminal-1209353277-line-7)">┃</text><text class="terminal-1209353277-r2" x="1220" y="190.8" textLength="12.2" clip-path="url(#terminal-1209353277-line-7)">
</text><text class="terminal-1209353277-r3" x="24.4" y="215.2" textLength="12.2" clip-path="url(#terminal-1209353277-line-8)">┃</text><text class="terminal-1209353277-r3" x="1183.4" y="215.2" textLength="12.2" clip-path="url(#terminal-1209353277-line-8)">┃</text><text class="terminal-1209353277-r2" x="1220" y="215.2" textLength="12.2" clip-path="url(#terminal-1209353277-line-8)">
</text><text class="terminal-1209353277-r3" x="24.4" y="239.6" textLength="12.2" clip-path="url(#terminal-1209353277-line-9)">┃</text><text class="terminal-1209353277-r7" x="195.2" y="239.6" textLength="73.2" clip-path="url(#terminal-1209353277-line-9)">&#160;Base&#160;</text><text class="terminal-1209353277-r7" x="512.4" y="239.6" textLength="146.4" clip-path="url(#terminal-1209353277-line-9)">&#160;Extensions&#160;</text><text class="terminal-1209353277-r8" x="854" y="239.6" textLength="158.6" clip-path="url(#terminal-1209353277-line-9)">&#160;Docker&#160;Args&#160;</text><text class="terminal-1209353277-r3" x="1183.4" y="239.6" textLength="12.2" clip-path="url(#terminal-1209353277-line-9)">┃</text><text class="terminal-1209353277-r2" x="1220" y="239.6" textLength="12.2" clip-path="url(#terminal-1209353277-line-9)">
</text><text class="terminal-1209353277-r3" x="24.4" y="264" textLength="12.2" clip-path="url(#terminal-1209353277-line-10)">┃</text><text class="terminal-1209353277-r7" x="183" y="264" textLength="97.6" clip-path="url(#terminal-1209353277-line-10)">&#160;fedora&#160;</text><text class="terminal-1209353277-r7" x="512.4" y="264" textLength="146.4" clip-path="url(#terminal-1209353277-line-10)">&#160;1&#160;selected&#160;</text><text class="terminal-1209353277-r8" x="902.8" y="264" textLength="61" clip-path="url(#terminal-1209353277-line-10)">&#160;yes&#160;</text><text class="terminal-1209353277-r3" x="1183.4" y="264" textLength="12.2" clip-path="url(#terminal-1209353277-line-10)">┃</text><text class="terminal-1209353277-r2" x="1220" y="264" textLength="12.2" clip-path="url(#terminal-1209353277-line-10)">
</text><text class="terminal-1209353277-r3" x="24.4" y="288.4" textLength="12.2" clip-path="url(#terminal-1209353277-line-11)">┃</text><text class="terminal-1209353277-r3" x="1183.4" y="288.4" textLength="12.2" clip-path="url(#terminal-1209353277-line-11)">┃</text><text class="terminal-1209353277-r2" x="1220" y="288.4" textLength="12.2" clip-path="url(#terminal-1209353277-line-11)">
</text><text class="terminal-1209353277-r3" x="24.4" y="312.8" textLength="12.2" clip-path="url(#terminal-1209353277-line-12)">┃</text><text class="terminal-1209353277-r3" x="1183.4" y="312.8" textLength="12.2" clip-path="url(#terminal-1209353277-line-12)">┃</text><text class="terminal-1209353277-r2" x="1220" y="312.8" textLength="12.2" clip-path="url(#terminal-1209353277-line-12)">
</text><text class="terminal-1209353277-r3" x="24.4" y="337.2" textLength="12.2" clip-path="url(#terminal-1209353277-line-13)">┃</text><text class="terminal-1209353277-r9" x="61" y="337.2" textLength="134.2" clip-path="url(#terminal-1209353277-line-13)">Bind&#160;Mounts</text><text class="terminal-1209353277-r10" x="207.4" y="337.2" textLength="36.6" clip-path="url(#terminal-1209353277-line-13)">&#160;+&#160;</text><text class="terminal-1209353277-r3" x="1183.4" y="337.2" textLength="12.2" clip-path="url(#terminal-1209353277-line-13)">┃</text><text class="terminal-1209353277-r2" x="1220" y="337.2" textLength="12.2" clip-path="url(#terminal-1209353277-line-13)">
</text><text class="terminal-1209353277-r3" x="24.4" y="361.6" textLength="12.2" clip-path="url(#terminal-1209353277-line-14)">┃</text><text class="terminal-1209353277-r11" x="61" y="361.6" textLength="12.2" clip-path="url(#terminal-1209353277-line-14)">▐</text><text class="terminal-1209353277-r12" x="73.2" y="361.6" textLength="12.2" clip-path="url(#terminal-1209353277-line-14)">X</text><text class="terminal-1209353277-r11" x="85.4" y="361.6" textLength="12.2" clip-path="url(#terminal-1209353277-line-14)">▌</text><text class="terminal-1209353277-r13" x="109.8" y="361.6" textLength="451.4" clip-path="url(#terminal-1209353277-line-14)">Git&#160;config&#160;&#160;:&#160;/home/stefan/.gitconfig</text><text class="terminal-1209353277-r3" x="1183.4" y="361.6" textLength="12.2" clip-path="url(#terminal-1209353277-line-14)">┃</text><text class="terminal-1209353277-r2" x="1220" y="361.6" textLength="12.2" clip-path="url(#terminal-1209353277-line-14)">
</text><text class="terminal-1209353277-r3" x="24.4" y="386" textLength="12.2" clip-path="url(#terminal-1209353277-line-15)">┃</text><text class="terminal-1209353277-r11" x="61" y="386" textLength="12.2" clip-path="url(#terminal-1209353277-line-15)">▐</text><text class="terminal-1209353277-r12" x="73.2" y="386" textLength="12.2" clip-path="url(#terminal-1209353277-line-15)">X</text><text class="terminal-1209353277-r11" x="85.4" y="386" textLength="12.2" clip-path="url(#terminal-1209353277-line-15)">▌</text><text class="terminal-1209353277-r13" x="109.8" y="386" textLength="402.6" clip-path="url(#terminal-1209353277-line-15)">GnuPG&#160;&#160;&#160;&#160;&#160;&#160;&#160;:&#160;/home/stefan/.gnupg</text><text class="terminal-1209353277-r3" x="1183.4" y="386" textLength="12.2" clip-path="url(#terminal-1209353277-line-15)">┃</text><text class="terminal-1209353277-r2" x="1220" y="386" textLength="12.2" clip-path="url(#terminal-1209353277-line-15)">
</text><text class="terminal-1209353277-r3" x="24.4" y="410.4" textLength="12.2" clip-path="url(#terminal-1209353277-line-16)">┃</text><text class="terminal-1209353277-r11" x="61" y="410.4" textLength="12.2" clip-path="url(#terminal-1209353277-line-16)">▐</text><text class="terminal-1209353277-r12" x="73.2" y="410.4" textLength="12.2" clip-path="url(#terminal-1209353277-line-16)">X</text><text class="terminal-1209353277-r11" x="85.4" y="410.4" textLength="12.2" clip-path="url(#terminal-1209353277-line-16)">▌</text><text class="terminal-1209353277-r13" x="109.8" y="410.4" textLength="451.4" clip-path="url(#terminal-1209353277-line-16)">Extension&#160;gh:&#160;/home/stefan/.config/gh</text><text class="terminal-1209353277-r3" x="1183.4" y="410.4" textLength="12.2" clip-path="url(#terminal-1209353277-line-16)">┃</text><text class="terminal-1209353277-r2" x="1220" y="410.4" textLength="12.2" clip-path="url(#terminal-1209353277-line-16)">
</text><text class="terminal-1209353277-r3" x="24.4" y="434.8" textLength="12.2" clip-path="url(#terminal-1209353277-line-17)">┃</text><text class="terminal-1209353277-r11" x="61" y="434.8" textLength="12.2" clip-path="url(#terminal-1209353277-line-17)">▐</text><text class="terminal-1209353277-r12" x="73.2" y="434.8" textLength="12.2" clip-path="url(#terminal-1209353277-line-17)">X</text><text class="terminal-1209353277-r11" x="85.4" y="434.8" textLength="12.2" clip-path="url(#terminal-1209353277-line-17)">▌</text><text class="terminal-1209353277-r13" x="109.8" y="434.8" textLength="268.4" clip-path="url(#terminal-1209353277-line-17)">&#160;&#160;&#160;&#160;&#160;&#160;&#160;&#160;&#160;&#160;&#160;&#160;:&#160;/foo/bar</text><text class="terminal-1209353277-r3" x="1183.4" y="434.8" textLength="12.2" clip-path="url(#terminal-1209353277-line-17)">┃</text><text class="terminal-1209353277-r2" x="1220" y="434.8" textLength="12.2" clip-path="url(#terminal-1209353277-line-17)">
</text><text class="terminal-1209353277-r3" x="24.4" y="459.2" textLength="12.2" clip-path="url(#terminal-1209353277-line-18)">┃</text><text class="terminal-1209353277-r11" x="61" y="459.2" textLength="12.2" clip-path="url(#terminal-1209353277-line-18)">▐</text><text class="terminal-1209353277-r12" x="73.2" y="459.2" textLength="12.2" clip-path="url(#terminal-1209353277-line-18)">X</text><text class="terminal-1209353277-r11" x="85.4" y="459.2" textLength="12.2" clip-path="url(#terminal-1209353277-line-18)">▌</text><text class="terminal-1209353277-r13" x="109.8" y="459.2" textLength="292.8" clip-path="url(#terminal-1209353277-line-18)">Read-only&#160;&#160;&#160;:&#160;/read/only</text><text class="terminal-1209353277-r3" x="1183.4" y="459.2" textLength="12.2" clip-path="url(#terminal-1209353277-line-18)">┃</text><text class="terminal-1209353277-r2" x="1220" y="459.2" textLength="12.2" clip-path="url(#terminal-1209353277-line-18)">
</text><text class="terminal-1209353277-r3" x="24.4" y="483.6" textLength="12.2" clip-path="url(#terminal-1209353277-line-19)">┃</text><text class="terminal-1209353277-r9" x="61" y="483.6" textLength="73.2" clip-path="url(#terminal-1209353277-line-19)">Docker</text><text class="terminal-1209353277-r3" x="1183.4" y="483.6" textLength="12.2" clip-path="url(#terminal-1209353277-line-19)">┃</text><text class="terminal-1209353277-r2" x="1220" y="483.6" textLength="12.2" clip-path="url(#terminal-1209353277-line-19)">
</text><text class="terminal-1209353277-r3" x="24.4" y="508" textLength="12.2" clip-path="url(#terminal-1209353277-line-20)">┃</text><text class="terminal-1209353277-r11" x="61" y="508" textLength="12.2" clip-path="url(#terminal-1209353277-line-20)">▐</text><text class="terminal-1209353277-r14" x="73.2" y="508" textLength="12.2" clip-path="url(#terminal-1209353277-line-20)">X</text><text class="terminal-1209353277-r11" x="85.4" y="508" textLength="12.2" clip-path="url(#terminal-1209353277-line-20)">▌</text><text class="terminal-1209353277-r13" x="109.8" y="508" textLength="158.6" clip-path="url(#terminal-1209353277-line-20)">Docker&#160;socket</text><text class="terminal-1209353277-r3" x="1183.4" y="508" textLength="12.2" clip-path="url(#terminal-1209353277-line-20)">┃</text><text class="terminal-1209353277-r2" x="1220" y="508" textLength="12.2" clip-path="url(#terminal-1209353277-line-20)">
</text><text class="terminal-1209353277-r3" x="24.4" y="532.4" textLength="12.2" clip-path="url(#terminal-1209353277-line-21)">┃</text><text class="terminal-1209353277-r3" x="1183.4" y="532.4" textLength="12.2" clip-path="url(#terminal-1209353277-line-21)">┃</text><text class="terminal-1209353277-r2" x="1220" y="532.4" textLength="12.2" clip-path="url(#terminal-1209353277-line-21)">
</text><text class="terminal-1209353277-r3" x="24.4" y="556.8" textLength="12.2" clip-path="url(#terminal-1209353277-line-22)">┃</text><text class="terminal-1209353277-r6" x="963.8" y="556.8" textLength="97.6" clip-path="url(#terminal-1209353277-line-22)">&#160;Cancel&#160;</text><text class="terminal-1209353277-r15" x="1085.8" y="556.8" textLength="48.8" clip-path="url(#terminal-1209353277-line-22)">&#160;OK&#160;</text><text class="terminal-1209353277-r3" x="1183.4" y="556.8" textLength="12.2" clip-path="url(#terminal-1209353277-line-22)">┃</text><text class="terminal-1209353277-r2" x="1220" y="556.8" textLength="12.2" clip-path="url(#terminal-1209353277-line-22)">
</text><text class="terminal-1209353277-r3" x="24.4" y="581.2" textLength="12.2" clip-path="url(#terminal-1209353277-line-23)">┗</text><text class="terminal-1209353277-r3" x="36.6" y="581.2" textLength="1146.8" clip-path="url(#terminal-1209353277-line-23)">━━━━━━━━━━━━━━━━━━━━━━━━━━━━━━━━━━━━━━━━━━━━━━━━━━━━━━━━━━━━━━━━━━━━━━━━━━━━━━━━━━━━━━━━━━━━━━</text><text class="terminal-1209353277-r3" x="1183.4" y="581.2" textLength="12.2" clip-path="url(#terminal-1209353277-line-23)">┛</text><text class="terminal-1209353277-r2" x="1220" y="581.2" textLength="12.2" clip-path="url(#terminal-1209353277-line-23)">
</text><text class="terminal-1209353277-r1" x="0" y="605.6" textLength="1220" clip-path="url(#terminal-1209353277-line-24)">▁▁▁▁▁▁▁▁▁▁▁▁▁▁▁▁▁▁▁▁▁▁▁▁▁▁▁▁▁▁▁▁▁▁▁▁▁▁▁▁▁▁▁▁▁▁▁▁▁▁▁▁▁▁▁▁▁▁▁▁▁▁▁▁▁▁▁▁▁▁▁▁▁▁▁▁▁▁▁▁▁▁▁▁▁▁▁▁▁▁▁▁▁▁▁▁▁▁▁▁</text>
    </g>
    </g>
</svg>
