<svg class="rich-terminal" viewBox="0 0 1263 562.4" xmlns="http://www.w3.org/2000/svg">
    <!-- Generated with Rich https://www.textualize.io -->
    <style>

    @font-face {
        font-family: "Fira Code";
        src: local("FiraCode-Regular"),
                url("https://cdnjs.cloudflare.com/ajax/libs/firacode/6.2.0/woff2/FiraCode-Regular.woff2") format("woff2"),
                url("https://cdnjs.cloudflare.com/ajax/libs/firacode/6.2.0/woff/FiraCode-Regular.woff") format("woff");
        font-style: normal;
        font-weight: 400;
    }
    @font-face {
        font-family: "Fira Code";
        src: local("FiraCode-Bold"),
                url("https://cdnjs.cloudflare.com/ajax/libs/firacode/6.2.0/woff2/FiraCode-Bold.woff2") format("woff2"),
                url("https://cdnjs.cloudflare.com/ajax/libs/firacode/6.2.0/woff/FiraCode-Bold.woff") format("woff");
        font-style: bold;
        font-weight: 700;
    }

    .terminal-2063146741-matrix {
        font-family: Fira Code, monospace;
        font-size: 20px;
        line-height: 24.4px;
        font-variant-east-asian: full-width;
    }

    .terminal-2063146741-title {
        font-size: 18px;
        font-weight: bold;
        font-family: arial;
    }

    .terminal-2063146741-r1 { fill: #121212 }
.terminal-2063146741-r2 { fill: #c5c8c6 }
.terminal-2063146741-r3 { fill: #0178d4 }
.terminal-2063146741-r4 { fill: #e1e1e1 }
.terminal-2063146741-r5 { fill: #9e9e9e }
.terminal-2063146741-r6 { fill: #e0e0e0;font-weight: bold }
.terminal-2063146741-r7 { fill: #a5a5a5 }
.terminal-2063146741-r8 { fill: #272727 }
.terminal-2063146741-r9 { fill: #e0e0e0 }
.terminal-2063146741-r10 { fill: #ddedf9;font-weight: bold }
.terminal-2063146741-r11 { fill: #000000 }
    </style>

    <defs>
    <clipPath id="terminal-2063146741-clip-terminal">
      <rect x="0" y="0" width="1243.3999999999999" height="511.4" />
    </clipPath>
    <clipPath id="terminal-2063146741-line-0">
    <rect x="0" y="1.5" width="1244.4" height="24.65"/>
            </clipPath>
<clipPath id="terminal-2063146741-line-1">
    <rect x="0" y="25.9" width="1244.4" height="24.65"/>
            </clipPath>
<clipPath id="terminal-2063146741-line-2">
    <rect x="0" y="50.3" width="1244.4" height="24.65"/>
            </clipPath>
<clipPath id="terminal-2063146741-line-3">
    <rect x="0" y="74.7" width="1244.4" height="24.65"/>
            </clipPath>
<clipPath id="terminal-2063146741-line-4">
    <rect x="0" y="99.1" width="1244.4" height="24.65"/>
            </clipPath>
<clipPath id="terminal-2063146741-line-5">
    <rect x="0" y="123.5" width="1244.4" height="24.65"/>
            </clipPath>
<clipPath id="terminal-2063146741-line-6">
    <rect x="0" y="147.9" width="1244.4" height="24.65"/>
            </clipPath>
<clipPath id="terminal-2063146741-line-7">
    <rect x="0" y="172.3" width="1244.4" height="24.65"/>
            </clipPath>
<clipPath id="terminal-2063146741-line-8">
    <rect x="0" y="196.7" width="1244.4" height="24.65"/>
            </clipPath>
<clipPath id="terminal-2063146741-line-9">
    <rect x="0" y="221.1" width="1244.4" height="24.65"/>
            </clipPath>
<clipPath id="terminal-2063146741-line-10">
    <rect x="0" y="245.5" width="1244.4" height="24.65"/>
            </clipPath>
<clipPath id="terminal-2063146741-line-11">
    <rect x="0" y="269.9" width="1244.4" height="24.65"/>
            </clipPath>
<clipPath id="terminal-2063146741-line-12">
    <rect x="0" y="294.3" width="1244.4" height="24.65"/>
            </clipPath>
<clipPath id="terminal-2063146741-line-13">
    <rect x="0" y="318.7" width="1244.4" height="24.65"/>
            </clipPath>
<clipPath id="terminal-2063146741-line-14">
    <rect x="0" y="343.1" width="1244.4" height="24.65"/>
            </clipPath>
<clipPath id="terminal-2063146741-line-15">
    <rect x="0" y="367.5" width="1244.4" height="24.65"/>
            </clipPath>
<clipPath id="terminal-2063146741-line-16">
    <rect x="0" y="391.9" width="1244.4" height="24.65"/>
            </clipPath>
<clipPath id="terminal-2063146741-line-17">
    <rect x="0" y="416.3" width="1244.4" height="24.65"/>
            </clipPath>
<clipPath id="terminal-2063146741-line-18">
    <rect x="0" y="440.7" width="1244.4" height="24.65"/>
            </clipPath>
<clipPath id="terminal-2063146741-line-19">
    <rect x="0" y="465.1" width="1244.4" height="24.65"/>
            </clipPath>
    </defs>

    <rect fill="#292929" stroke="rgba(255,255,255,0.35)" stroke-width="1" x="1" y="1" width="1261" height="560.4" rx="8"/><text class="terminal-2063146741-title" fill="#c5c8c6" text-anchor="middle" x="630" y="27">aicage</text>
            <g transform="translate(26,22)">
            <circle cx="0" cy="0" r="7" fill="#ff5f57"/>
            <circle cx="22" cy="0" r="7" fill="#febc2e"/>
            <circle cx="44" cy="0" r="7" fill="#28c840"/>
            </g>
        
    <g transform="translate(9, 41)" clip-path="url(#terminal-2063146741-clip-terminal)">
    <rect fill="#121212" x="0" y="1.5" width="1244.4" height="24.65" shape-rendering="crispEdges"/><rect fill="#121212" x="0" y="25.9" width="24.4" height="24.65" shape-rendering="crispEdges"/><rect fill="#121212" x="24.4" y="25.9" width="1195.6" height="24.65" shape-rendering="crispEdges"/><rect fill="#121212" x="1220" y="25.9" width="24.4" height="24.65" shape-rendering="crispEdges"/><rect fill="#121212" x="0" y="50.3" width="24.4" height="24.65" shape-rendering="crispEdges"/><rect fill="#1e1e1e" x="24.4" y="50.3" width="12.2" height="24.65" shape-rendering="crispEdges"/><rect fill="#1e1e1e" x="36.6" y="50.3" width="1171.2" height="24.65" shape-rendering="crispEdges"/><rect fill="#1e1e1e" x="1207.8" y="50.3" width="12.2" height="24.65" shape-rendering="crispEdges"/><rect fill="#121212" x="1220" y="50.3" width="24.4" height="24.65" shape-rendering="crispEdges"/><rect fill="#121212" x="0" y="74.7" width="24.4" height="24.65" shape-rendering="crispEdges"/><rect fill="#1e1e1e" x="24.4" y="74.7" width="12.2" height="24.65" shape-rendering="crispEdges"/><rect fill="#1e1e1e" x="36.6" y="74.7" width="24.4" height="24.65" shape-rendering="crispEdges"/><rect fill="#1e1e1e" x="61" y="74.7" width="12.2" height="24.65" shape-rendering="crispEdges"/><rect fill="#1e1e1e" x="73.2" y="74.7" width="12.2" height="24.65" shape-rendering="crispEdges"/><rect fill="#1e1e1e" x="85.4" y="74.7" width="61" height="24.65" shape-rendering="crispEdges"/><rect fill="#1e1e1e" x="146.4" y="74.7" width="12.2" height="24.65" shape-rendering="crispEdges"/><rect fill="#1e1e1e" x="158.6" y="74.7" width="256.2" height="24.65" shape-rendering="crispEdges"/><rect fill="#1e1e1e" x="414.8" y="74.7" width="73.2" height="24.65" shape-rendering="crispEdges"/><rect fill="#1e1e1e" x="488" y="74.7" width="36.6" height="24.65" shape-rendering="crispEdges"/><rect fill="#1e1e1e" x="524.6" y="74.7" width="280.6" height="24.65" shape-rendering="crispEdges"/><rect fill="#1e1e1e" x="805.2" y="74.7" width="256.2" height="24.65" shape-rendering="crispEdges"/><rect fill="#1e1e1e" x="1061.4" y="74.7" width="12.2" height="24.65" shape-rendering="crispEdges"/><rect fill="#1e1e1e" x="1073.6" y="74.7" width="0" height="24.65" shape-rendering="crispEdges"/><rect fill="#1e1e1e" x="1073.6" y="74.7" width="97.6" height="24.65" shape-rendering="crispEdges"/><rect fill="#1e1e1e" x="1171.2" y="74.7" width="12.2" height="24.65" shape-rendering="crispEdges"/><rect fill="#1e1e1e" x="1183.4" y="74.7" width="24.4" height="24.65" shape-rendering="crispEdges"/><rect fill="#1e1e1e" x="1207.8" y="74.7" width="12.2" height="24.65" shape-rendering="crispEdges"/><rect fill="#121212" x="1220" y="74.7" width="24.4" height="24.65" shape-rendering="crispEdges"/><rect fill="#121212" x="0" y="99.1" width="24.4" height="24.65" shape-rendering="crispEdges"/><rect fill="#1e1e1e" x="24.4" y="99.1" width="12.2" height="24.65" shape-rendering="crispEdges"/><rect fill="#1e1e1e" x="36.6" y="99.1" width="24.4" height="24.65" shape-rendering="crispEdges"/><rect fill="#1e1e1e" x="61" y="99.1" width="1122.4" height="24.65" shape-rendering="crispEdges"/><rect fill="#1e1e1e" x="1183.4" y="99.1" width="24.4" height="24.65" shape-rendering="crispEdges"/><rect fill="#1e1e1e" x="1207.8" y="99.1" width="12.2" height="24.65" shape-rendering="crispEdges"/><rect fill="#121212" x="1220" y="99.1" width="24.4" height="24.65" shape-rendering="crispEdges"/><rect fill="#121212" x="0" y="123.5" width="24.4" height="24.65" shape-rendering="crispEdges"/><rect fill="#1e1e1e" x="24.4" y="123.5" width="12.2" height="24.65" shape-rendering="crispEdges"/><rect fill="#1e1e1e" x="36.6" y="123.5" width="24.4" height="24.65" shape-rendering="crispEdges"/><rect fill="#1e1e1e" x="61" y="123.5" width="134.2" height="24.65" shape-rendering="crispEdges"/><rect fill="#1e1e1e" x="195.2" y="123.5" width="988.2" height="24.65" shape-rendering="crispEdges"/><rect fill="#1e1e1e" x="1183.4" y="123.5" width="24.4" height="24.65" shape-rendering="crispEdges"/><rect fill="#1e1e1e" x="1207.8" y="123.5" width="12.2" height="24.65" shape-rendering="crispEdges"/><rect fill="#121212" x="1220" y="123.5" width="24.4" height="24.65" shape-rendering="crispEdges"/><rect fill="#121212" x="0" y="147.9" width="24.4" height="24.65" shape-rendering="crispEdges"/><rect fill="#1e1e1e" x="24.4" y="147.9" width="12.2" height="24.65" shape-rendering="crispEdges"/><rect fill="#1e1e1e" x="36.6" y="147.9" width="24.4" height="24.65" shape-rendering="crispEdges"/><rect fill="#1e1e1e" x="61" y="147.9" width="597.8" height="24.65" shape-rendering="crispEdges"/><rect fill="#1e1e1e" x="658.8" y="147.9" width="524.6" height="24.65" shape-rendering="crispEdges"/><rect fill="#1e1e1e" x="1183.4" y="147.9" width="24.4" height="24.65" shape-rendering="crispEdges"/><rect fill="#1e1e1e" x="1207.8" y="147.9" width="12.2" height="24.65" shape-rendering="crispEdges"/><rect fill="#121212" x="1220" y="147.9" width="24.4" height="24.65" shape-rendering="crispEdges"/><rect fill="#121212" x="0" y="172.3" width="24.4" height="24.65" shape-rendering="crispEdges"/><rect fill="#1e1e1e" x="24.4" y="172.3" width="12.2" height="24.65" shape-rendering="crispEdges"/><rect fill="#1e1e1e" x="36.6" y="172.3" width="24.4" height="24.65" shape-rendering="crispEdges"/><rect fill="#1e1e1e" x="61" y="172.3" width="1122.4" height="24.65" shape-rendering="crispEdges"/><rect fill="#1e1e1e" x="1183.4" y="172.3" width="24.4" height="24.65" shape-rendering="crispEdges"/><rect fill="#1e1e1e" x="1207.8" y="172.3" width="12.2" height="24.65" shape-rendering="crispEdges"/><rect fill="#121212" x="1220" y="172.3" width="24.4" height="24.65" shape-rendering="crispEdges"/><rect fill="#121212" x="0" y="196.7" width="24.4" height="24.65" shape-rendering="crispEdges"/><rect fill="#1e1e1e" x="24.4" y="196.7" width="12.2" height="24.65" shape-rendering="crispEdges"/><rect fill="#1e1e1e" x="36.6" y="196.7" width="24.4" height="24.65" shape-rendering="crispEdges"/><rect fill="#2d3740" x="61" y="196.7" width="183" height="24.65" shape-rendering="crispEdges"/><rect fill="#2d3740" x="244" y="196.7" width="146.4" height="24.65" shape-rendering="crispEdges"/><rect fill="#2d3740" x="390.4" y="196.7" width="97.6" height="24.65" shape-rendering="crispEdges"/><rect fill="#2d3740" x="488" y="196.7" width="658.8" height="24.65" shape-rendering="crispEdges"/><rect fill="#2d3740" x="1146.8" y="196.7" width="12.2" height="24.65" shape-rendering="crispEdges"/><rect fill="#003054" x="1159" y="196.7" width="24.4" height="24.65" shape-rendering="crispEdges"/><rect fill="#1e1e1e" x="1183.4" y="196.7" width="24.4" height="24.65" shape-rendering="crispEdges"/><rect fill="#1e1e1e" x="1207.8" y="196.7" width="12.2" height="24.65" shape-rendering="crispEdges"/><rect fill="#121212" x="1220" y="196.7" width="24.4" height="24.65" shape-rendering="crispEdges"/><rect fill="#121212" x="0" y="221.1" width="24.4" height="24.65" shape-rendering="crispEdges"/><rect fill="#1e1e1e" x="24.4" y="221.1" width="12.2" height="24.65" shape-rendering="crispEdges"/><rect fill="#1e1e1e" x="36.6" y="221.1" width="24.4" height="24.65" shape-rendering="crispEdges"/><rect fill="#1c1c1c" x="61" y="221.1" width="183" height="24.65" shape-rendering="crispEdges"/><rect fill="#1c1c1c" x="244" y="221.1" width="146.4" height="24.65" shape-rendering="crispEdges"/><rect fill="#1c1c1c" x="390.4" y="221.1" width="97.6" height="24.65" shape-rendering="crispEdges"/><rect fill="#1c1c1c" x="488" y="221.1" width="658.8" height="24.65" shape-rendering="crispEdges"/><rect fill="#1c1c1c" x="1146.8" y="221.1" width="12.2" height="24.65" shape-rendering="crispEdges"/><rect fill="#003054" x="1159" y="221.1" width="24.4" height="24.65" shape-rendering="crispEdges"/><rect fill="#1e1e1e" x="1183.4" y="221.1" width="24.4" height="24.65" shape-rendering="crispEdges"/><rect fill="#1e1e1e" x="1207.8" y="221.1" width="12.2" height="24.65" shape-rendering="crispEdges"/><rect fill="#121212" x="1220" y="221.1" width="24.4" height="24.65" shape-rendering="crispEdges"/><rect fill="#121212" x="0" y="245.5" width="24.4" height="24.65" shape-rendering="crispEdges"/><rect fill="#1e1e1e" x="24.4" y="245.5" width="12.2" height="24.65" shape-rendering="crispEdges"/><rect fill="#1e1e1e" x="36.6" y="245.5" width="24.4" height="24.65" shape-rendering="crispEdges"/><rect fill="#272727" x="61" y="245.5" width="183" height="24.65" shape-rendering="crispEdges"/><rect fill="#272727" x="244" y="245.5" width="146.4" height="24.65" shape-rendering="crispEdges"/><rect fill="#272727" x="390.4" y="245.5" width="97.6" height="24.65" shape-rendering="crispEdges"/><rect fill="#272727" x="488" y="245.5" width="658.8" height="24.65" shape-rendering="crispEdges"/><rect fill="#272727" x="1146.8" y="245.5" width="12.2" height="24.65" shape-rendering="crispEdges"/><rect fill="#003054" x="1159" y="245.5" width="24.4" height="24.65" shape-rendering="crispEdges"/><rect fill="#1e1e1e" x="1183.4" y="245.5" width="24.4" height="24.65" shape-rendering="crispEdges"/><rect fill="#1e1e1e" x="1207.8" y="245.5" width="12.2" height="24.65" shape-rendering="crispEdges"/><rect fill="#121212" x="1220" y="245.5" width="24.4" height="24.65" shape-rendering="crispEdges"/><rect fill="#121212" x="0" y="269.9" width="24.4" height="24.65" shape-rendering="crispEdges"/><rect fill="#1e1e1e" x="24.4" y="269.9" width="12.2" height="24.65" shape-rendering="crispEdges"/><rect fill="#1e1e1e" x="36.6" y="269.9" width="24.4" height="24.65" shape-rendering="crispEdges"/><rect fill="#1c1c1c" x="61" y="269.9" width="183" height="24.65" shape-rendering="crispEdges"/><rect fill="#1c1c1c" x="244" y="269.9" width="146.4" height="24.65" shape-rendering="crispEdges"/><rect fill="#1c1c1c" x="390.4" y="269.9" width="97.6" height="24.65" shape-rendering="crispEdges"/><rect fill="#1c1c1c" x="488" y="269.9" width="658.8" height="24.65" shape-rendering="crispEdges"/><rect fill="#1c1c1c" x="1146.8" y="269.9" width="12.2" height="24.65" shape-rendering="crispEdges"/><rect fill="#003054" x="1159" y="269.9" width="24.4" height="24.65" shape-rendering="crispEdges"/><rect fill="#1e1e1e" x="1183.4" y="269.9" width="24.4" height="24.65" shape-rendering="crispEdges"/><rect fill="#1e1e1e" x="1207.8" y="269.9" width="12.2" height="24.65" shape-rendering="crispEdges"/><rect fill="#121212" x="1220" y="269.9" width="24.4" height="24.65" shape-rendering="crispEdges"/><rect fill="#121212" x="0" y="294.3" width="24.4" height="24.65" shape-rendering="crispEdges"/><rect fill="#1e1e1e" x="24.4" y="294.3" width="12.2" height="24.65" shape-rendering="crispEdges"/><rect fill="#1e1e1e" x="36.6" y="294.3" width="24.4" height="24.65" shape-rendering="crispEdges"/><rect fill="#272727" x="61" y="294.3" width="183" height="24.65" shape-rendering="crispEdges"/><rect fill="#272727" x="244" y="294.3" width="146.4" height="24.65" shape-rendering="crispEdges"/><rect fill="#272727" x="390.4" y="294.3" width="97.6" height="24.65" shape-rendering="crispEdges"/><rect fill="#272727" x="488" y="294.3" width="658.8" height="24.65" shape-rendering="crispEdges"/><rect fill="#272727" x="1146.8" y="294.3" width="12.2" height="24.65" shape-rendering="crispEdges"/><rect fill="#003054" x="1159" y="294.3" width="24.4" height="24.65" shape-rendering="crispEdges"/><rect fill="#1e1e1e" x="1183.4" y="294.3" width="24.4" height="24.65" shape-rendering="crispEdges"/><rect fill="#1e1e1e" x="1207.8" y="294.3" width="12.2" height="24.65" shape-rendering="crispEdges"/><rect fill="#121212" x="1220" y="294.3" width="24.4" height="24.65" shape-rendering="crispEdges"/><rect fill="#121212" x="0" y="318.7" width="24.4" height="24.65" shape-rendering="crispEdges"/><rect fill="#1e1e1e" x="24.4" y="318.7" width="12.2" height="24.65" shape-rendering="crispEdges"/><rect fill="#1e1e1e" x="36.6" y="318.7" width="24.4" height="24.65" shape-rendering="crispEdges"/><rect fill="#1c1c1c" x="61" y="318.7" width="183" height="24.65" shape-rendering="crispEdges"/><rect fill="#1c1c1c" x="244" y="318.7" width="146.4" height="24.65" shape-rendering="crispEdges"/><rect fill="#1c1c1c" x="390.4" y="318.7" width="97.6" height="24.65" shape-rendering="crispEdges"/><rect fill="#1c1c1c" x="488" y="318.7" width="658.8" height="24.65" shape-rendering="crispEdges"/><rect fill="#1c1c1c" x="1146.8" y="318.7" width="12.2" height="24.65" shape-rendering="crispEdges"/><rect fill="#003054" x="1159" y="318.7" width="24.4" height="24.65" shape-rendering="crispEdges"/><rect fill="#1e1e1e" x="1183.4" y="318.7" width="24.4" height="24.65" shape-rendering="crispEdges"/><rect fill="#1e1e1e" x="1207.8" y="318.7" width="12.2" height="24.65" shape-rendering="crispEdges"/><rect fill="#121212" x="1220" y="318.7" width="24.4" height="24.65" shape-rendering="crispEdges"/><rect fill="#121212" x="0" y="343.1" width="24.4" height="24.65" shape-rendering="crispEdges"/><rect fill="#1e1e1e" x="24.4" y="343.1" width="12.2" height="24.65" shape-rendering="crispEdges"/><rect fill="#1e1e1e" x="36.6" y="343.1" width="24.4" height="24.65" shape-rendering="crispEdges"/><rect fill="#0178d4" x="61" y="343.1" width="183" height="24.65" shape-rendering="crispEdges"/><rect fill="#0178d4" x="244" y="343.1" width="146.4" height="24.65" shape-rendering="crispEdges"/><rect fill="#0178d4" x="390.4" y="343.1" width="97.6" height="24.65" shape-rendering="crispEdges"/><rect fill="#0178d4" x="488" y="343.1" width="658.8" height="24.65" shape-rendering="crispEdges"/><rect fill="#0178d4" x="1146.8" y="343.1" width="12.2" height="24.65" shape-rendering="crispEdges"/><rect fill="#003054" x="1159" y="343.1" width="24.4" height="24.65" shape-rendering="crispEdges"/><rect fill="#1e1e1e" x="1183.4" y="343.1" width="24.4" height="24.65" shape-rendering="crispEdges"/><rect fill="#1e1e1e" x="1207.8" y="343.1" width="12.2" height="24.65" shape-rendering="crispEdges"/><rect fill="#121212" x="1220" y="343.1" width="24.4" height="24.65" shape-rendering="crispEdges"/><rect fill="#121212" x="0" y="367.5" width="24.4" height="24.65" shape-rendering="crispEdges"/><rect fill="#1e1e1e" x="24.4" y="367.5" width="12.2" height="24.65" shape-rendering="crispEdges"/><rect fill="#1e1e1e" x="36.6" y="367.5" width="24.4" height="24.65" shape-rendering="crispEdges"/><rect fill="#1c1c1c" x="61" y="367.5" width="183" height="24.65" shape-rendering="crispEdges"/><rect fill="#1c1c1c" x="244" y="367.5" width="146.4" height="24.65" shape-rendering="crispEdges"/><rect fill="#1c1c1c" x="390.4" y="367.5" width="97.6" height="24.65" shape-rendering="crispEdges"/><rect fill="#1c1c1c" x="488" y="367.5" width="658.8" height="24.65" shape-rendering="crispEdges"/><rect fill="#1c1c1c" x="1146.8" y="367.5" width="12.2" height="24.65" shape-rendering="crispEdges"/><rect fill="#000000" x="1159" y="367.5" width="24.4" height="24.65" shape-rendering="crispEdges"/><rect fill="#1e1e1e" x="1183.4" y="367.5" width="24.4" height="24.65" shape-rendering="crispEdges"/><rect fill="#1e1e1e" x="1207.8" y="367.5" width="12.2" height="24.65" shape-rendering="crispEdges"/><rect fill="#121212" x="1220" y="367.5" width="24.4" height="24.65" shape-rendering="crispEdges"/><rect fill="#121212" x="0" y="391.9" width="24.4" height="24.65" shape-rendering="crispEdges"/><rect fill="#1e1e1e" x="24.4" y="391.9" width="12.2" height="24.65" shape-rendering="crispEdges"/><rect fill="#1e1e1e" x="36.6" y="391.9" width="24.4" height="24.65" shape-rendering="crispEdges"/><rect fill="#1e1e1e" x="61" y="391.9" width="1122.4" height="24.65" shape-rendering="crispEdges"/><rect fill="#1e1e1e" x="1183.4" y="391.9" width="24.4" height="24.65" shape-rendering="crispEdges"/><rect fill="#1e1e1e" x="1207.8" y="391.9" width="12.2" height="24.65" shape-rendering="crispEdges"/><rect fill="#121212" x="1220" y="391.9" width="24.4" height="24.65" shape-rendering="crispEdges"/><rect fill="#121212" x="0" y="416.3" width="24.4" height="24.65" shape-rendering="crispEdges"/><rect fill="#1e1e1e" x="24.4" y="416.3" width="12.2" height="24.65" shape-rendering="crispEdges"/><rect fill="#1e1e1e" x="36.6" y="416.3" width="24.4" height="24.65" shape-rendering="crispEdges"/><rect fill="#1e1e1e" x="61" y="416.3" width="927.2" height="24.65" shape-rendering="crispEdges"/><rect fill="#1e1e1e" x="988.2" y="416.3" width="97.6" height="24.65" shape-rendering="crispEdges"/><rect fill="#0178d4" x="1085.8" y="416.3" width="24.4" height="24.65" shape-rendering="crispEdges"/><rect fill="#0178d4" x="1110.2" y="416.3" width="48.8" height="24.65" shape-rendering="crispEdges"/><rect fill="#0178d4" x="1159" y="416.3" width="24.4" height="24.65" shape-rendering="crispEdges"/><rect fill="#1e1e1e" x="1183.4" y="416.3" width="24.4" height="24.65" shape-rendering="crispEdges"/><rect fill="#1e1e1e" x="1207.8" y="416.3" width="12.2" height="24.65" shape-rendering="crispEdges"/><rect fill="#121212" x="1220" y="416.3" width="24.4" height="24.65" shape-rendering="crispEdges"/><rect fill="#121212" x="0" y="440.7" width="24.4" height="24.65" shape-rendering="crispEdges"/><rect fill="#1e1e1e" x="24.4" y="440.7" width="12.2" height="24.65" shape-rendering="crispEdges"/><rect fill="#1e1e1e" x="36.6" y="440.7" width="1171.2" height="24.65" shape-rendering="crispEdges"/><rect fill="#1e1e1e" x="1207.8" y="440.7" width="12.2" height="24.65" shape-rendering="crispEdges"/><rect fill="#121212" x="1220" y="440.7" width="24.4" height="24.65" shape-rendering="crispEdges"/><rect fill="#121212" x="0" y="465.1" width="1244.4" height="24.65" shape-rendering="crispEdges"/><rect fill="#121212" x="0" y="489.5" width="1244.4" height="24.65" shape-rendering="crispEdges"/>
    <g class="terminal-2063146741-matrix">
    <text class="terminal-2063146741-r1" x="0" y="20" textLength="1244.4" clip-path="url(#terminal-2063146741-line-0)">▔▔▔▔▔▔▔▔▔▔▔▔▔▔▔▔▔▔▔▔▔▔▔▔▔▔▔▔▔▔▔▔▔▔▔▔▔▔▔▔▔▔▔▔▔▔▔▔▔▔▔▔▔▔▔▔▔▔▔▔▔▔▔▔▔▔▔▔▔▔▔▔▔▔▔▔▔▔▔▔▔▔▔▔▔▔▔▔▔▔▔▔▔▔▔▔▔▔▔▔▔▔</text><text class="terminal-2063146741-r2" x="1244.4" y="20" textLength="12.2" clip-path="url(#terminal-2063146741-line-0)">
</text><text class="terminal-2063146741-r2" x="1244.4" y="44.4" textLength="12.2" clip-path="url(#terminal-2063146741-line-1)">
</text><text class="terminal-2063146741-r3" x="24.4" y="68.8" textLength="12.2" clip-path="url(#terminal-2063146741-line-2)">┏</text><text class="terminal-2063146741-r3" x="36.6" y="68.8" textLength="1171.2" clip-path="url(#terminal-2063146741-line-2)">━━━━━━━━━━━━━━━━━━━━━━━━━━━━━━━━━━━━━━━━━━━━━━━━━━━━━━━━━━━━━━━━━━━━━━━━━━━━━━━━━━━━━━━━━━━━━━━━</text><text class="terminal-2063146741-r3" x="1207.8" y="68.8" textLength="12.2" clip-path="url(#terminal-2063146741-line-2)">┓</text><text class="terminal-2063146741-r2" x="1244.4" y="68.8" textLength="12.2" clip-path="url(#terminal-2063146741-line-2)">
</text><text class="terminal-2063146741-r3" x="24.4" y="93.2" textLength="12.2" clip-path="url(#terminal-2063146741-line-3)">┃</text><text class="terminal-2063146741-r4" x="73.2" y="93.2" textLength="12.2" clip-path="url(#terminal-2063146741-line-3)">⭘</text><text class="terminal-2063146741-r4" x="414.8" y="93.2" textLength="73.2" clip-path="url(#terminal-2063146741-line-3)">aicage</text><text class="terminal-2063146741-r5" x="488" y="93.2" textLength="36.6" clip-path="url(#terminal-2063146741-line-3)">&#160;—&#160;</text><text class="terminal-2063146741-r5" x="524.6" y="93.2" textLength="280.6" clip-path="url(#terminal-2063146741-line-3)">container&#160;configuration</text><text class="terminal-2063146741-r3" x="1207.8" y="93.2" textLength="12.2" clip-path="url(#terminal-2063146741-line-3)">┃</text><text class="terminal-2063146741-r2" x="1244.4" y="93.2" textLength="12.2" clip-path="url(#terminal-2063146741-line-3)">
</text><text class="terminal-2063146741-r3" x="24.4" y="117.6" textLength="12.2" clip-path="url(#terminal-2063146741-line-4)">┃</text><text class="terminal-2063146741-r3" x="1207.8" y="117.6" textLength="12.2" clip-path="url(#terminal-2063146741-line-4)">┃</text><text class="terminal-2063146741-r2" x="1244.4" y="117.6" textLength="12.2" clip-path="url(#terminal-2063146741-line-4)">
</text><text class="terminal-2063146741-r3" x="24.4" y="142" textLength="12.2" clip-path="url(#terminal-2063146741-line-5)">┃</text><text class="terminal-2063146741-r6" x="61" y="142" textLength="134.2" clip-path="url(#terminal-2063146741-line-5)">Choose&#160;Base</text><text class="terminal-2063146741-r3" x="1207.8" y="142" textLength="12.2" clip-path="url(#terminal-2063146741-line-5)">┃</text><text class="terminal-2063146741-r2" x="1244.4" y="142" textLength="12.2" clip-path="url(#terminal-2063146741-line-5)">
</text><text class="terminal-2063146741-r3" x="24.4" y="166.4" textLength="12.2" clip-path="url(#terminal-2063146741-line-6)">┃</text><text class="terminal-2063146741-r7" x="61" y="166.4" textLength="597.8" clip-path="url(#terminal-2063146741-line-6)">Pick&#160;the&#160;runtime&#160;image&#160;used&#160;inside&#160;the&#160;container.</text><text class="terminal-2063146741-r3" x="1207.8" y="166.4" textLength="12.2" clip-path="url(#terminal-2063146741-line-6)">┃</text><text class="terminal-2063146741-r2" x="1244.4" y="166.4" textLength="12.2" clip-path="url(#terminal-2063146741-line-6)">
</text><text class="terminal-2063146741-r3" x="24.4" y="190.8" textLength="12.2" clip-path="url(#terminal-2063146741-line-7)">┃</text><text class="terminal-2063146741-r3" x="1207.8" y="190.8" textLength="12.2" clip-path="url(#terminal-2063146741-line-7)">┃</text><text class="terminal-2063146741-r2" x="1244.4" y="190.8" textLength="12.2" clip-path="url(#terminal-2063146741-line-7)">
</text><text class="terminal-2063146741-r3" x="24.4" y="215.2" textLength="12.2" clip-path="url(#terminal-2063146741-line-8)">┃</text><text class="terminal-2063146741-r6" x="61" y="215.2" textLength="183" clip-path="url(#terminal-2063146741-line-8)">&#160;base&#160;&#160;&#160;&#160;&#160;&#160;&#160;&#160;&#160;&#160;</text><text class="terminal-2063146741-r6" x="244" y="215.2" textLength="146.4" clip-path="url(#terminal-2063146741-line-8)">&#160;distro&#160;&#160;&#160;&#160;&#160;</text><text class="terminal-2063146741-r6" x="390.4" y="215.2" textLength="97.6" clip-path="url(#terminal-2063146741-line-8)">&#160;source&#160;</text><text class="terminal-2063146741-r6" x="488" y="215.2" textLength="658.8" clip-path="url(#terminal-2063146741-line-8)">&#160;description&#160;&#160;&#160;&#160;&#160;&#160;&#160;&#160;&#160;&#160;&#160;&#160;&#160;&#160;&#160;&#160;&#160;&#160;&#160;&#160;&#160;&#160;&#160;&#160;&#160;&#160;&#160;&#160;&#160;&#160;&#160;&#160;&#160;&#160;&#160;&#160;&#160;&#160;&#160;&#160;&#160;&#160;</text><text class="terminal-2063146741-r3" x="1207.8" y="215.2" textLength="12.2" clip-path="url(#terminal-2063146741-line-8)">┃</text><text class="terminal-2063146741-r2" x="1244.4" y="215.2" textLength="12.2" clip-path="url(#terminal-2063146741-line-8)">
</text><text class="terminal-2063146741-r3" x="24.4" y="239.6" textLength="12.2" clip-path="url(#terminal-2063146741-line-9)">┃</text><text class="terminal-2063146741-r9" x="61" y="239.6" textLength="183" clip-path="url(#terminal-2063146741-line-9)">&#160;act&#160;&#160;&#160;&#160;&#160;&#160;&#160;&#160;&#160;&#160;&#160;</text><text class="terminal-2063146741-r9" x="244" y="239.6" textLength="146.4" clip-path="url(#terminal-2063146741-line-9)">&#160;Ubuntu&#160;&#160;&#160;&#160;&#160;</text><text class="terminal-2063146741-r9" x="390.4" y="239.6" textLength="97.6" clip-path="url(#terminal-2063146741-line-9)">&#160;local&#160;&#160;</text><text class="terminal-2063146741-r9" x="488" y="239.6" textLength="658.8" clip-path="url(#terminal-2063146741-line-9)">&#160;(Ubuntu)&#160;Runner&#160;image&#160;from&#160;act&#160;(act&#160;runs&#160;GitHub&#160;Act.&#160;</text><text class="terminal-2063146741-r3" x="1207.8" y="239.6" textLength="12.2" clip-path="url(#terminal-2063146741-line-9)">┃</text><text class="terminal-2063146741-r2" x="1244.4" y="239.6" textLength="12.2" clip-path="url(#terminal-2063146741-line-9)">
</text><text class="terminal-2063146741-r3" x="24.4" y="264" textLength="12.2" clip-path="url(#terminal-2063146741-line-10)">┃</text><text class="terminal-2063146741-r9" x="61" y="264" textLength="183" clip-path="url(#terminal-2063146741-line-10)">&#160;alpine&#160;&#160;&#160;&#160;&#160;&#160;&#160;&#160;</text><text class="terminal-2063146741-r9" x="244" y="264" textLength="146.4" clip-path="url(#terminal-2063146741-line-10)">&#160;Alpine&#160;&#160;&#160;&#160;&#160;</text><text class="terminal-2063146741-r9" x="390.4" y="264" textLength="97.6" clip-path="url(#terminal-2063146741-line-10)">&#160;remote&#160;</text><text class="terminal-2063146741-r9" x="488" y="264" textLength="658.8" clip-path="url(#terminal-2063146741-line-10)">&#160;Minimal&#160;footprint;&#160;experimental&#160;&#160;&#160;&#160;&#160;&#160;&#160;&#160;&#160;&#160;&#160;&#160;&#160;&#160;&#160;&#160;&#160;&#160;&#160;&#160;&#160;&#160;</text><text class="terminal-2063146741-r3" x="1207.8" y="264" textLength="12.2" clip-path="url(#terminal-2063146741-line-10)">┃</text><text class="terminal-2063146741-r2" x="1244.4" y="264" textLength="12.2" clip-path="url(#terminal-2063146741-line-10)">
</text><text class="terminal-2063146741-r3" x="24.4" y="288.4" textLength="12.2" clip-path="url(#terminal-2063146741-line-11)">┃</text><text class="terminal-2063146741-r9" x="61" y="288.4" textLength="183" clip-path="url(#terminal-2063146741-line-11)">&#160;arch&#160;&#160;&#160;&#160;&#160;&#160;&#160;&#160;&#160;&#160;</text><text class="terminal-2063146741-r9" x="244" y="288.4" textLength="146.4" clip-path="url(#terminal-2063146741-line-11)">&#160;Arch&#160;Linux&#160;</text><text class="terminal-2063146741-r9" x="390.4" y="288.4" textLength="97.6" clip-path="url(#terminal-2063146741-line-11)">&#160;remote&#160;</text><text class="terminal-2063146741-r9" x="488" y="288.4" textLength="658.8" clip-path="url(#terminal-2063146741-line-11)">&#160;Rolling-release&#160;option&#160;for&#160;Arch&#160;users&#160;&#160;&#160;&#160;&#160;&#160;&#160;&#160;&#160;&#160;&#160;&#160;&#160;&#160;&#160;&#160;</text><text class="terminal-2063146741-r3" x="1207.8" y="288.4" textLength="12.2" clip-path="url(#terminal-2063146741-line-11)">┃</text><text class="terminal-2063146741-r2" x="1244.4" y="288.4" textLength="12.2" clip-path="url(#terminal-2063146741-line-11)">
</text><text class="terminal-2063146741-r3" x="24.4" y="312.8" textLength="12.2" clip-path="url(#terminal-2063146741-line-12)">┃</text><text class="terminal-2063146741-r9" x="61" y="312.8" textLength="183" clip-path="url(#terminal-2063146741-line-12)">&#160;debian&#160;&#160;&#160;&#160;&#160;&#160;&#160;&#160;</text><text class="terminal-2063146741-r9" x="244" y="312.8" textLength="146.4" clip-path="url(#terminal-2063146741-line-12)">&#160;Debian&#160;&#160;&#160;&#160;&#160;</text><text class="terminal-2063146741-r9" x="390.4" y="312.8" textLength="97.6" clip-path="url(#terminal-2063146741-line-12)">&#160;remote&#160;</text><text class="terminal-2063146741-r9" x="488" y="312.8" textLength="658.8" clip-path="url(#terminal-2063146741-line-12)">&#160;For&#160;Debian&#160;users&#160;&#160;&#160;&#160;&#160;&#160;&#160;&#160;&#160;&#160;&#160;&#160;&#160;&#160;&#160;&#160;&#160;&#160;&#160;&#160;&#160;&#160;&#160;&#160;&#160;&#160;&#160;&#160;&#160;&#160;&#160;&#160;&#160;&#160;&#160;&#160;&#160;</text><text class="terminal-2063146741-r3" x="1207.8" y="312.8" textLength="12.2" clip-path="url(#terminal-2063146741-line-12)">┃</text><text class="terminal-2063146741-r2" x="1244.4" y="312.8" textLength="12.2" clip-path="url(#terminal-2063146741-line-12)">
</text><text class="terminal-2063146741-r3" x="24.4" y="337.2" textLength="12.2" clip-path="url(#terminal-2063146741-line-13)">┃</text><text class="terminal-2063146741-r9" x="61" y="337.2" textLength="183" clip-path="url(#terminal-2063146741-line-13)">&#160;debian-mirror&#160;</text><text class="terminal-2063146741-r9" x="244" y="337.2" textLength="146.4" clip-path="url(#terminal-2063146741-line-13)">&#160;Debian&#160;&#160;&#160;&#160;&#160;</text><text class="terminal-2063146741-r9" x="390.4" y="337.2" textLength="97.6" clip-path="url(#terminal-2063146741-line-13)">&#160;local&#160;&#160;</text><text class="terminal-2063146741-r9" x="488" y="337.2" textLength="658.8" clip-path="url(#terminal-2063146741-line-13)">&#160;Debian&#160;from&#160;rblaine95/dockerhub-mirror&#160;on&#160;GitHub&#160;&#160;&#160;&#160;&#160;</text><text class="terminal-2063146741-r3" x="1207.8" y="337.2" textLength="12.2" clip-path="url(#terminal-2063146741-line-13)">┃</text><text class="terminal-2063146741-r2" x="1244.4" y="337.2" textLength="12.2" clip-path="url(#terminal-2063146741-line-13)">
</text><text class="terminal-2063146741-r3" x="24.4" y="361.6" textLength="12.2" clip-path="url(#terminal-2063146741-line-14)">┃</text><text class="terminal-2063146741-r10" x="61" y="361.6" textLength="183" clip-path="url(#terminal-2063146741-line-14)">&#160;fedora&#160;&#160;&#160;&#160;&#160;&#160;&#160;&#160;</text><text class="terminal-2063146741-r10" x="244" y="361.6" textLength="146.4" clip-path="url(#terminal-2063146741-line-14)">&#160;Fedora&#160;&#160;&#160;&#160;&#160;</text><text class="terminal-2063146741-r10" x="390.4" y="361.6" textLength="97.6" clip-path="url(#terminal-2063146741-line-14)">&#160;remote&#160;</text><text class="terminal-2063146741-r10" x="488" y="361.6" textLength="658.8" clip-path="url(#terminal-2063146741-line-14)">&#160;For&#160;RedHat/Fedora&#160;users&#160;&#160;&#160;&#160;&#160;&#160;&#160;&#160;&#160;&#160;&#160;&#160;&#160;&#160;&#160;&#160;&#160;&#160;&#160;&#160;&#160;&#160;&#160;&#160;&#160;&#160;&#160;&#160;&#160;&#160;</text><text class="terminal-2063146741-r11" x="1159" y="361.6" textLength="24.4" clip-path="url(#terminal-2063146741-line-14)">▄▄</text><text class="terminal-2063146741-r3" x="1207.8" y="361.6" textLength="12.2" clip-path="url(#terminal-2063146741-line-14)">┃</text><text class="terminal-2063146741-r2" x="1244.4" y="361.6" textLength="12.2" clip-path="url(#terminal-2063146741-line-14)">
</text><text class="terminal-2063146741-r3" x="24.4" y="386" textLength="12.2" clip-path="url(#terminal-2063146741-line-15)">┃</text><text class="terminal-2063146741-r9" x="61" y="386" textLength="183" clip-path="url(#terminal-2063146741-line-15)">&#160;minimal&#160;&#160;&#160;&#160;&#160;&#160;&#160;</text><text class="terminal-2063146741-r9" x="244" y="386" textLength="146.4" clip-path="url(#terminal-2063146741-line-15)">&#160;Alpine&#160;&#160;&#160;&#160;&#160;</text><text class="terminal-2063146741-r9" x="390.4" y="386" textLength="97.6" clip-path="url(#terminal-2063146741-line-15)">&#160;local&#160;&#160;</text><text class="terminal-2063146741-r9" x="488" y="386" textLength="658.8" clip-path="url(#terminal-2063146741-line-15)">&#160;(Alpine)&#160;For&#160;quick&#160;CI/CD&#160;tests;&#160;reduced&#160;packages&#160;&#160;&#160;&#160;&#160;</text><text class="terminal-2063146741-r3" x="1207.8" y="386" textLength="12.2" clip-path="url(#terminal-2063146741-line-15)">┃</text><text class="terminal-2063146741-r2" x="1244.4" y="386" textLength="12.2" clip-path="url(#terminal-2063146741-line-15)">
</text><text class="terminal-2063146741-r3" x="24.4" y="410.4" textLength="12.2" clip-path="url(#terminal-2063146741-line-16)">┃</text><text class="terminal-2063146741-r3" x="1207.8" y="410.4" textLength="12.2" clip-path="url(#terminal-2063146741-line-16)">┃</text><text class="terminal-2063146741-r2" x="1244.4" y="410.4" textLength="12.2" clip-path="url(#terminal-2063146741-line-16)">
</text><text class="terminal-2063146741-r3" x="24.4" y="434.8" textLength="12.2" clip-path="url(#terminal-2063146741-line-17)">┃</text><text class="terminal-2063146741-r6" x="988.2" y="434.8" textLength="97.6" clip-path="url(#terminal-2063146741-line-17)">&#160;Cancel&#160;</text><text class="terminal-2063146741-r10" x="1110.2" y="434.8" textLength="48.8" clip-path="url(#terminal-2063146741-line-17)">&#160;OK&#160;</text><text class="terminal-2063146741-r3" x="1207.8" y="434.8" textLength="12.2" clip-path="url(#terminal-2063146741-line-17)">┃</text><text class="terminal-2063146741-r2" x="1244.4" y="434.8" textLength="12.2" clip-path="url(#terminal-2063146741-line-17)">
</text><text class="terminal-2063146741-r3" x="24.4" y="459.2" textLength="12.2" clip-path="url(#terminal-2063146741-line-18)">┗</text><text class="terminal-2063146741-r3" x="36.6" y="459.2" textLength="1171.2" clip-path="url(#terminal-2063146741-line-18)">━━━━━━━━━━━━━━━━━━━━━━━━━━━━━━━━━━━━━━━━━━━━━━━━━━━━━━━━━━━━━━━━━━━━━━━━━━━━━━━━━━━━━━━━━━━━━━━━</text><text class="terminal-2063146741-r3" x="1207.8" y="459.2" textLength="12.2" clip-path="url(#terminal-2063146741-line-18)">┛</text><text class="terminal-2063146741-r2" x="1244.4" y="459.2" textLength="12.2" clip-path="url(#terminal-2063146741-line-18)">
</text><text class="terminal-2063146741-r2" x="1244.4" y="483.6" textLength="12.2" clip-path="url(#terminal-2063146741-line-19)">
</text><text class="terminal-2063146741-r1" x="0" y="508" textLength="1244.4" clip-path="url(#terminal-2063146741-line-20)">▁▁▁▁▁▁▁▁▁▁▁▁▁▁▁▁▁▁▁▁▁▁▁▁▁▁▁▁▁▁▁▁▁▁▁▁▁▁▁▁▁▁▁▁▁▁▁▁▁▁▁▁▁▁▁▁▁▁▁▁▁▁▁▁▁▁▁▁▁▁▁▁▁▁▁▁▁▁▁▁▁▁▁▁▁▁▁▁▁▁▁▁▁▁▁▁▁▁▁▁▁▁</text>
    </g>
    </g>
</svg>
