<svg class="rich-terminal" viewBox="0 0 1263 586.8" xmlns="http://www.w3.org/2000/svg">
    <!-- Generated with Rich https://www.textualize.io -->
    <style>

    @font-face {
        font-family: "Fira Code";
        src: local("FiraCode-Regular"),
                url("https://cdnjs.cloudflare.com/ajax/libs/firacode/6.2.0/woff2/FiraCode-Regular.woff2") format("woff2"),
                url("https://cdnjs.cloudflare.com/ajax/libs/firacode/6.2.0/woff/FiraCode-Regular.woff") format("woff");
        font-style: normal;
        font-weight: 400;
    }
    @font-face {
        font-family: "Fira Code";
        src: local("FiraCode-Bold"),
                url("https://cdnjs.cloudflare.com/ajax/libs/firacode/6.2.0/woff2/FiraCode-Bold.woff2") format("woff2"),
                url("https://cdnjs.cloudflare.com/ajax/libs/firacode/6.2.0/woff/FiraCode-Bold.woff") format("woff");
        font-style: bold;
        font-weight: 700;
    }

    .terminal-3619916590-matrix {
        font-family: Fira Code, monospace;
        font-size: 20px;
        line-height: 24.4px;
        font-variant-east-asian: full-width;
    }

    .terminal-3619916590-title {
        font-size: 18px;
        font-weight: bold;
        font-family: arial;
    }

    .terminal-3619916590-r1 { fill: #121212 }
.terminal-3619916590-r2 { fill: #c5c8c6 }
.terminal-3619916590-r3 { fill: #0178d4 }
.terminal-3619916590-r4 { fill: #e1e1e1 }
.terminal-3619916590-r5 { fill: #9e9e9e }
.terminal-3619916590-r6 { fill: #e0e0e0;font-weight: bold }
.terminal-3619916590-r7 { fill: #a5a5a5 }
.terminal-3619916590-r8 { fill: #e0e0e0 }
.terminal-3619916590-r9 { fill: #1e1e1e }
.terminal-3619916590-r10 { fill: #211505;font-weight: bold }
.terminal-3619916590-r11 { fill: #ddedf9;font-weight: bold }
    </style>

    <defs>
    <clipPath id="terminal-3619916590-clip-terminal">
      <rect x="0" y="0" width="1243.3999999999999" height="535.8" />
    </clipPath>
    <clipPath id="terminal-3619916590-line-0">
    <rect x="0" y="1.5" width="1244.4" height="24.65"/>
            </clipPath>
<clipPath id="terminal-3619916590-line-1">
    <rect x="0" y="25.9" width="1244.4" height="24.65"/>
            </clipPath>
<clipPath id="terminal-3619916590-line-2">
    <rect x="0" y="50.3" width="1244.4" height="24.65"/>
            </clipPath>
<clipPath id="terminal-3619916590-line-3">
    <rect x="0" y="74.7" width="1244.4" height="24.65"/>
            </clipPath>
<clipPath id="terminal-3619916590-line-4">
    <rect x="0" y="99.1" width="1244.4" height="24.65"/>
            </clipPath>
<clipPath id="terminal-3619916590-line-5">
    <rect x="0" y="123.5" width="1244.4" height="24.65"/>
            </clipPath>
<clipPath id="terminal-3619916590-line-6">
    <rect x="0" y="147.9" width="1244.4" height="24.65"/>
            </clipPath>
<clipPath id="terminal-3619916590-line-7">
    <rect x="0" y="172.3" width="1244.4" height="24.65"/>
            </clipPath>
<clipPath id="terminal-3619916590-line-8">
    <rect x="0" y="196.7" width="1244.4" height="24.65"/>
            </clipPath>
<clipPath id="terminal-3619916590-line-9">
    <rect x="0" y="221.1" width="1244.4" height="24.65"/>
            </clipPath>
<clipPath id="terminal-3619916590-line-10">
    <rect x="0" y="245.5" width="1244.4" height="24.65"/>
            </clipPath>
<clipPath id="terminal-3619916590-line-11">
    <rect x="0" y="269.9" width="1244.4" height="24.65"/>
            </clipPath>
<clipPath id="terminal-3619916590-line-12">
    <rect x="0" y="294.3" width="1244.4" height="24.65"/>
            </clipPath>
<clipPath id="terminal-3619916590-line-13">
    <rect x="0" y="318.7" width="1244.4" height="24.65"/>
            </clipPath>
<clipPath id="terminal-3619916590-line-14">
    <rect x="0" y="343.1" width="1244.4" height="24.65"/>
            </clipPath>
<clipPath id="terminal-3619916590-line-15">
    <rect x="0" y="367.5" width="1244.4" height="24.65"/>
            </clipPath>
<clipPath id="terminal-3619916590-line-16">
    <rect x="0" y="391.9" width="1244.4" height="24.65"/>
            </clipPath>
<clipPath id="terminal-3619916590-line-17">
    <rect x="0" y="416.3" width="1244.4" height="24.65"/>
            </clipPath>
<clipPath id="terminal-3619916590-line-18">
    <rect x="0" y="440.7" width="1244.4" height="24.65"/>
            </clipPath>
<clipPath id="terminal-3619916590-line-19">
    <rect x="0" y="465.1" width="1244.4" height="24.65"/>
            </clipPath>
<clipPath id="terminal-3619916590-line-20">
    <rect x="0" y="489.5" width="1244.4" height="24.65"/>
            </clipPath>
    </defs>

    <rect fill="#292929" stroke="rgba(255,255,255,0.35)" stroke-width="1" x="1" y="1" width="1261" height="584.8" rx="8"/><text class="terminal-3619916590-title" fill="#c5c8c6" text-anchor="middle" x="630" y="27">aicage</text>
            <g transform="translate(26,22)">
            <circle cx="0" cy="0" r="7" fill="#ff5f57"/>
            <circle cx="22" cy="0" r="7" fill="#febc2e"/>
            <circle cx="44" cy="0" r="7" fill="#28c840"/>
            </g>
        
    <g transform="translate(9, 41)" clip-path="url(#terminal-3619916590-clip-terminal)">
    <rect fill="#121212" x="0" y="1.5" width="1244.4" height="24.65" shape-rendering="crispEdges"/><rect fill="#121212" x="0" y="25.9" width="24.4" height="24.65" shape-rendering="crispEdges"/><rect fill="#121212" x="24.4" y="25.9" width="1195.6" height="24.65" shape-rendering="crispEdges"/><rect fill="#121212" x="1220" y="25.9" width="24.4" height="24.65" shape-rendering="crispEdges"/><rect fill="#121212" x="0" y="50.3" width="24.4" height="24.65" shape-rendering="crispEdges"/><rect fill="#1e1e1e" x="24.4" y="50.3" width="12.2" height="24.65" shape-rendering="crispEdges"/><rect fill="#1e1e1e" x="36.6" y="50.3" width="1171.2" height="24.65" shape-rendering="crispEdges"/><rect fill="#1e1e1e" x="1207.8" y="50.3" width="12.2" height="24.65" shape-rendering="crispEdges"/><rect fill="#121212" x="1220" y="50.3" width="24.4" height="24.65" shape-rendering="crispEdges"/><rect fill="#121212" x="0" y="74.7" width="24.4" height="24.65" shape-rendering="crispEdges"/><rect fill="#1e1e1e" x="24.4" y="74.7" width="12.2" height="24.65" shape-rendering="crispEdges"/><rect fill="#1e1e1e" x="36.6" y="74.7" width="24.4" height="24.65" shape-rendering="crispEdges"/><rect fill="#1e1e1e" x="61" y="74.7" width="12.2" height="24.65" shape-rendering="crispEdges"/><rect fill="#1e1e1e" x="73.2" y="74.7" width="12.2" height="24.65" shape-rendering="crispEdges"/><rect fill="#1e1e1e" x="85.4" y="74.7" width="61" height="24.65" shape-rendering="crispEdges"/><rect fill="#1e1e1e" x="146.4" y="74.7" width="12.2" height="24.65" shape-rendering="crispEdges"/><rect fill="#1e1e1e" x="158.6" y="74.7" width="256.2" height="24.65" shape-rendering="crispEdges"/><rect fill="#1e1e1e" x="414.8" y="74.7" width="73.2" height="24.65" shape-rendering="crispEdges"/><rect fill="#1e1e1e" x="488" y="74.7" width="36.6" height="24.65" shape-rendering="crispEdges"/><rect fill="#1e1e1e" x="524.6" y="74.7" width="280.6" height="24.65" shape-rendering="crispEdges"/><rect fill="#1e1e1e" x="805.2" y="74.7" width="256.2" height="24.65" shape-rendering="crispEdges"/><rect fill="#1e1e1e" x="1061.4" y="74.7" width="12.2" height="24.65" shape-rendering="crispEdges"/><rect fill="#1e1e1e" x="1073.6" y="74.7" width="0" height="24.65" shape-rendering="crispEdges"/><rect fill="#1e1e1e" x="1073.6" y="74.7" width="97.6" height="24.65" shape-rendering="crispEdges"/><rect fill="#1e1e1e" x="1171.2" y="74.7" width="12.2" height="24.65" shape-rendering="crispEdges"/><rect fill="#1e1e1e" x="1183.4" y="74.7" width="24.4" height="24.65" shape-rendering="crispEdges"/><rect fill="#1e1e1e" x="1207.8" y="74.7" width="12.2" height="24.65" shape-rendering="crispEdges"/><rect fill="#121212" x="1220" y="74.7" width="24.4" height="24.65" shape-rendering="crispEdges"/><rect fill="#121212" x="0" y="99.1" width="24.4" height="24.65" shape-rendering="crispEdges"/><rect fill="#1e1e1e" x="24.4" y="99.1" width="12.2" height="24.65" shape-rendering="crispEdges"/><rect fill="#1e1e1e" x="36.6" y="99.1" width="24.4" height="24.65" shape-rendering="crispEdges"/><rect fill="#1e1e1e" x="61" y="99.1" width="1122.4" height="24.65" shape-rendering="crispEdges"/><rect fill="#1e1e1e" x="1183.4" y="99.1" width="24.4" height="24.65" shape-rendering="crispEdges"/><rect fill="#1e1e1e" x="1207.8" y="99.1" width="12.2" height="24.65" shape-rendering="crispEdges"/><rect fill="#121212" x="1220" y="99.1" width="24.4" height="24.65" shape-rendering="crispEdges"/><rect fill="#121212" x="0" y="123.5" width="24.4" height="24.65" shape-rendering="crispEdges"/><rect fill="#1e1e1e" x="24.4" y="123.5" width="12.2" height="24.65" shape-rendering="crispEdges"/><rect fill="#1e1e1e" x="36.6" y="123.5" width="24.4" height="24.65" shape-rendering="crispEdges"/><rect fill="#1e1e1e" x="61" y="123.5" width="256.2" height="24.65" shape-rendering="crispEdges"/><rect fill="#1e1e1e" x="317.2" y="123.5" width="866.2" height="24.65" shape-rendering="crispEdges"/><rect fill="#1e1e1e" x="1183.4" y="123.5" width="24.4" height="24.65" shape-rendering="crispEdges"/><rect fill="#1e1e1e" x="1207.8" y="123.5" width="12.2" height="24.65" shape-rendering="crispEdges"/><rect fill="#121212" x="1220" y="123.5" width="24.4" height="24.65" shape-rendering="crispEdges"/><rect fill="#121212" x="0" y="147.9" width="24.4" height="24.65" shape-rendering="crispEdges"/><rect fill="#1e1e1e" x="24.4" y="147.9" width="12.2" height="24.65" shape-rendering="crispEdges"/><rect fill="#1e1e1e" x="36.6" y="147.9" width="24.4" height="24.65" shape-rendering="crispEdges"/><rect fill="#1e1e1e" x="61" y="147.9" width="378.2" height="24.65" shape-rendering="crispEdges"/><rect fill="#1e1e1e" x="439.2" y="147.9" width="744.2" height="24.65" shape-rendering="crispEdges"/><rect fill="#1e1e1e" x="1183.4" y="147.9" width="24.4" height="24.65" shape-rendering="crispEdges"/><rect fill="#1e1e1e" x="1207.8" y="147.9" width="12.2" height="24.65" shape-rendering="crispEdges"/><rect fill="#121212" x="1220" y="147.9" width="24.4" height="24.65" shape-rendering="crispEdges"/><rect fill="#121212" x="0" y="172.3" width="24.4" height="24.65" shape-rendering="crispEdges"/><rect fill="#1e1e1e" x="24.4" y="172.3" width="12.2" height="24.65" shape-rendering="crispEdges"/><rect fill="#1e1e1e" x="36.6" y="172.3" width="24.4" height="24.65" shape-rendering="crispEdges"/><rect fill="#1e1e1e" x="61" y="172.3" width="622.2" height="24.65" shape-rendering="crispEdges"/><rect fill="#1e1e1e" x="683.2" y="172.3" width="500.2" height="24.65" shape-rendering="crispEdges"/><rect fill="#1e1e1e" x="1183.4" y="172.3" width="24.4" height="24.65" shape-rendering="crispEdges"/><rect fill="#1e1e1e" x="1207.8" y="172.3" width="12.2" height="24.65" shape-rendering="crispEdges"/><rect fill="#121212" x="1220" y="172.3" width="24.4" height="24.65" shape-rendering="crispEdges"/><rect fill="#121212" x="0" y="196.7" width="24.4" height="24.65" shape-rendering="crispEdges"/><rect fill="#1e1e1e" x="24.4" y="196.7" width="12.2" height="24.65" shape-rendering="crispEdges"/><rect fill="#1e1e1e" x="36.6" y="196.7" width="24.4" height="24.65" shape-rendering="crispEdges"/><rect fill="#1e1e1e" x="61" y="196.7" width="963.8" height="24.65" shape-rendering="crispEdges"/><rect fill="#1e1e1e" x="1024.8" y="196.7" width="158.6" height="24.65" shape-rendering="crispEdges"/><rect fill="#1e1e1e" x="1183.4" y="196.7" width="24.4" height="24.65" shape-rendering="crispEdges"/><rect fill="#1e1e1e" x="1207.8" y="196.7" width="12.2" height="24.65" shape-rendering="crispEdges"/><rect fill="#121212" x="1220" y="196.7" width="24.4" height="24.65" shape-rendering="crispEdges"/><rect fill="#121212" x="0" y="221.1" width="24.4" height="24.65" shape-rendering="crispEdges"/><rect fill="#1e1e1e" x="24.4" y="221.1" width="12.2" height="24.65" shape-rendering="crispEdges"/><rect fill="#1e1e1e" x="36.6" y="221.1" width="24.4" height="24.65" shape-rendering="crispEdges"/><rect fill="#1e1e1e" x="61" y="221.1" width="1122.4" height="24.65" shape-rendering="crispEdges"/><rect fill="#1e1e1e" x="1183.4" y="221.1" width="24.4" height="24.65" shape-rendering="crispEdges"/><rect fill="#1e1e1e" x="1207.8" y="221.1" width="12.2" height="24.65" shape-rendering="crispEdges"/><rect fill="#121212" x="1220" y="221.1" width="24.4" height="24.65" shape-rendering="crispEdges"/><rect fill="#121212" x="0" y="245.5" width="24.4" height="24.65" shape-rendering="crispEdges"/><rect fill="#1e1e1e" x="24.4" y="245.5" width="12.2" height="24.65" shape-rendering="crispEdges"/><rect fill="#1e1e1e" x="36.6" y="245.5" width="24.4" height="24.65" shape-rendering="crispEdges"/><rect fill="#1e1e1e" x="61" y="245.5" width="195.2" height="24.65" shape-rendering="crispEdges"/><rect fill="#1e1e1e" x="256.2" y="245.5" width="927.2" height="24.65" shape-rendering="crispEdges"/><rect fill="#1e1e1e" x="1183.4" y="245.5" width="24.4" height="24.65" shape-rendering="crispEdges"/><rect fill="#1e1e1e" x="1207.8" y="245.5" width="12.2" height="24.65" shape-rendering="crispEdges"/><rect fill="#121212" x="1220" y="245.5" width="24.4" height="24.65" shape-rendering="crispEdges"/><rect fill="#121212" x="0" y="269.9" width="24.4" height="24.65" shape-rendering="crispEdges"/><rect fill="#1e1e1e" x="24.4" y="269.9" width="12.2" height="24.65" shape-rendering="crispEdges"/><rect fill="#1e1e1e" x="36.6" y="269.9" width="24.4" height="24.65" shape-rendering="crispEdges"/><rect fill="#0178d4" x="61" y="269.9" width="12.2" height="24.65" shape-rendering="crispEdges"/><rect fill="#1e1e1e" x="73.2" y="269.9" width="1098" height="24.65" shape-rendering="crispEdges"/><rect fill="#1e1e1e" x="1171.2" y="269.9" width="12.2" height="24.65" shape-rendering="crispEdges"/><rect fill="#1e1e1e" x="1183.4" y="269.9" width="24.4" height="24.65" shape-rendering="crispEdges"/><rect fill="#1e1e1e" x="1207.8" y="269.9" width="12.2" height="24.65" shape-rendering="crispEdges"/><rect fill="#121212" x="1220" y="269.9" width="24.4" height="24.65" shape-rendering="crispEdges"/><rect fill="#121212" x="0" y="294.3" width="24.4" height="24.65" shape-rendering="crispEdges"/><rect fill="#1e1e1e" x="24.4" y="294.3" width="12.2" height="24.65" shape-rendering="crispEdges"/><rect fill="#1e1e1e" x="36.6" y="294.3" width="24.4" height="24.65" shape-rendering="crispEdges"/><rect fill="#0178d4" x="61" y="294.3" width="12.2" height="24.65" shape-rendering="crispEdges"/><rect fill="#1e1e1e" x="73.2" y="294.3" width="12.2" height="24.65" shape-rendering="crispEdges"/><rect fill="#262626" x="85.4" y="294.3" width="305" height="24.65" shape-rendering="crispEdges"/><rect fill="#262626" x="390.4" y="294.3" width="768.6" height="24.65" shape-rendering="crispEdges"/><rect fill="#1e1e1e" x="1159" y="294.3" width="12.2" height="24.65" shape-rendering="crispEdges"/><rect fill="#1e1e1e" x="1171.2" y="294.3" width="12.2" height="24.65" shape-rendering="crispEdges"/><rect fill="#1e1e1e" x="1183.4" y="294.3" width="24.4" height="24.65" shape-rendering="crispEdges"/><rect fill="#1e1e1e" x="1207.8" y="294.3" width="12.2" height="24.65" shape-rendering="crispEdges"/><rect fill="#121212" x="1220" y="294.3" width="24.4" height="24.65" shape-rendering="crispEdges"/><rect fill="#121212" x="0" y="318.7" width="24.4" height="24.65" shape-rendering="crispEdges"/><rect fill="#1e1e1e" x="24.4" y="318.7" width="12.2" height="24.65" shape-rendering="crispEdges"/><rect fill="#1e1e1e" x="36.6" y="318.7" width="24.4" height="24.65" shape-rendering="crispEdges"/><rect fill="#0178d4" x="61" y="318.7" width="12.2" height="24.65" shape-rendering="crispEdges"/><rect fill="#1e1e1e" x="73.2" y="318.7" width="12.2" height="24.65" shape-rendering="crispEdges"/><rect fill="#1e1e1e" x="85.4" y="318.7" width="1073.6" height="24.65" shape-rendering="crispEdges"/><rect fill="#1e1e1e" x="1159" y="318.7" width="12.2" height="24.65" shape-rendering="crispEdges"/><rect fill="#1e1e1e" x="1171.2" y="318.7" width="12.2" height="24.65" shape-rendering="crispEdges"/><rect fill="#1e1e1e" x="1183.4" y="318.7" width="24.4" height="24.65" shape-rendering="crispEdges"/><rect fill="#1e1e1e" x="1207.8" y="318.7" width="12.2" height="24.65" shape-rendering="crispEdges"/><rect fill="#121212" x="1220" y="318.7" width="24.4" height="24.65" shape-rendering="crispEdges"/><rect fill="#121212" x="0" y="343.1" width="24.4" height="24.65" shape-rendering="crispEdges"/><rect fill="#1e1e1e" x="24.4" y="343.1" width="12.2" height="24.65" shape-rendering="crispEdges"/><rect fill="#1e1e1e" x="36.6" y="343.1" width="24.4" height="24.65" shape-rendering="crispEdges"/><rect fill="#0178d4" x="61" y="343.1" width="12.2" height="24.65" shape-rendering="crispEdges"/><rect fill="#1e1e1e" x="73.2" y="343.1" width="12.2" height="24.65" shape-rendering="crispEdges"/><rect fill="#1e1e1e" x="85.4" y="343.1" width="1073.6" height="24.65" shape-rendering="crispEdges"/><rect fill="#1e1e1e" x="1159" y="343.1" width="12.2" height="24.65" shape-rendering="crispEdges"/><rect fill="#1e1e1e" x="1171.2" y="343.1" width="12.2" height="24.65" shape-rendering="crispEdges"/><rect fill="#1e1e1e" x="1183.4" y="343.1" width="24.4" height="24.65" shape-rendering="crispEdges"/><rect fill="#1e1e1e" x="1207.8" y="343.1" width="12.2" height="24.65" shape-rendering="crispEdges"/><rect fill="#121212" x="1220" y="343.1" width="24.4" height="24.65" shape-rendering="crispEdges"/><rect fill="#121212" x="0" y="367.5" width="24.4" height="24.65" shape-rendering="crispEdges"/><rect fill="#1e1e1e" x="24.4" y="367.5" width="12.2" height="24.65" shape-rendering="crispEdges"/><rect fill="#1e1e1e" x="36.6" y="367.5" width="24.4" height="24.65" shape-rendering="crispEdges"/><rect fill="#0178d4" x="61" y="367.5" width="12.2" height="24.65" shape-rendering="crispEdges"/><rect fill="#1e1e1e" x="73.2" y="367.5" width="12.2" height="24.65" shape-rendering="crispEdges"/><rect fill="#1e1e1e" x="85.4" y="367.5" width="1073.6" height="24.65" shape-rendering="crispEdges"/><rect fill="#1e1e1e" x="1159" y="367.5" width="12.2" height="24.65" shape-rendering="crispEdges"/><rect fill="#1e1e1e" x="1171.2" y="367.5" width="12.2" height="24.65" shape-rendering="crispEdges"/><rect fill="#1e1e1e" x="1183.4" y="367.5" width="24.4" height="24.65" shape-rendering="crispEdges"/><rect fill="#1e1e1e" x="1207.8" y="367.5" width="12.2" height="24.65" shape-rendering="crispEdges"/><rect fill="#121212" x="1220" y="367.5" width="24.4" height="24.65" shape-rendering="crispEdges"/><rect fill="#121212" x="0" y="391.9" width="24.4" height="24.65" shape-rendering="crispEdges"/><rect fill="#1e1e1e" x="24.4" y="391.9" width="12.2" height="24.65" shape-rendering="crispEdges"/><rect fill="#1e1e1e" x="36.6" y="391.9" width="24.4" height="24.65" shape-rendering="crispEdges"/><rect fill="#0178d4" x="61" y="391.9" width="12.2" height="24.65" shape-rendering="crispEdges"/><rect fill="#1e1e1e" x="73.2" y="391.9" width="1098" height="24.65" shape-rendering="crispEdges"/><rect fill="#1e1e1e" x="1171.2" y="391.9" width="12.2" height="24.65" shape-rendering="crispEdges"/><rect fill="#1e1e1e" x="1183.4" y="391.9" width="24.4" height="24.65" shape-rendering="crispEdges"/><rect fill="#1e1e1e" x="1207.8" y="391.9" width="12.2" height="24.65" shape-rendering="crispEdges"/><rect fill="#121212" x="1220" y="391.9" width="24.4" height="24.65" shape-rendering="crispEdges"/><rect fill="#121212" x="0" y="416.3" width="24.4" height="24.65" shape-rendering="crispEdges"/><rect fill="#1e1e1e" x="24.4" y="416.3" width="12.2" height="24.65" shape-rendering="crispEdges"/><rect fill="#1e1e1e" x="36.6" y="416.3" width="24.4" height="24.65" shape-rendering="crispEdges"/><rect fill="#1e1e1e" x="61" y="416.3" width="1122.4" height="24.65" shape-rendering="crispEdges"/><rect fill="#1e1e1e" x="1183.4" y="416.3" width="24.4" height="24.65" shape-rendering="crispEdges"/><rect fill="#1e1e1e" x="1207.8" y="416.3" width="12.2" height="24.65" shape-rendering="crispEdges"/><rect fill="#121212" x="1220" y="416.3" width="24.4" height="24.65" shape-rendering="crispEdges"/><rect fill="#121212" x="0" y="440.7" width="24.4" height="24.65" shape-rendering="crispEdges"/><rect fill="#1e1e1e" x="24.4" y="440.7" width="12.2" height="24.65" shape-rendering="crispEdges"/><rect fill="#1e1e1e" x="36.6" y="440.7" width="24.4" height="24.65" shape-rendering="crispEdges"/><rect fill="#1e1e1e" x="61" y="440.7" width="829.6" height="24.65" shape-rendering="crispEdges"/><rect fill="#1e1e1e" x="890.6" y="440.7" width="97.6" height="24.65" shape-rendering="crispEdges"/><rect fill="#fea62b" x="988.2" y="440.7" width="85.4" height="24.65" shape-rendering="crispEdges"/><rect fill="#fea62b" x="1073.6" y="440.7" width="12.2" height="24.65" shape-rendering="crispEdges"/><rect fill="#0178d4" x="1085.8" y="440.7" width="24.4" height="24.65" shape-rendering="crispEdges"/><rect fill="#0178d4" x="1110.2" y="440.7" width="48.8" height="24.65" shape-rendering="crispEdges"/><rect fill="#0178d4" x="1159" y="440.7" width="24.4" height="24.65" shape-rendering="crispEdges"/><rect fill="#1e1e1e" x="1183.4" y="440.7" width="24.4" height="24.65" shape-rendering="crispEdges"/><rect fill="#1e1e1e" x="1207.8" y="440.7" width="12.2" height="24.65" shape-rendering="crispEdges"/><rect fill="#121212" x="1220" y="440.7" width="24.4" height="24.65" shape-rendering="crispEdges"/><rect fill="#121212" x="0" y="465.1" width="24.4" height="24.65" shape-rendering="crispEdges"/><rect fill="#1e1e1e" x="24.4" y="465.1" width="12.2" height="24.65" shape-rendering="crispEdges"/><rect fill="#1e1e1e" x="36.6" y="465.1" width="1171.2" height="24.65" shape-rendering="crispEdges"/><rect fill="#1e1e1e" x="1207.8" y="465.1" width="12.2" height="24.65" shape-rendering="crispEdges"/><rect fill="#121212" x="1220" y="465.1" width="24.4" height="24.65" shape-rendering="crispEdges"/><rect fill="#121212" x="0" y="489.5" width="1244.4" height="24.65" shape-rendering="crispEdges"/><rect fill="#121212" x="0" y="513.9" width="1244.4" height="24.65" shape-rendering="crispEdges"/>
    <g class="terminal-3619916590-matrix">
    <text class="terminal-3619916590-r1" x="0" y="20" textLength="1244.4" clip-path="url(#terminal-3619916590-line-0)">▔▔▔▔▔▔▔▔▔▔▔▔▔▔▔▔▔▔▔▔▔▔▔▔▔▔▔▔▔▔▔▔▔▔▔▔▔▔▔▔▔▔▔▔▔▔▔▔▔▔▔▔▔▔▔▔▔▔▔▔▔▔▔▔▔▔▔▔▔▔▔▔▔▔▔▔▔▔▔▔▔▔▔▔▔▔▔▔▔▔▔▔▔▔▔▔▔▔▔▔▔▔</text><text class="terminal-3619916590-r2" x="1244.4" y="20" textLength="12.2" clip-path="url(#terminal-3619916590-line-0)">
</text><text class="terminal-3619916590-r2" x="1244.4" y="44.4" textLength="12.2" clip-path="url(#terminal-3619916590-line-1)">
</text><text class="terminal-3619916590-r3" x="24.4" y="68.8" textLength="12.2" clip-path="url(#terminal-3619916590-line-2)">┏</text><text class="terminal-3619916590-r3" x="36.6" y="68.8" textLength="1171.2" clip-path="url(#terminal-3619916590-line-2)">━━━━━━━━━━━━━━━━━━━━━━━━━━━━━━━━━━━━━━━━━━━━━━━━━━━━━━━━━━━━━━━━━━━━━━━━━━━━━━━━━━━━━━━━━━━━━━━━</text><text class="terminal-3619916590-r3" x="1207.8" y="68.8" textLength="12.2" clip-path="url(#terminal-3619916590-line-2)">┓</text><text class="terminal-3619916590-r2" x="1244.4" y="68.8" textLength="12.2" clip-path="url(#terminal-3619916590-line-2)">
</text><text class="terminal-3619916590-r3" x="24.4" y="93.2" textLength="12.2" clip-path="url(#terminal-3619916590-line-3)">┃</text><text class="terminal-3619916590-r4" x="73.2" y="93.2" textLength="12.2" clip-path="url(#terminal-3619916590-line-3)">⭘</text><text class="terminal-3619916590-r4" x="414.8" y="93.2" textLength="73.2" clip-path="url(#terminal-3619916590-line-3)">aicage</text><text class="terminal-3619916590-r5" x="488" y="93.2" textLength="36.6" clip-path="url(#terminal-3619916590-line-3)">&#160;—&#160;</text><text class="terminal-3619916590-r5" x="524.6" y="93.2" textLength="280.6" clip-path="url(#terminal-3619916590-line-3)">container&#160;configuration</text><text class="terminal-3619916590-r3" x="1207.8" y="93.2" textLength="12.2" clip-path="url(#terminal-3619916590-line-3)">┃</text><text class="terminal-3619916590-r2" x="1244.4" y="93.2" textLength="12.2" clip-path="url(#terminal-3619916590-line-3)">
</text><text class="terminal-3619916590-r3" x="24.4" y="117.6" textLength="12.2" clip-path="url(#terminal-3619916590-line-4)">┃</text><text class="terminal-3619916590-r3" x="1207.8" y="117.6" textLength="12.2" clip-path="url(#terminal-3619916590-line-4)">┃</text><text class="terminal-3619916590-r2" x="1244.4" y="117.6" textLength="12.2" clip-path="url(#terminal-3619916590-line-4)">
</text><text class="terminal-3619916590-r3" x="24.4" y="142" textLength="12.2" clip-path="url(#terminal-3619916590-line-5)">┃</text><text class="terminal-3619916590-r6" x="61" y="142" textLength="256.2" clip-path="url(#terminal-3619916590-line-5)">Edit&#160;Docker&#160;Arguments</text><text class="terminal-3619916590-r3" x="1207.8" y="142" textLength="12.2" clip-path="url(#terminal-3619916590-line-5)">┃</text><text class="terminal-3619916590-r2" x="1244.4" y="142" textLength="12.2" clip-path="url(#terminal-3619916590-line-5)">
</text><text class="terminal-3619916590-r3" x="24.4" y="166.4" textLength="12.2" clip-path="url(#terminal-3619916590-line-6)">┃</text><text class="terminal-3619916590-r7" x="61" y="166.4" textLength="378.2" clip-path="url(#terminal-3619916590-line-6)">Enter&#160;raw&#160;Docker&#160;run&#160;arguments.</text><text class="terminal-3619916590-r3" x="1207.8" y="166.4" textLength="12.2" clip-path="url(#terminal-3619916590-line-6)">┃</text><text class="terminal-3619916590-r2" x="1244.4" y="166.4" textLength="12.2" clip-path="url(#terminal-3619916590-line-6)">
</text><text class="terminal-3619916590-r3" x="24.4" y="190.8" textLength="12.2" clip-path="url(#terminal-3619916590-line-7)">┃</text><text class="terminal-3619916590-r7" x="61" y="190.8" textLength="622.2" clip-path="url(#terminal-3619916590-line-7)">For&#160;example:&#160;`-e&#160;NAME=value`&#160;or&#160;`--env&#160;NAME=value`.</text><text class="terminal-3619916590-r3" x="1207.8" y="190.8" textLength="12.2" clip-path="url(#terminal-3619916590-line-7)">┃</text><text class="terminal-3619916590-r2" x="1244.4" y="190.8" textLength="12.2" clip-path="url(#terminal-3619916590-line-7)">
</text><text class="terminal-3619916590-r3" x="24.4" y="215.2" textLength="12.2" clip-path="url(#terminal-3619916590-line-8)">┃</text><text class="terminal-3619916590-r7" x="61" y="215.2" textLength="963.8" clip-path="url(#terminal-3619916590-line-8)">Line&#160;breaks&#160;outside&#160;quotes&#160;are&#160;treated&#160;as&#160;whitespace&#160;when&#160;the&#160;command&#160;is&#160;built.</text><text class="terminal-3619916590-r3" x="1207.8" y="215.2" textLength="12.2" clip-path="url(#terminal-3619916590-line-8)">┃</text><text class="terminal-3619916590-r2" x="1244.4" y="215.2" textLength="12.2" clip-path="url(#terminal-3619916590-line-8)">
</text><text class="terminal-3619916590-r3" x="24.4" y="239.6" textLength="12.2" clip-path="url(#terminal-3619916590-line-9)">┃</text><text class="terminal-3619916590-r3" x="1207.8" y="239.6" textLength="12.2" clip-path="url(#terminal-3619916590-line-9)">┃</text><text class="terminal-3619916590-r2" x="1244.4" y="239.6" textLength="12.2" clip-path="url(#terminal-3619916590-line-9)">
</text><text class="terminal-3619916590-r3" x="24.4" y="264" textLength="12.2" clip-path="url(#terminal-3619916590-line-10)">┃</text><text class="terminal-3619916590-r8" x="61" y="264" textLength="195.2" clip-path="url(#terminal-3619916590-line-10)">Docker&#160;arguments</text><text class="terminal-3619916590-r3" x="1207.8" y="264" textLength="12.2" clip-path="url(#terminal-3619916590-line-10)">┃</text><text class="terminal-3619916590-r2" x="1244.4" y="264" textLength="12.2" clip-path="url(#terminal-3619916590-line-10)">
</text><text class="terminal-3619916590-r3" x="24.4" y="288.4" textLength="12.2" clip-path="url(#terminal-3619916590-line-11)">┃</text><text class="terminal-3619916590-r9" x="61" y="288.4" textLength="12.2" clip-path="url(#terminal-3619916590-line-11)">▊</text><text class="terminal-3619916590-r3" x="73.2" y="288.4" textLength="1098" clip-path="url(#terminal-3619916590-line-11)">▔▔▔▔▔▔▔▔▔▔▔▔▔▔▔▔▔▔▔▔▔▔▔▔▔▔▔▔▔▔▔▔▔▔▔▔▔▔▔▔▔▔▔▔▔▔▔▔▔▔▔▔▔▔▔▔▔▔▔▔▔▔▔▔▔▔▔▔▔▔▔▔▔▔▔▔▔▔▔▔▔▔▔▔▔▔▔▔▔▔</text><text class="terminal-3619916590-r3" x="1171.2" y="288.4" textLength="12.2" clip-path="url(#terminal-3619916590-line-11)">▎</text><text class="terminal-3619916590-r3" x="1207.8" y="288.4" textLength="12.2" clip-path="url(#terminal-3619916590-line-11)">┃</text><text class="terminal-3619916590-r2" x="1244.4" y="288.4" textLength="12.2" clip-path="url(#terminal-3619916590-line-11)">
</text><text class="terminal-3619916590-r3" x="24.4" y="312.8" textLength="12.2" clip-path="url(#terminal-3619916590-line-12)">┃</text><text class="terminal-3619916590-r9" x="61" y="312.8" textLength="12.2" clip-path="url(#terminal-3619916590-line-12)">▊</text><text class="terminal-3619916590-r8" x="85.4" y="312.8" textLength="305" clip-path="url(#terminal-3619916590-line-12)">-e&#160;FOO=bar&#160;--env&#160;BAR=foo&#160;</text><text class="terminal-3619916590-r3" x="1171.2" y="312.8" textLength="12.2" clip-path="url(#terminal-3619916590-line-12)">▎</text><text class="terminal-3619916590-r3" x="1207.8" y="312.8" textLength="12.2" clip-path="url(#terminal-3619916590-line-12)">┃</text><text class="terminal-3619916590-r2" x="1244.4" y="312.8" textLength="12.2" clip-path="url(#terminal-3619916590-line-12)">
</text><text class="terminal-3619916590-r3" x="24.4" y="337.2" textLength="12.2" clip-path="url(#terminal-3619916590-line-13)">┃</text><text class="terminal-3619916590-r9" x="61" y="337.2" textLength="12.2" clip-path="url(#terminal-3619916590-line-13)">▊</text><text class="terminal-3619916590-r3" x="1171.2" y="337.2" textLength="12.2" clip-path="url(#terminal-3619916590-line-13)">▎</text><text class="terminal-3619916590-r3" x="1207.8" y="337.2" textLength="12.2" clip-path="url(#terminal-3619916590-line-13)">┃</text><text class="terminal-3619916590-r2" x="1244.4" y="337.2" textLength="12.2" clip-path="url(#terminal-3619916590-line-13)">
</text><text class="terminal-3619916590-r3" x="24.4" y="361.6" textLength="12.2" clip-path="url(#terminal-3619916590-line-14)">┃</text><text class="terminal-3619916590-r9" x="61" y="361.6" textLength="12.2" clip-path="url(#terminal-3619916590-line-14)">▊</text><text class="terminal-3619916590-r3" x="1171.2" y="361.6" textLength="12.2" clip-path="url(#terminal-3619916590-line-14)">▎</text><text class="terminal-3619916590-r3" x="1207.8" y="361.6" textLength="12.2" clip-path="url(#terminal-3619916590-line-14)">┃</text><text class="terminal-3619916590-r2" x="1244.4" y="361.6" textLength="12.2" clip-path="url(#terminal-3619916590-line-14)">
</text><text class="terminal-3619916590-r3" x="24.4" y="386" textLength="12.2" clip-path="url(#terminal-3619916590-line-15)">┃</text><text class="terminal-3619916590-r9" x="61" y="386" textLength="12.2" clip-path="url(#terminal-3619916590-line-15)">▊</text><text class="terminal-3619916590-r3" x="1171.2" y="386" textLength="12.2" clip-path="url(#terminal-3619916590-line-15)">▎</text><text class="terminal-3619916590-r3" x="1207.8" y="386" textLength="12.2" clip-path="url(#terminal-3619916590-line-15)">┃</text><text class="terminal-3619916590-r2" x="1244.4" y="386" textLength="12.2" clip-path="url(#terminal-3619916590-line-15)">
</text><text class="terminal-3619916590-r3" x="24.4" y="410.4" textLength="12.2" clip-path="url(#terminal-3619916590-line-16)">┃</text><text class="terminal-3619916590-r9" x="61" y="410.4" textLength="12.2" clip-path="url(#terminal-3619916590-line-16)">▊</text><text class="terminal-3619916590-r3" x="73.2" y="410.4" textLength="1098" clip-path="url(#terminal-3619916590-line-16)">▁▁▁▁▁▁▁▁▁▁▁▁▁▁▁▁▁▁▁▁▁▁▁▁▁▁▁▁▁▁▁▁▁▁▁▁▁▁▁▁▁▁▁▁▁▁▁▁▁▁▁▁▁▁▁▁▁▁▁▁▁▁▁▁▁▁▁▁▁▁▁▁▁▁▁▁▁▁▁▁▁▁▁▁▁▁▁▁▁▁</text><text class="terminal-3619916590-r3" x="1171.2" y="410.4" textLength="12.2" clip-path="url(#terminal-3619916590-line-16)">▎</text><text class="terminal-3619916590-r3" x="1207.8" y="410.4" textLength="12.2" clip-path="url(#terminal-3619916590-line-16)">┃</text><text class="terminal-3619916590-r2" x="1244.4" y="410.4" textLength="12.2" clip-path="url(#terminal-3619916590-line-16)">
</text><text class="terminal-3619916590-r3" x="24.4" y="434.8" textLength="12.2" clip-path="url(#terminal-3619916590-line-17)">┃</text><text class="terminal-3619916590-r3" x="1207.8" y="434.8" textLength="12.2" clip-path="url(#terminal-3619916590-line-17)">┃</text><text class="terminal-3619916590-r2" x="1244.4" y="434.8" textLength="12.2" clip-path="url(#terminal-3619916590-line-17)">
</text><text class="terminal-3619916590-r3" x="24.4" y="459.2" textLength="12.2" clip-path="url(#terminal-3619916590-line-18)">┃</text><text class="terminal-3619916590-r6" x="890.6" y="459.2" textLength="97.6" clip-path="url(#terminal-3619916590-line-18)">&#160;Cancel&#160;</text><text class="terminal-3619916590-r10" x="988.2" y="459.2" textLength="85.4" clip-path="url(#terminal-3619916590-line-18)">&#160;Clear&#160;</text><text class="terminal-3619916590-r11" x="1110.2" y="459.2" textLength="48.8" clip-path="url(#terminal-3619916590-line-18)">&#160;OK&#160;</text><text class="terminal-3619916590-r3" x="1207.8" y="459.2" textLength="12.2" clip-path="url(#terminal-3619916590-line-18)">┃</text><text class="terminal-3619916590-r2" x="1244.4" y="459.2" textLength="12.2" clip-path="url(#terminal-3619916590-line-18)">
</text><text class="terminal-3619916590-r3" x="24.4" y="483.6" textLength="12.2" clip-path="url(#terminal-3619916590-line-19)">┗</text><text class="terminal-3619916590-r3" x="36.6" y="483.6" textLength="1171.2" clip-path="url(#terminal-3619916590-line-19)">━━━━━━━━━━━━━━━━━━━━━━━━━━━━━━━━━━━━━━━━━━━━━━━━━━━━━━━━━━━━━━━━━━━━━━━━━━━━━━━━━━━━━━━━━━━━━━━━</text><text class="terminal-3619916590-r3" x="1207.8" y="483.6" textLength="12.2" clip-path="url(#terminal-3619916590-line-19)">┛</text><text class="terminal-3619916590-r2" x="1244.4" y="483.6" textLength="12.2" clip-path="url(#terminal-3619916590-line-19)">
</text><text class="terminal-3619916590-r2" x="1244.4" y="508" textLength="12.2" clip-path="url(#terminal-3619916590-line-20)">
</text><text class="terminal-3619916590-r1" x="0" y="532.4" textLength="1244.4" clip-path="url(#terminal-3619916590-line-21)">▁▁▁▁▁▁▁▁▁▁▁▁▁▁▁▁▁▁▁▁▁▁▁▁▁▁▁▁▁▁▁▁▁▁▁▁▁▁▁▁▁▁▁▁▁▁▁▁▁▁▁▁▁▁▁▁▁▁▁▁▁▁▁▁▁▁▁▁▁▁▁▁▁▁▁▁▁▁▁▁▁▁▁▁▁▁▁▁▁▁▁▁▁▁▁▁▁▁▁▁▁▁</text>
    </g>
    </g>
</svg>
