<svg class="rich-terminal" viewBox="0 0 1263 635.5999999999999" xmlns="http://www.w3.org/2000/svg">
    <!-- Generated with Rich https://www.textualize.io -->
    <style>

    @font-face {
        font-family: "Fira Code";
        src: local("FiraCode-Regular"),
                url("https://cdnjs.cloudflare.com/ajax/libs/firacode/6.2.0/woff2/FiraCode-Regular.woff2") format("woff2"),
                url("https://cdnjs.cloudflare.com/ajax/libs/firacode/6.2.0/woff/FiraCode-Regular.woff") format("woff");
        font-style: normal;
        font-weight: 400;
    }
    @font-face {
        font-family: "Fira Code";
        src: local("FiraCode-Bold"),
                url("https://cdnjs.cloudflare.com/ajax/libs/firacode/6.2.0/woff2/FiraCode-Bold.woff2") format("woff2"),
                url("https://cdnjs.cloudflare.com/ajax/libs/firacode/6.2.0/woff/FiraCode-Bold.woff") format("woff");
        font-style: bold;
        font-weight: 700;
    }

    .terminal-1144730450-matrix {
        font-family: Fira Code, monospace;
        font-size: 20px;
        line-height: 24.4px;
        font-variant-east-asian: full-width;
    }

    .terminal-1144730450-title {
        font-size: 18px;
        font-weight: bold;
        font-family: arial;
    }

    .terminal-1144730450-r1 { fill: #121212 }
.terminal-1144730450-r2 { fill: #c5c8c6 }
.terminal-1144730450-r3 { fill: #0178d4 }
.terminal-1144730450-r4 { fill: #e1e1e1 }
.terminal-1144730450-r5 { fill: #9e9e9e }
.terminal-1144730450-r6 { fill: #e0e0e0;font-weight: bold }
.terminal-1144730450-r7 { fill: #a5a5a5 }
.terminal-1144730450-r8 { fill: #242f38 }
.terminal-1144730450-r9 { fill: #000f18 }
.terminal-1144730450-r10 { fill: #ddedf9;font-weight: bold }
.terminal-1144730450-r11 { fill: #e0e0e0 }
.terminal-1144730450-r12 { fill: #8ad4a1 }
.terminal-1144730450-r13 { fill: #211505;font-weight: bold }
    </style>

    <defs>
    <clipPath id="terminal-1144730450-clip-terminal">
      <rect x="0" y="0" width="1243.3999999999999" height="584.5999999999999" />
    </clipPath>
    <clipPath id="terminal-1144730450-line-0">
    <rect x="0" y="1.5" width="1244.4" height="24.65"/>
            </clipPath>
<clipPath id="terminal-1144730450-line-1">
    <rect x="0" y="25.9" width="1244.4" height="24.65"/>
            </clipPath>
<clipPath id="terminal-1144730450-line-2">
    <rect x="0" y="50.3" width="1244.4" height="24.65"/>
            </clipPath>
<clipPath id="terminal-1144730450-line-3">
    <rect x="0" y="74.7" width="1244.4" height="24.65"/>
            </clipPath>
<clipPath id="terminal-1144730450-line-4">
    <rect x="0" y="99.1" width="1244.4" height="24.65"/>
            </clipPath>
<clipPath id="terminal-1144730450-line-5">
    <rect x="0" y="123.5" width="1244.4" height="24.65"/>
            </clipPath>
<clipPath id="terminal-1144730450-line-6">
    <rect x="0" y="147.9" width="1244.4" height="24.65"/>
            </clipPath>
<clipPath id="terminal-1144730450-line-7">
    <rect x="0" y="172.3" width="1244.4" height="24.65"/>
            </clipPath>
<clipPath id="terminal-1144730450-line-8">
    <rect x="0" y="196.7" width="1244.4" height="24.65"/>
            </clipPath>
<clipPath id="terminal-1144730450-line-9">
    <rect x="0" y="221.1" width="1244.4" height="24.65"/>
            </clipPath>
<clipPath id="terminal-1144730450-line-10">
    <rect x="0" y="245.5" width="1244.4" height="24.65"/>
            </clipPath>
<clipPath id="terminal-1144730450-line-11">
    <rect x="0" y="269.9" width="1244.4" height="24.65"/>
            </clipPath>
<clipPath id="terminal-1144730450-line-12">
    <rect x="0" y="294.3" width="1244.4" height="24.65"/>
            </clipPath>
<clipPath id="terminal-1144730450-line-13">
    <rect x="0" y="318.7" width="1244.4" height="24.65"/>
            </clipPath>
<clipPath id="terminal-1144730450-line-14">
    <rect x="0" y="343.1" width="1244.4" height="24.65"/>
            </clipPath>
<clipPath id="terminal-1144730450-line-15">
    <rect x="0" y="367.5" width="1244.4" height="24.65"/>
            </clipPath>
<clipPath id="terminal-1144730450-line-16">
    <rect x="0" y="391.9" width="1244.4" height="24.65"/>
            </clipPath>
<clipPath id="terminal-1144730450-line-17">
    <rect x="0" y="416.3" width="1244.4" height="24.65"/>
            </clipPath>
<clipPath id="terminal-1144730450-line-18">
    <rect x="0" y="440.7" width="1244.4" height="24.65"/>
            </clipPath>
<clipPath id="terminal-1144730450-line-19">
    <rect x="0" y="465.1" width="1244.4" height="24.65"/>
            </clipPath>
<clipPath id="terminal-1144730450-line-20">
    <rect x="0" y="489.5" width="1244.4" height="24.65"/>
            </clipPath>
<clipPath id="terminal-1144730450-line-21">
    <rect x="0" y="513.9" width="1244.4" height="24.65"/>
            </clipPath>
<clipPath id="terminal-1144730450-line-22">
    <rect x="0" y="538.3" width="1244.4" height="24.65"/>
            </clipPath>
    </defs>

    <rect fill="#292929" stroke="rgba(255,255,255,0.35)" stroke-width="1" x="1" y="1" width="1261" height="633.6" rx="8"/><text class="terminal-1144730450-title" fill="#c5c8c6" text-anchor="middle" x="630" y="27">aicage</text>
            <g transform="translate(26,22)">
            <circle cx="0" cy="0" r="7" fill="#ff5f57"/>
            <circle cx="22" cy="0" r="7" fill="#febc2e"/>
            <circle cx="44" cy="0" r="7" fill="#28c840"/>
            </g>
        
    <g transform="translate(9, 41)" clip-path="url(#terminal-1144730450-clip-terminal)">
    <rect fill="#121212" x="0" y="1.5" width="1244.4" height="24.65" shape-rendering="crispEdges"/><rect fill="#121212" x="0" y="25.9" width="24.4" height="24.65" shape-rendering="crispEdges"/><rect fill="#121212" x="24.4" y="25.9" width="1195.6" height="24.65" shape-rendering="crispEdges"/><rect fill="#121212" x="1220" y="25.9" width="24.4" height="24.65" shape-rendering="crispEdges"/><rect fill="#121212" x="0" y="50.3" width="24.4" height="24.65" shape-rendering="crispEdges"/><rect fill="#1e1e1e" x="24.4" y="50.3" width="12.2" height="24.65" shape-rendering="crispEdges"/><rect fill="#1e1e1e" x="36.6" y="50.3" width="1171.2" height="24.65" shape-rendering="crispEdges"/><rect fill="#1e1e1e" x="1207.8" y="50.3" width="12.2" height="24.65" shape-rendering="crispEdges"/><rect fill="#121212" x="1220" y="50.3" width="24.4" height="24.65" shape-rendering="crispEdges"/><rect fill="#121212" x="0" y="74.7" width="24.4" height="24.65" shape-rendering="crispEdges"/><rect fill="#1e1e1e" x="24.4" y="74.7" width="12.2" height="24.65" shape-rendering="crispEdges"/><rect fill="#1e1e1e" x="36.6" y="74.7" width="24.4" height="24.65" shape-rendering="crispEdges"/><rect fill="#1e1e1e" x="61" y="74.7" width="12.2" height="24.65" shape-rendering="crispEdges"/><rect fill="#1e1e1e" x="73.2" y="74.7" width="12.2" height="24.65" shape-rendering="crispEdges"/><rect fill="#1e1e1e" x="85.4" y="74.7" width="61" height="24.65" shape-rendering="crispEdges"/><rect fill="#1e1e1e" x="146.4" y="74.7" width="12.2" height="24.65" shape-rendering="crispEdges"/><rect fill="#1e1e1e" x="158.6" y="74.7" width="256.2" height="24.65" shape-rendering="crispEdges"/><rect fill="#1e1e1e" x="414.8" y="74.7" width="73.2" height="24.65" shape-rendering="crispEdges"/><rect fill="#1e1e1e" x="488" y="74.7" width="36.6" height="24.65" shape-rendering="crispEdges"/><rect fill="#1e1e1e" x="524.6" y="74.7" width="280.6" height="24.65" shape-rendering="crispEdges"/><rect fill="#1e1e1e" x="805.2" y="74.7" width="256.2" height="24.65" shape-rendering="crispEdges"/><rect fill="#1e1e1e" x="1061.4" y="74.7" width="12.2" height="24.65" shape-rendering="crispEdges"/><rect fill="#1e1e1e" x="1073.6" y="74.7" width="0" height="24.65" shape-rendering="crispEdges"/><rect fill="#1e1e1e" x="1073.6" y="74.7" width="97.6" height="24.65" shape-rendering="crispEdges"/><rect fill="#1e1e1e" x="1171.2" y="74.7" width="12.2" height="24.65" shape-rendering="crispEdges"/><rect fill="#1e1e1e" x="1183.4" y="74.7" width="24.4" height="24.65" shape-rendering="crispEdges"/><rect fill="#1e1e1e" x="1207.8" y="74.7" width="12.2" height="24.65" shape-rendering="crispEdges"/><rect fill="#121212" x="1220" y="74.7" width="24.4" height="24.65" shape-rendering="crispEdges"/><rect fill="#121212" x="0" y="99.1" width="24.4" height="24.65" shape-rendering="crispEdges"/><rect fill="#1e1e1e" x="24.4" y="99.1" width="12.2" height="24.65" shape-rendering="crispEdges"/><rect fill="#1e1e1e" x="36.6" y="99.1" width="24.4" height="24.65" shape-rendering="crispEdges"/><rect fill="#1e1e1e" x="61" y="99.1" width="1122.4" height="24.65" shape-rendering="crispEdges"/><rect fill="#1e1e1e" x="1183.4" y="99.1" width="24.4" height="24.65" shape-rendering="crispEdges"/><rect fill="#1e1e1e" x="1207.8" y="99.1" width="12.2" height="24.65" shape-rendering="crispEdges"/><rect fill="#121212" x="1220" y="99.1" width="24.4" height="24.65" shape-rendering="crispEdges"/><rect fill="#121212" x="0" y="123.5" width="24.4" height="24.65" shape-rendering="crispEdges"/><rect fill="#1e1e1e" x="24.4" y="123.5" width="12.2" height="24.65" shape-rendering="crispEdges"/><rect fill="#1e1e1e" x="36.6" y="123.5" width="24.4" height="24.65" shape-rendering="crispEdges"/><rect fill="#1e1e1e" x="61" y="123.5" width="207.4" height="24.65" shape-rendering="crispEdges"/><rect fill="#1e1e1e" x="268.4" y="123.5" width="915" height="24.65" shape-rendering="crispEdges"/><rect fill="#1e1e1e" x="1183.4" y="123.5" width="24.4" height="24.65" shape-rendering="crispEdges"/><rect fill="#1e1e1e" x="1207.8" y="123.5" width="12.2" height="24.65" shape-rendering="crispEdges"/><rect fill="#121212" x="1220" y="123.5" width="24.4" height="24.65" shape-rendering="crispEdges"/><rect fill="#121212" x="0" y="147.9" width="24.4" height="24.65" shape-rendering="crispEdges"/><rect fill="#1e1e1e" x="24.4" y="147.9" width="12.2" height="24.65" shape-rendering="crispEdges"/><rect fill="#1e1e1e" x="36.6" y="147.9" width="24.4" height="24.65" shape-rendering="crispEdges"/><rect fill="#1e1e1e" x="61" y="147.9" width="512.4" height="24.65" shape-rendering="crispEdges"/><rect fill="#1e1e1e" x="573.4" y="147.9" width="610" height="24.65" shape-rendering="crispEdges"/><rect fill="#1e1e1e" x="1183.4" y="147.9" width="24.4" height="24.65" shape-rendering="crispEdges"/><rect fill="#1e1e1e" x="1207.8" y="147.9" width="12.2" height="24.65" shape-rendering="crispEdges"/><rect fill="#121212" x="1220" y="147.9" width="24.4" height="24.65" shape-rendering="crispEdges"/><rect fill="#121212" x="0" y="172.3" width="24.4" height="24.65" shape-rendering="crispEdges"/><rect fill="#1e1e1e" x="24.4" y="172.3" width="12.2" height="24.65" shape-rendering="crispEdges"/><rect fill="#1e1e1e" x="36.6" y="172.3" width="24.4" height="24.65" shape-rendering="crispEdges"/><rect fill="#1e1e1e" x="61" y="172.3" width="1122.4" height="24.65" shape-rendering="crispEdges"/><rect fill="#1e1e1e" x="1183.4" y="172.3" width="24.4" height="24.65" shape-rendering="crispEdges"/><rect fill="#1e1e1e" x="1207.8" y="172.3" width="12.2" height="24.65" shape-rendering="crispEdges"/><rect fill="#121212" x="1220" y="172.3" width="24.4" height="24.65" shape-rendering="crispEdges"/><rect fill="#121212" x="0" y="196.7" width="24.4" height="24.65" shape-rendering="crispEdges"/><rect fill="#1e1e1e" x="24.4" y="196.7" width="12.2" height="24.65" shape-rendering="crispEdges"/><rect fill="#1e1e1e" x="36.6" y="196.7" width="24.4" height="24.65" shape-rendering="crispEdges"/><rect fill="#272727" x="61" y="196.7" width="12.2" height="24.65" shape-rendering="crispEdges"/><rect fill="#272727" x="73.2" y="196.7" width="12.2" height="24.65" shape-rendering="crispEdges"/><rect fill="#242f38" x="85.4" y="196.7" width="12.2" height="24.65" shape-rendering="crispEdges"/><rect fill="#272727" x="97.6" y="196.7" width="12.2" height="24.65" shape-rendering="crispEdges"/><rect fill="#0178d4" x="109.8" y="196.7" width="707.6" height="24.65" shape-rendering="crispEdges"/><rect fill="#272727" x="817.4" y="196.7" width="12.2" height="24.65" shape-rendering="crispEdges"/><rect fill="#1e1e1e" x="829.6" y="196.7" width="353.8" height="24.65" shape-rendering="crispEdges"/><rect fill="#1e1e1e" x="1183.4" y="196.7" width="24.4" height="24.65" shape-rendering="crispEdges"/><rect fill="#1e1e1e" x="1207.8" y="196.7" width="12.2" height="24.65" shape-rendering="crispEdges"/><rect fill="#121212" x="1220" y="196.7" width="24.4" height="24.65" shape-rendering="crispEdges"/><rect fill="#121212" x="0" y="221.1" width="24.4" height="24.65" shape-rendering="crispEdges"/><rect fill="#1e1e1e" x="24.4" y="221.1" width="12.2" height="24.65" shape-rendering="crispEdges"/><rect fill="#1e1e1e" x="36.6" y="221.1" width="24.4" height="24.65" shape-rendering="crispEdges"/><rect fill="#1e1e1e" x="61" y="221.1" width="12.2" height="24.65" shape-rendering="crispEdges"/><rect fill="#1e1e1e" x="73.2" y="221.1" width="12.2" height="24.65" shape-rendering="crispEdges"/><rect fill="#242f38" x="85.4" y="221.1" width="12.2" height="24.65" shape-rendering="crispEdges"/><rect fill="#1e1e1e" x="97.6" y="221.1" width="12.2" height="24.65" shape-rendering="crispEdges"/><rect fill="#1e1e1e" x="109.8" y="221.1" width="988.2" height="24.65" shape-rendering="crispEdges"/><rect fill="#1e1e1e" x="1098" y="221.1" width="12.2" height="24.65" shape-rendering="crispEdges"/><rect fill="#1e1e1e" x="1110.2" y="221.1" width="73.2" height="24.65" shape-rendering="crispEdges"/><rect fill="#1e1e1e" x="1183.4" y="221.1" width="24.4" height="24.65" shape-rendering="crispEdges"/><rect fill="#1e1e1e" x="1207.8" y="221.1" width="12.2" height="24.65" shape-rendering="crispEdges"/><rect fill="#121212" x="1220" y="221.1" width="24.4" height="24.65" shape-rendering="crispEdges"/><rect fill="#121212" x="0" y="245.5" width="24.4" height="24.65" shape-rendering="crispEdges"/><rect fill="#1e1e1e" x="24.4" y="245.5" width="12.2" height="24.65" shape-rendering="crispEdges"/><rect fill="#1e1e1e" x="36.6" y="245.5" width="24.4" height="24.65" shape-rendering="crispEdges"/><rect fill="#1e1e1e" x="61" y="245.5" width="12.2" height="24.65" shape-rendering="crispEdges"/><rect fill="#1e1e1e" x="73.2" y="245.5" width="12.2" height="24.65" shape-rendering="crispEdges"/><rect fill="#242f38" x="85.4" y="245.5" width="12.2" height="24.65" shape-rendering="crispEdges"/><rect fill="#1e1e1e" x="97.6" y="245.5" width="12.2" height="24.65" shape-rendering="crispEdges"/><rect fill="#1e1e1e" x="109.8" y="245.5" width="1061.4" height="24.65" shape-rendering="crispEdges"/><rect fill="#1e1e1e" x="1171.2" y="245.5" width="12.2" height="24.65" shape-rendering="crispEdges"/><rect fill="#1e1e1e" x="1183.4" y="245.5" width="24.4" height="24.65" shape-rendering="crispEdges"/><rect fill="#1e1e1e" x="1207.8" y="245.5" width="12.2" height="24.65" shape-rendering="crispEdges"/><rect fill="#121212" x="1220" y="245.5" width="24.4" height="24.65" shape-rendering="crispEdges"/><rect fill="#121212" x="0" y="269.9" width="24.4" height="24.65" shape-rendering="crispEdges"/><rect fill="#1e1e1e" x="24.4" y="269.9" width="12.2" height="24.65" shape-rendering="crispEdges"/><rect fill="#1e1e1e" x="36.6" y="269.9" width="24.4" height="24.65" shape-rendering="crispEdges"/><rect fill="#1e1e1e" x="61" y="269.9" width="12.2" height="24.65" shape-rendering="crispEdges"/><rect fill="#1e1e1e" x="73.2" y="269.9" width="12.2" height="24.65" shape-rendering="crispEdges"/><rect fill="#242f38" x="85.4" y="269.9" width="12.2" height="24.65" shape-rendering="crispEdges"/><rect fill="#1e1e1e" x="97.6" y="269.9" width="12.2" height="24.65" shape-rendering="crispEdges"/><rect fill="#1e1e1e" x="109.8" y="269.9" width="622.2" height="24.65" shape-rendering="crispEdges"/><rect fill="#1e1e1e" x="732" y="269.9" width="12.2" height="24.65" shape-rendering="crispEdges"/><rect fill="#1e1e1e" x="744.2" y="269.9" width="439.2" height="24.65" shape-rendering="crispEdges"/><rect fill="#1e1e1e" x="1183.4" y="269.9" width="24.4" height="24.65" shape-rendering="crispEdges"/><rect fill="#1e1e1e" x="1207.8" y="269.9" width="12.2" height="24.65" shape-rendering="crispEdges"/><rect fill="#121212" x="1220" y="269.9" width="24.4" height="24.65" shape-rendering="crispEdges"/><rect fill="#121212" x="0" y="294.3" width="24.4" height="24.65" shape-rendering="crispEdges"/><rect fill="#1e1e1e" x="24.4" y="294.3" width="12.2" height="24.65" shape-rendering="crispEdges"/><rect fill="#1e1e1e" x="36.6" y="294.3" width="24.4" height="24.65" shape-rendering="crispEdges"/><rect fill="#1e1e1e" x="61" y="294.3" width="12.2" height="24.65" shape-rendering="crispEdges"/><rect fill="#1e1e1e" x="73.2" y="294.3" width="12.2" height="24.65" shape-rendering="crispEdges"/><rect fill="#242f38" x="85.4" y="294.3" width="12.2" height="24.65" shape-rendering="crispEdges"/><rect fill="#1e1e1e" x="97.6" y="294.3" width="12.2" height="24.65" shape-rendering="crispEdges"/><rect fill="#1e1e1e" x="109.8" y="294.3" width="890.6" height="24.65" shape-rendering="crispEdges"/><rect fill="#1e1e1e" x="1000.4" y="294.3" width="12.2" height="24.65" shape-rendering="crispEdges"/><rect fill="#1e1e1e" x="1012.6" y="294.3" width="170.8" height="24.65" shape-rendering="crispEdges"/><rect fill="#1e1e1e" x="1183.4" y="294.3" width="24.4" height="24.65" shape-rendering="crispEdges"/><rect fill="#1e1e1e" x="1207.8" y="294.3" width="12.2" height="24.65" shape-rendering="crispEdges"/><rect fill="#121212" x="1220" y="294.3" width="24.4" height="24.65" shape-rendering="crispEdges"/><rect fill="#121212" x="0" y="318.7" width="24.4" height="24.65" shape-rendering="crispEdges"/><rect fill="#1e1e1e" x="24.4" y="318.7" width="12.2" height="24.65" shape-rendering="crispEdges"/><rect fill="#1e1e1e" x="36.6" y="318.7" width="24.4" height="24.65" shape-rendering="crispEdges"/><rect fill="#1e1e1e" x="61" y="318.7" width="12.2" height="24.65" shape-rendering="crispEdges"/><rect fill="#1e1e1e" x="73.2" y="318.7" width="12.2" height="24.65" shape-rendering="crispEdges"/><rect fill="#242f38" x="85.4" y="318.7" width="12.2" height="24.65" shape-rendering="crispEdges"/><rect fill="#1e1e1e" x="97.6" y="318.7" width="12.2" height="24.65" shape-rendering="crispEdges"/><rect fill="#1e1e1e" x="109.8" y="318.7" width="732" height="24.65" shape-rendering="crispEdges"/><rect fill="#1e1e1e" x="841.8" y="318.7" width="12.2" height="24.65" shape-rendering="crispEdges"/><rect fill="#1e1e1e" x="854" y="318.7" width="329.4" height="24.65" shape-rendering="crispEdges"/><rect fill="#1e1e1e" x="1183.4" y="318.7" width="24.4" height="24.65" shape-rendering="crispEdges"/><rect fill="#1e1e1e" x="1207.8" y="318.7" width="12.2" height="24.65" shape-rendering="crispEdges"/><rect fill="#121212" x="1220" y="318.7" width="24.4" height="24.65" shape-rendering="crispEdges"/><rect fill="#121212" x="0" y="343.1" width="24.4" height="24.65" shape-rendering="crispEdges"/><rect fill="#1e1e1e" x="24.4" y="343.1" width="12.2" height="24.65" shape-rendering="crispEdges"/><rect fill="#1e1e1e" x="36.6" y="343.1" width="24.4" height="24.65" shape-rendering="crispEdges"/><rect fill="#1e1e1e" x="61" y="343.1" width="12.2" height="24.65" shape-rendering="crispEdges"/><rect fill="#1e1e1e" x="73.2" y="343.1" width="12.2" height="24.65" shape-rendering="crispEdges"/><rect fill="#242f38" x="85.4" y="343.1" width="12.2" height="24.65" shape-rendering="crispEdges"/><rect fill="#1e1e1e" x="97.6" y="343.1" width="12.2" height="24.65" shape-rendering="crispEdges"/><rect fill="#343434" x="109.8" y="343.1" width="658.8" height="24.65" shape-rendering="crispEdges"/><rect fill="#1e1e1e" x="768.6" y="343.1" width="12.2" height="24.65" shape-rendering="crispEdges"/><rect fill="#1e1e1e" x="780.8" y="343.1" width="402.6" height="24.65" shape-rendering="crispEdges"/><rect fill="#1e1e1e" x="1183.4" y="343.1" width="24.4" height="24.65" shape-rendering="crispEdges"/><rect fill="#1e1e1e" x="1207.8" y="343.1" width="12.2" height="24.65" shape-rendering="crispEdges"/><rect fill="#121212" x="1220" y="343.1" width="24.4" height="24.65" shape-rendering="crispEdges"/><rect fill="#121212" x="0" y="367.5" width="24.4" height="24.65" shape-rendering="crispEdges"/><rect fill="#1e1e1e" x="24.4" y="367.5" width="12.2" height="24.65" shape-rendering="crispEdges"/><rect fill="#1e1e1e" x="36.6" y="367.5" width="24.4" height="24.65" shape-rendering="crispEdges"/><rect fill="#1e1e1e" x="61" y="367.5" width="12.2" height="24.65" shape-rendering="crispEdges"/><rect fill="#1e1e1e" x="73.2" y="367.5" width="12.2" height="24.65" shape-rendering="crispEdges"/><rect fill="#242f38" x="85.4" y="367.5" width="12.2" height="24.65" shape-rendering="crispEdges"/><rect fill="#1e1e1e" x="97.6" y="367.5" width="12.2" height="24.65" shape-rendering="crispEdges"/><rect fill="#1e1e1e" x="109.8" y="367.5" width="1024.8" height="24.65" shape-rendering="crispEdges"/><rect fill="#1e1e1e" x="1134.6" y="367.5" width="12.2" height="24.65" shape-rendering="crispEdges"/><rect fill="#1e1e1e" x="1146.8" y="367.5" width="36.6" height="24.65" shape-rendering="crispEdges"/><rect fill="#1e1e1e" x="1183.4" y="367.5" width="24.4" height="24.65" shape-rendering="crispEdges"/><rect fill="#1e1e1e" x="1207.8" y="367.5" width="12.2" height="24.65" shape-rendering="crispEdges"/><rect fill="#121212" x="1220" y="367.5" width="24.4" height="24.65" shape-rendering="crispEdges"/><rect fill="#121212" x="0" y="391.9" width="24.4" height="24.65" shape-rendering="crispEdges"/><rect fill="#1e1e1e" x="24.4" y="391.9" width="12.2" height="24.65" shape-rendering="crispEdges"/><rect fill="#1e1e1e" x="36.6" y="391.9" width="24.4" height="24.65" shape-rendering="crispEdges"/><rect fill="#1e1e1e" x="61" y="391.9" width="12.2" height="24.65" shape-rendering="crispEdges"/><rect fill="#1e1e1e" x="73.2" y="391.9" width="12.2" height="24.65" shape-rendering="crispEdges"/><rect fill="#242f38" x="85.4" y="391.9" width="12.2" height="24.65" shape-rendering="crispEdges"/><rect fill="#1e1e1e" x="97.6" y="391.9" width="12.2" height="24.65" shape-rendering="crispEdges"/><rect fill="#1e1e1e" x="109.8" y="391.9" width="585.6" height="24.65" shape-rendering="crispEdges"/><rect fill="#1e1e1e" x="695.4" y="391.9" width="12.2" height="24.65" shape-rendering="crispEdges"/><rect fill="#1e1e1e" x="707.6" y="391.9" width="475.8" height="24.65" shape-rendering="crispEdges"/><rect fill="#1e1e1e" x="1183.4" y="391.9" width="24.4" height="24.65" shape-rendering="crispEdges"/><rect fill="#1e1e1e" x="1207.8" y="391.9" width="12.2" height="24.65" shape-rendering="crispEdges"/><rect fill="#121212" x="1220" y="391.9" width="24.4" height="24.65" shape-rendering="crispEdges"/><rect fill="#121212" x="0" y="416.3" width="24.4" height="24.65" shape-rendering="crispEdges"/><rect fill="#1e1e1e" x="24.4" y="416.3" width="12.2" height="24.65" shape-rendering="crispEdges"/><rect fill="#1e1e1e" x="36.6" y="416.3" width="24.4" height="24.65" shape-rendering="crispEdges"/><rect fill="#1e1e1e" x="61" y="416.3" width="12.2" height="24.65" shape-rendering="crispEdges"/><rect fill="#1e1e1e" x="73.2" y="416.3" width="12.2" height="24.65" shape-rendering="crispEdges"/><rect fill="#242f38" x="85.4" y="416.3" width="12.2" height="24.65" shape-rendering="crispEdges"/><rect fill="#1e1e1e" x="97.6" y="416.3" width="12.2" height="24.65" shape-rendering="crispEdges"/><rect fill="#1e1e1e" x="109.8" y="416.3" width="1073.6" height="24.65" shape-rendering="crispEdges"/><rect fill="#1e1e1e" x="1183.4" y="416.3" width="24.4" height="24.65" shape-rendering="crispEdges"/><rect fill="#1e1e1e" x="1207.8" y="416.3" width="12.2" height="24.65" shape-rendering="crispEdges"/><rect fill="#121212" x="1220" y="416.3" width="24.4" height="24.65" shape-rendering="crispEdges"/><rect fill="#121212" x="0" y="440.7" width="24.4" height="24.65" shape-rendering="crispEdges"/><rect fill="#1e1e1e" x="24.4" y="440.7" width="12.2" height="24.65" shape-rendering="crispEdges"/><rect fill="#1e1e1e" x="36.6" y="440.7" width="24.4" height="24.65" shape-rendering="crispEdges"/><rect fill="#1e1e1e" x="61" y="440.7" width="12.2" height="24.65" shape-rendering="crispEdges"/><rect fill="#1e1e1e" x="73.2" y="440.7" width="12.2" height="24.65" shape-rendering="crispEdges"/><rect fill="#242f38" x="85.4" y="440.7" width="12.2" height="24.65" shape-rendering="crispEdges"/><rect fill="#1e1e1e" x="97.6" y="440.7" width="12.2" height="24.65" shape-rendering="crispEdges"/><rect fill="#1e1e1e" x="109.8" y="440.7" width="817.4" height="24.65" shape-rendering="crispEdges"/><rect fill="#1e1e1e" x="927.2" y="440.7" width="12.2" height="24.65" shape-rendering="crispEdges"/><rect fill="#1e1e1e" x="939.4" y="440.7" width="244" height="24.65" shape-rendering="crispEdges"/><rect fill="#1e1e1e" x="1183.4" y="440.7" width="24.4" height="24.65" shape-rendering="crispEdges"/><rect fill="#1e1e1e" x="1207.8" y="440.7" width="12.2" height="24.65" shape-rendering="crispEdges"/><rect fill="#121212" x="1220" y="440.7" width="24.4" height="24.65" shape-rendering="crispEdges"/><rect fill="#121212" x="0" y="465.1" width="24.4" height="24.65" shape-rendering="crispEdges"/><rect fill="#1e1e1e" x="24.4" y="465.1" width="12.2" height="24.65" shape-rendering="crispEdges"/><rect fill="#1e1e1e" x="36.6" y="465.1" width="24.4" height="24.65" shape-rendering="crispEdges"/><rect fill="#1e1e1e" x="61" y="465.1" width="12.2" height="24.65" shape-rendering="crispEdges"/><rect fill="#1e1e1e" x="73.2" y="465.1" width="12.2" height="24.65" shape-rendering="crispEdges"/><rect fill="#242f38" x="85.4" y="465.1" width="12.2" height="24.65" shape-rendering="crispEdges"/><rect fill="#1e1e1e" x="97.6" y="465.1" width="12.2" height="24.65" shape-rendering="crispEdges"/><rect fill="#1e1e1e" x="109.8" y="465.1" width="817.4" height="24.65" shape-rendering="crispEdges"/><rect fill="#1e1e1e" x="927.2" y="465.1" width="12.2" height="24.65" shape-rendering="crispEdges"/><rect fill="#1e1e1e" x="939.4" y="465.1" width="244" height="24.65" shape-rendering="crispEdges"/><rect fill="#1e1e1e" x="1183.4" y="465.1" width="24.4" height="24.65" shape-rendering="crispEdges"/><rect fill="#1e1e1e" x="1207.8" y="465.1" width="12.2" height="24.65" shape-rendering="crispEdges"/><rect fill="#121212" x="1220" y="465.1" width="24.4" height="24.65" shape-rendering="crispEdges"/><rect fill="#121212" x="0" y="489.5" width="24.4" height="24.65" shape-rendering="crispEdges"/><rect fill="#1e1e1e" x="24.4" y="489.5" width="12.2" height="24.65" shape-rendering="crispEdges"/><rect fill="#1e1e1e" x="36.6" y="489.5" width="24.4" height="24.65" shape-rendering="crispEdges"/><rect fill="#1e1e1e" x="61" y="489.5" width="1122.4" height="24.65" shape-rendering="crispEdges"/><rect fill="#1e1e1e" x="1183.4" y="489.5" width="24.4" height="24.65" shape-rendering="crispEdges"/><rect fill="#1e1e1e" x="1207.8" y="489.5" width="12.2" height="24.65" shape-rendering="crispEdges"/><rect fill="#121212" x="1220" y="489.5" width="24.4" height="24.65" shape-rendering="crispEdges"/><rect fill="#121212" x="0" y="513.9" width="24.4" height="24.65" shape-rendering="crispEdges"/><rect fill="#1e1e1e" x="24.4" y="513.9" width="12.2" height="24.65" shape-rendering="crispEdges"/><rect fill="#1e1e1e" x="36.6" y="513.9" width="24.4" height="24.65" shape-rendering="crispEdges"/><rect fill="#1e1e1e" x="61" y="513.9" width="829.6" height="24.65" shape-rendering="crispEdges"/><rect fill="#1e1e1e" x="890.6" y="513.9" width="97.6" height="24.65" shape-rendering="crispEdges"/><rect fill="#fea62b" x="988.2" y="513.9" width="85.4" height="24.65" shape-rendering="crispEdges"/><rect fill="#fea62b" x="1073.6" y="513.9" width="12.2" height="24.65" shape-rendering="crispEdges"/><rect fill="#0178d4" x="1085.8" y="513.9" width="24.4" height="24.65" shape-rendering="crispEdges"/><rect fill="#0178d4" x="1110.2" y="513.9" width="48.8" height="24.65" shape-rendering="crispEdges"/><rect fill="#0178d4" x="1159" y="513.9" width="24.4" height="24.65" shape-rendering="crispEdges"/><rect fill="#1e1e1e" x="1183.4" y="513.9" width="24.4" height="24.65" shape-rendering="crispEdges"/><rect fill="#1e1e1e" x="1207.8" y="513.9" width="12.2" height="24.65" shape-rendering="crispEdges"/><rect fill="#121212" x="1220" y="513.9" width="24.4" height="24.65" shape-rendering="crispEdges"/><rect fill="#121212" x="0" y="538.3" width="24.4" height="24.65" shape-rendering="crispEdges"/><rect fill="#1e1e1e" x="24.4" y="538.3" width="12.2" height="24.65" shape-rendering="crispEdges"/><rect fill="#1e1e1e" x="36.6" y="538.3" width="1171.2" height="24.65" shape-rendering="crispEdges"/><rect fill="#1e1e1e" x="1207.8" y="538.3" width="12.2" height="24.65" shape-rendering="crispEdges"/><rect fill="#121212" x="1220" y="538.3" width="24.4" height="24.65" shape-rendering="crispEdges"/><rect fill="#121212" x="0" y="562.7" width="1244.4" height="24.65" shape-rendering="crispEdges"/>
    <g class="terminal-1144730450-matrix">
    <text class="terminal-1144730450-r1" x="0" y="20" textLength="1244.4" clip-path="url(#terminal-1144730450-line-0)">▔▔▔▔▔▔▔▔▔▔▔▔▔▔▔▔▔▔▔▔▔▔▔▔▔▔▔▔▔▔▔▔▔▔▔▔▔▔▔▔▔▔▔▔▔▔▔▔▔▔▔▔▔▔▔▔▔▔▔▔▔▔▔▔▔▔▔▔▔▔▔▔▔▔▔▔▔▔▔▔▔▔▔▔▔▔▔▔▔▔▔▔▔▔▔▔▔▔▔▔▔▔</text><text class="terminal-1144730450-r2" x="1244.4" y="20" textLength="12.2" clip-path="url(#terminal-1144730450-line-0)">
</text><text class="terminal-1144730450-r2" x="1244.4" y="44.4" textLength="12.2" clip-path="url(#terminal-1144730450-line-1)">
</text><text class="terminal-1144730450-r3" x="24.4" y="68.8" textLength="12.2" clip-path="url(#terminal-1144730450-line-2)">┏</text><text class="terminal-1144730450-r3" x="36.6" y="68.8" textLength="1171.2" clip-path="url(#terminal-1144730450-line-2)">━━━━━━━━━━━━━━━━━━━━━━━━━━━━━━━━━━━━━━━━━━━━━━━━━━━━━━━━━━━━━━━━━━━━━━━━━━━━━━━━━━━━━━━━━━━━━━━━</text><text class="terminal-1144730450-r3" x="1207.8" y="68.8" textLength="12.2" clip-path="url(#terminal-1144730450-line-2)">┓</text><text class="terminal-1144730450-r2" x="1244.4" y="68.8" textLength="12.2" clip-path="url(#terminal-1144730450-line-2)">
</text><text class="terminal-1144730450-r3" x="24.4" y="93.2" textLength="12.2" clip-path="url(#terminal-1144730450-line-3)">┃</text><text class="terminal-1144730450-r4" x="73.2" y="93.2" textLength="12.2" clip-path="url(#terminal-1144730450-line-3)">⭘</text><text class="terminal-1144730450-r4" x="414.8" y="93.2" textLength="73.2" clip-path="url(#terminal-1144730450-line-3)">aicage</text><text class="terminal-1144730450-r5" x="488" y="93.2" textLength="36.6" clip-path="url(#terminal-1144730450-line-3)">&#160;—&#160;</text><text class="terminal-1144730450-r5" x="524.6" y="93.2" textLength="280.6" clip-path="url(#terminal-1144730450-line-3)">container&#160;configuration</text><text class="terminal-1144730450-r3" x="1207.8" y="93.2" textLength="12.2" clip-path="url(#terminal-1144730450-line-3)">┃</text><text class="terminal-1144730450-r2" x="1244.4" y="93.2" textLength="12.2" clip-path="url(#terminal-1144730450-line-3)">
</text><text class="terminal-1144730450-r3" x="24.4" y="117.6" textLength="12.2" clip-path="url(#terminal-1144730450-line-4)">┃</text><text class="terminal-1144730450-r3" x="1207.8" y="117.6" textLength="12.2" clip-path="url(#terminal-1144730450-line-4)">┃</text><text class="terminal-1144730450-r2" x="1244.4" y="117.6" textLength="12.2" clip-path="url(#terminal-1144730450-line-4)">
</text><text class="terminal-1144730450-r3" x="24.4" y="142" textLength="12.2" clip-path="url(#terminal-1144730450-line-5)">┃</text><text class="terminal-1144730450-r6" x="61" y="142" textLength="207.4" clip-path="url(#terminal-1144730450-line-5)">Choose&#160;Extensions</text><text class="terminal-1144730450-r3" x="1207.8" y="142" textLength="12.2" clip-path="url(#terminal-1144730450-line-5)">┃</text><text class="terminal-1144730450-r2" x="1244.4" y="142" textLength="12.2" clip-path="url(#terminal-1144730450-line-5)">
</text><text class="terminal-1144730450-r3" x="24.4" y="166.4" textLength="12.2" clip-path="url(#terminal-1144730450-line-6)">┃</text><text class="terminal-1144730450-r7" x="61" y="166.4" textLength="512.4" clip-path="url(#terminal-1144730450-line-6)">Toggle&#160;the&#160;optional&#160;extensions&#160;to&#160;include.</text><text class="terminal-1144730450-r3" x="1207.8" y="166.4" textLength="12.2" clip-path="url(#terminal-1144730450-line-6)">┃</text><text class="terminal-1144730450-r2" x="1244.4" y="166.4" textLength="12.2" clip-path="url(#terminal-1144730450-line-6)">
</text><text class="terminal-1144730450-r3" x="24.4" y="190.8" textLength="12.2" clip-path="url(#terminal-1144730450-line-7)">┃</text><text class="terminal-1144730450-r3" x="1207.8" y="190.8" textLength="12.2" clip-path="url(#terminal-1144730450-line-7)">┃</text><text class="terminal-1144730450-r2" x="1244.4" y="190.8" textLength="12.2" clip-path="url(#terminal-1144730450-line-7)">
</text><text class="terminal-1144730450-r3" x="24.4" y="215.2" textLength="12.2" clip-path="url(#terminal-1144730450-line-8)">┃</text><text class="terminal-1144730450-r8" x="73.2" y="215.2" textLength="12.2" clip-path="url(#terminal-1144730450-line-8)">▐</text><text class="terminal-1144730450-r9" x="85.4" y="215.2" textLength="12.2" clip-path="url(#terminal-1144730450-line-8)">X</text><text class="terminal-1144730450-r8" x="97.6" y="215.2" textLength="12.2" clip-path="url(#terminal-1144730450-line-8)">▌</text><text class="terminal-1144730450-r10" x="109.8" y="215.2" textLength="707.6" clip-path="url(#terminal-1144730450-line-8)">&#160;act:&#160;act&#160;GitHub&#160;runner&#160;-&#160;Run&#160;your&#160;GitHub&#160;Actions&#160;locally&#160;</text><text class="terminal-1144730450-r3" x="1207.8" y="215.2" textLength="12.2" clip-path="url(#terminal-1144730450-line-8)">┃</text><text class="terminal-1144730450-r2" x="1244.4" y="215.2" textLength="12.2" clip-path="url(#terminal-1144730450-line-8)">
</text><text class="terminal-1144730450-r3" x="24.4" y="239.6" textLength="12.2" clip-path="url(#terminal-1144730450-line-9)">┃</text><text class="terminal-1144730450-r8" x="73.2" y="239.6" textLength="12.2" clip-path="url(#terminal-1144730450-line-9)">▐</text><text class="terminal-1144730450-r9" x="85.4" y="239.6" textLength="12.2" clip-path="url(#terminal-1144730450-line-9)">X</text><text class="terminal-1144730450-r8" x="97.6" y="239.6" textLength="12.2" clip-path="url(#terminal-1144730450-line-9)">▌</text><text class="terminal-1144730450-r11" x="109.8" y="239.6" textLength="988.2" clip-path="url(#terminal-1144730450-line-9)">&#160;bpftool:&#160;bpftool&#160;-&#160;Inspection&#160;and&#160;simple&#160;manipulation&#160;of&#160;eBPF&#160;programs&#160;and&#160;maps&#160;</text><text class="terminal-1144730450-r3" x="1207.8" y="239.6" textLength="12.2" clip-path="url(#terminal-1144730450-line-9)">┃</text><text class="terminal-1144730450-r2" x="1244.4" y="239.6" textLength="12.2" clip-path="url(#terminal-1144730450-line-9)">
</text><text class="terminal-1144730450-r3" x="24.4" y="264" textLength="12.2" clip-path="url(#terminal-1144730450-line-10)">┃</text><text class="terminal-1144730450-r8" x="73.2" y="264" textLength="12.2" clip-path="url(#terminal-1144730450-line-10)">▐</text><text class="terminal-1144730450-r9" x="85.4" y="264" textLength="12.2" clip-path="url(#terminal-1144730450-line-10)">X</text><text class="terminal-1144730450-r8" x="97.6" y="264" textLength="12.2" clip-path="url(#terminal-1144730450-line-10)">▌</text><text class="terminal-1144730450-r11" x="109.8" y="264" textLength="1061.4" clip-path="url(#terminal-1144730450-line-10)">&#160;cosign:&#160;sigstore/cosign&#160;-&#160;Signing&#160;OCI&#160;containers&#160;(and&#160;other&#160;artifacts)&#160;using&#160;Sigstore&#160;</text><text class="terminal-1144730450-r3" x="1207.8" y="264" textLength="12.2" clip-path="url(#terminal-1144730450-line-10)">┃</text><text class="terminal-1144730450-r2" x="1244.4" y="264" textLength="12.2" clip-path="url(#terminal-1144730450-line-10)">
</text><text class="terminal-1144730450-r3" x="24.4" y="288.4" textLength="12.2" clip-path="url(#terminal-1144730450-line-11)">┃</text><text class="terminal-1144730450-r8" x="73.2" y="288.4" textLength="12.2" clip-path="url(#terminal-1144730450-line-11)">▐</text><text class="terminal-1144730450-r9" x="85.4" y="288.4" textLength="12.2" clip-path="url(#terminal-1144730450-line-11)">X</text><text class="terminal-1144730450-r8" x="97.6" y="288.4" textLength="12.2" clip-path="url(#terminal-1144730450-line-11)">▌</text><text class="terminal-1144730450-r11" x="109.8" y="288.4" textLength="622.2" clip-path="url(#terminal-1144730450-line-11)">&#160;crane:&#160;crane&#160;-&#160;Tool&#160;for&#160;managing&#160;container&#160;images&#160;</text><text class="terminal-1144730450-r3" x="1207.8" y="288.4" textLength="12.2" clip-path="url(#terminal-1144730450-line-11)">┃</text><text class="terminal-1144730450-r2" x="1244.4" y="288.4" textLength="12.2" clip-path="url(#terminal-1144730450-line-11)">
</text><text class="terminal-1144730450-r3" x="24.4" y="312.8" textLength="12.2" clip-path="url(#terminal-1144730450-line-12)">┃</text><text class="terminal-1144730450-r8" x="73.2" y="312.8" textLength="12.2" clip-path="url(#terminal-1144730450-line-12)">▐</text><text class="terminal-1144730450-r9" x="85.4" y="312.8" textLength="12.2" clip-path="url(#terminal-1144730450-line-12)">X</text><text class="terminal-1144730450-r8" x="97.6" y="312.8" textLength="12.2" clip-path="url(#terminal-1144730450-line-12)">▌</text><text class="terminal-1144730450-r11" x="109.8" y="312.8" textLength="890.6" clip-path="url(#terminal-1144730450-line-12)">&#160;dotnet:&#160;.NET&#160;SDK&#160;-&#160;.NET&#160;SDK&#160;for&#160;building&#160;and&#160;testing&#160;modern&#160;C#&#160;projects&#160;</text><text class="terminal-1144730450-r3" x="1207.8" y="312.8" textLength="12.2" clip-path="url(#terminal-1144730450-line-12)">┃</text><text class="terminal-1144730450-r2" x="1244.4" y="312.8" textLength="12.2" clip-path="url(#terminal-1144730450-line-12)">
</text><text class="terminal-1144730450-r3" x="24.4" y="337.2" textLength="12.2" clip-path="url(#terminal-1144730450-line-13)">┃</text><text class="terminal-1144730450-r8" x="73.2" y="337.2" textLength="12.2" clip-path="url(#terminal-1144730450-line-13)">▐</text><text class="terminal-1144730450-r9" x="85.4" y="337.2" textLength="12.2" clip-path="url(#terminal-1144730450-line-13)">X</text><text class="terminal-1144730450-r8" x="97.6" y="337.2" textLength="12.2" clip-path="url(#terminal-1144730450-line-13)">▌</text><text class="terminal-1144730450-r11" x="109.8" y="337.2" textLength="732" clip-path="url(#terminal-1144730450-line-13)">&#160;gcloud:&#160;Google&#160;Cloud&#160;CLI&#160;-&#160;Google&#160;Cloud&#160;command&#160;line&#160;tools&#160;</text><text class="terminal-1144730450-r3" x="1207.8" y="337.2" textLength="12.2" clip-path="url(#terminal-1144730450-line-13)">┃</text><text class="terminal-1144730450-r2" x="1244.4" y="337.2" textLength="12.2" clip-path="url(#terminal-1144730450-line-13)">
</text><text class="terminal-1144730450-r3" x="24.4" y="361.6" textLength="12.2" clip-path="url(#terminal-1144730450-line-14)">┃</text><text class="terminal-1144730450-r8" x="73.2" y="361.6" textLength="12.2" clip-path="url(#terminal-1144730450-line-14)">▐</text><text class="terminal-1144730450-r12" x="85.4" y="361.6" textLength="12.2" clip-path="url(#terminal-1144730450-line-14)">X</text><text class="terminal-1144730450-r8" x="97.6" y="361.6" textLength="12.2" clip-path="url(#terminal-1144730450-line-14)">▌</text><text class="terminal-1144730450-r11" x="109.8" y="361.6" textLength="658.8" clip-path="url(#terminal-1144730450-line-14)">&#160;gh:&#160;GitHub&#160;CLI&#160;-&#160;GitHub’s&#160;official&#160;command&#160;line&#160;tool&#160;</text><text class="terminal-1144730450-r3" x="1207.8" y="361.6" textLength="12.2" clip-path="url(#terminal-1144730450-line-14)">┃</text><text class="terminal-1144730450-r2" x="1244.4" y="361.6" textLength="12.2" clip-path="url(#terminal-1144730450-line-14)">
</text><text class="terminal-1144730450-r3" x="24.4" y="386" textLength="12.2" clip-path="url(#terminal-1144730450-line-15)">┃</text><text class="terminal-1144730450-r8" x="73.2" y="386" textLength="12.2" clip-path="url(#terminal-1144730450-line-15)">▐</text><text class="terminal-1144730450-r9" x="85.4" y="386" textLength="12.2" clip-path="url(#terminal-1144730450-line-15)">X</text><text class="terminal-1144730450-r8" x="97.6" y="386" textLength="12.2" clip-path="url(#terminal-1144730450-line-15)">▌</text><text class="terminal-1144730450-r11" x="109.8" y="386" textLength="1024.8" clip-path="url(#terminal-1144730450-line-15)">&#160;nvidia-cuda:&#160;NVIDIA&#160;CUDA&#160;-&#160;User-space&#160;tooling&#160;in&#160;Debian,&#160;Ubuntu,&#160;and&#160;Fedora&#160;images&#160;</text><text class="terminal-1144730450-r3" x="1207.8" y="386" textLength="12.2" clip-path="url(#terminal-1144730450-line-15)">┃</text><text class="terminal-1144730450-r2" x="1244.4" y="386" textLength="12.2" clip-path="url(#terminal-1144730450-line-15)">
</text><text class="terminal-1144730450-r3" x="24.4" y="410.4" textLength="12.2" clip-path="url(#terminal-1144730450-line-16)">┃</text><text class="terminal-1144730450-r8" x="73.2" y="410.4" textLength="12.2" clip-path="url(#terminal-1144730450-line-16)">▐</text><text class="terminal-1144730450-r9" x="85.4" y="410.4" textLength="12.2" clip-path="url(#terminal-1144730450-line-16)">X</text><text class="terminal-1144730450-r8" x="97.6" y="410.4" textLength="12.2" clip-path="url(#terminal-1144730450-line-16)">▌</text><text class="terminal-1144730450-r11" x="109.8" y="410.4" textLength="585.6" clip-path="url(#terminal-1144730450-line-16)">&#160;php:&#160;PHP&#160;-&#160;With&#160;common&#160;extensions&#160;and&#160;Composer&#160;</text><text class="terminal-1144730450-r3" x="1207.8" y="410.4" textLength="12.2" clip-path="url(#terminal-1144730450-line-16)">┃</text><text class="terminal-1144730450-r2" x="1244.4" y="410.4" textLength="12.2" clip-path="url(#terminal-1144730450-line-16)">
</text><text class="terminal-1144730450-r3" x="24.4" y="434.8" textLength="12.2" clip-path="url(#terminal-1144730450-line-17)">┃</text><text class="terminal-1144730450-r8" x="73.2" y="434.8" textLength="12.2" clip-path="url(#terminal-1144730450-line-17)">▐</text><text class="terminal-1144730450-r9" x="85.4" y="434.8" textLength="12.2" clip-path="url(#terminal-1144730450-line-17)">X</text><text class="terminal-1144730450-r8" x="97.6" y="434.8" textLength="12.2" clip-path="url(#terminal-1144730450-line-17)">▌</text><text class="terminal-1144730450-r11" x="109.8" y="434.8" textLength="1073.6" clip-path="url(#terminal-1144730450-line-17)">&#160;regctl:&#160;CLI&#160;interface&#160;to&#160;regclient&#160;-&#160;the&#160;OCI&#160;client&#160;for&#160;registry&#160;servers&#160;and&#160;the&#160;OCI&#160;Im</text><text class="terminal-1144730450-r3" x="1207.8" y="434.8" textLength="12.2" clip-path="url(#terminal-1144730450-line-17)">┃</text><text class="terminal-1144730450-r2" x="1244.4" y="434.8" textLength="12.2" clip-path="url(#terminal-1144730450-line-17)">
</text><text class="terminal-1144730450-r3" x="24.4" y="459.2" textLength="12.2" clip-path="url(#terminal-1144730450-line-18)">┃</text><text class="terminal-1144730450-r8" x="73.2" y="459.2" textLength="12.2" clip-path="url(#terminal-1144730450-line-18)">▐</text><text class="terminal-1144730450-r9" x="85.4" y="459.2" textLength="12.2" clip-path="url(#terminal-1144730450-line-18)">X</text><text class="terminal-1144730450-r8" x="97.6" y="459.2" textLength="12.2" clip-path="url(#terminal-1144730450-line-18)">▌</text><text class="terminal-1144730450-r11" x="109.8" y="459.2" textLength="817.4" clip-path="url(#terminal-1144730450-line-18)">&#160;shellcheck:&#160;ShellCheck&#160;-&#160;A&#160;static&#160;analysis&#160;tool&#160;for&#160;shell&#160;scripts&#160;</text><text class="terminal-1144730450-r3" x="1207.8" y="459.2" textLength="12.2" clip-path="url(#terminal-1144730450-line-18)">┃</text><text class="terminal-1144730450-r2" x="1244.4" y="459.2" textLength="12.2" clip-path="url(#terminal-1144730450-line-18)">
</text><text class="terminal-1144730450-r3" x="24.4" y="483.6" textLength="12.2" clip-path="url(#terminal-1144730450-line-19)">┃</text><text class="terminal-1144730450-r8" x="73.2" y="483.6" textLength="12.2" clip-path="url(#terminal-1144730450-line-19)">▐</text><text class="terminal-1144730450-r9" x="85.4" y="483.6" textLength="12.2" clip-path="url(#terminal-1144730450-line-19)">X</text><text class="terminal-1144730450-r8" x="97.6" y="483.6" textLength="12.2" clip-path="url(#terminal-1144730450-line-19)">▌</text><text class="terminal-1144730450-r11" x="109.8" y="483.6" textLength="817.4" clip-path="url(#terminal-1144730450-line-19)">&#160;skopeo:&#160;skopeo&#160;-&#160;Work&#160;with&#160;remote&#160;container&#160;images&#160;and&#160;registries&#160;</text><text class="terminal-1144730450-r3" x="1207.8" y="483.6" textLength="12.2" clip-path="url(#terminal-1144730450-line-19)">┃</text><text class="terminal-1144730450-r2" x="1244.4" y="483.6" textLength="12.2" clip-path="url(#terminal-1144730450-line-19)">
</text><text class="terminal-1144730450-r3" x="24.4" y="508" textLength="12.2" clip-path="url(#terminal-1144730450-line-20)">┃</text><text class="terminal-1144730450-r3" x="1207.8" y="508" textLength="12.2" clip-path="url(#terminal-1144730450-line-20)">┃</text><text class="terminal-1144730450-r2" x="1244.4" y="508" textLength="12.2" clip-path="url(#terminal-1144730450-line-20)">
</text><text class="terminal-1144730450-r3" x="24.4" y="532.4" textLength="12.2" clip-path="url(#terminal-1144730450-line-21)">┃</text><text class="terminal-1144730450-r6" x="890.6" y="532.4" textLength="97.6" clip-path="url(#terminal-1144730450-line-21)">&#160;Cancel&#160;</text><text class="terminal-1144730450-r13" x="988.2" y="532.4" textLength="85.4" clip-path="url(#terminal-1144730450-line-21)">&#160;Clear&#160;</text><text class="terminal-1144730450-r10" x="1110.2" y="532.4" textLength="48.8" clip-path="url(#terminal-1144730450-line-21)">&#160;OK&#160;</text><text class="terminal-1144730450-r3" x="1207.8" y="532.4" textLength="12.2" clip-path="url(#terminal-1144730450-line-21)">┃</text><text class="terminal-1144730450-r2" x="1244.4" y="532.4" textLength="12.2" clip-path="url(#terminal-1144730450-line-21)">
</text><text class="terminal-1144730450-r3" x="24.4" y="556.8" textLength="12.2" clip-path="url(#terminal-1144730450-line-22)">┗</text><text class="terminal-1144730450-r3" x="36.6" y="556.8" textLength="1171.2" clip-path="url(#terminal-1144730450-line-22)">━━━━━━━━━━━━━━━━━━━━━━━━━━━━━━━━━━━━━━━━━━━━━━━━━━━━━━━━━━━━━━━━━━━━━━━━━━━━━━━━━━━━━━━━━━━━━━━━</text><text class="terminal-1144730450-r3" x="1207.8" y="556.8" textLength="12.2" clip-path="url(#terminal-1144730450-line-22)">┛</text><text class="terminal-1144730450-r2" x="1244.4" y="556.8" textLength="12.2" clip-path="url(#terminal-1144730450-line-22)">
</text><text class="terminal-1144730450-r1" x="0" y="581.2" textLength="1244.4" clip-path="url(#terminal-1144730450-line-23)">▁▁▁▁▁▁▁▁▁▁▁▁▁▁▁▁▁▁▁▁▁▁▁▁▁▁▁▁▁▁▁▁▁▁▁▁▁▁▁▁▁▁▁▁▁▁▁▁▁▁▁▁▁▁▁▁▁▁▁▁▁▁▁▁▁▁▁▁▁▁▁▁▁▁▁▁▁▁▁▁▁▁▁▁▁▁▁▁▁▁▁▁▁▁▁▁▁▁▁▁▁▁</text>
    </g>
    </g>
</svg>
