<svg class="rich-terminal" viewBox="0 0 1238 464.79999999999995" xmlns="http://www.w3.org/2000/svg">
    <!-- Generated with Rich https://www.textualize.io -->
    <style>

    @font-face {
        font-family: "Fira Code";
        src: local("FiraCode-Regular"),
                url("https://cdnjs.cloudflare.com/ajax/libs/firacode/6.2.0/woff2/FiraCode-Regular.woff2") format("woff2"),
                url("https://cdnjs.cloudflare.com/ajax/libs/firacode/6.2.0/woff/FiraCode-Regular.woff") format("woff");
        font-style: normal;
        font-weight: 400;
    }
    @font-face {
        font-family: "Fira Code";
        src: local("FiraCode-Bold"),
                url("https://cdnjs.cloudflare.com/ajax/libs/firacode/6.2.0/woff2/FiraCode-Bold.woff2") format("woff2"),
                url("https://cdnjs.cloudflare.com/ajax/libs/firacode/6.2.0/woff/FiraCode-Bold.woff") format("woff");
        font-style: bold;
        font-weight: 700;
    }

    .terminal-3898939857-matrix {
        font-family: Fira Code, monospace;
        font-size: 20px;
        line-height: 24.4px;
        font-variant-east-asian: full-width;
    }

    .terminal-3898939857-title {
        font-size: 18px;
        font-weight: bold;
        font-family: arial;
    }

    .terminal-3898939857-r1 { fill: #121212 }
.terminal-3898939857-r2 { fill: #c5c8c6 }
.terminal-3898939857-r3 { fill: #0178d4 }
.terminal-3898939857-r4 { fill: #e1e1e1 }
.terminal-3898939857-r5 { fill: #e1e1e1;font-weight: bold }
.terminal-3898939857-r6 { fill: #9e9e9e }
.terminal-3898939857-r7 { fill: #e0e0e0;font-weight: bold }
.terminal-3898939857-r8 { fill: #a5a5a5 }
.terminal-3898939857-r9 { fill: #e2e3e5 }
.terminal-3898939857-r10 { fill: #211505;font-weight: bold }
.terminal-3898939857-r11 { fill: #ddedf9;font-weight: bold }
    </style>

    <defs>
    <clipPath id="terminal-3898939857-clip-terminal">
      <rect x="0" y="0" width="1219.0" height="413.79999999999995" />
    </clipPath>
    <clipPath id="terminal-3898939857-line-0">
    <rect x="0" y="1.5" width="1220" height="24.65"/>
            </clipPath>
<clipPath id="terminal-3898939857-line-1">
    <rect x="0" y="25.9" width="1220" height="24.65"/>
            </clipPath>
<clipPath id="terminal-3898939857-line-2">
    <rect x="0" y="50.3" width="1220" height="24.65"/>
            </clipPath>
<clipPath id="terminal-3898939857-line-3">
    <rect x="0" y="74.7" width="1220" height="24.65"/>
            </clipPath>
<clipPath id="terminal-3898939857-line-4">
    <rect x="0" y="99.1" width="1220" height="24.65"/>
            </clipPath>
<clipPath id="terminal-3898939857-line-5">
    <rect x="0" y="123.5" width="1220" height="24.65"/>
            </clipPath>
<clipPath id="terminal-3898939857-line-6">
    <rect x="0" y="147.9" width="1220" height="24.65"/>
            </clipPath>
<clipPath id="terminal-3898939857-line-7">
    <rect x="0" y="172.3" width="1220" height="24.65"/>
            </clipPath>
<clipPath id="terminal-3898939857-line-8">
    <rect x="0" y="196.7" width="1220" height="24.65"/>
            </clipPath>
<clipPath id="terminal-3898939857-line-9">
    <rect x="0" y="221.1" width="1220" height="24.65"/>
            </clipPath>
<clipPath id="terminal-3898939857-line-10">
    <rect x="0" y="245.5" width="1220" height="24.65"/>
            </clipPath>
<clipPath id="terminal-3898939857-line-11">
    <rect x="0" y="269.9" width="1220" height="24.65"/>
            </clipPath>
<clipPath id="terminal-3898939857-line-12">
    <rect x="0" y="294.3" width="1220" height="24.65"/>
            </clipPath>
<clipPath id="terminal-3898939857-line-13">
    <rect x="0" y="318.7" width="1220" height="24.65"/>
            </clipPath>
<clipPath id="terminal-3898939857-line-14">
    <rect x="0" y="343.1" width="1220" height="24.65"/>
            </clipPath>
<clipPath id="terminal-3898939857-line-15">
    <rect x="0" y="367.5" width="1220" height="24.65"/>
            </clipPath>
    </defs>

    <rect fill="#292929" stroke="rgba(255,255,255,0.35)" stroke-width="1" x="1" y="1" width="1236" height="462.8" rx="8"/><text class="terminal-3898939857-title" fill="#c5c8c6" text-anchor="middle" x="618" y="27">aicage</text>
            <g transform="translate(26,22)">
            <circle cx="0" cy="0" r="7" fill="#ff5f57"/>
            <circle cx="22" cy="0" r="7" fill="#febc2e"/>
            <circle cx="44" cy="0" r="7" fill="#28c840"/>
            </g>
        
    <g transform="translate(9, 41)" clip-path="url(#terminal-3898939857-clip-terminal)">
    <rect fill="#121212" x="0" y="1.5" width="1220" height="24.65" shape-rendering="crispEdges"/><rect fill="#121212" x="0" y="25.9" width="24.4" height="24.65" shape-rendering="crispEdges"/><rect fill="#121212" x="24.4" y="25.9" width="1171.2" height="24.65" shape-rendering="crispEdges"/><rect fill="#121212" x="1195.6" y="25.9" width="24.4" height="24.65" shape-rendering="crispEdges"/><rect fill="#121212" x="0" y="50.3" width="24.4" height="24.65" shape-rendering="crispEdges"/><rect fill="#1e1e1e" x="24.4" y="50.3" width="12.2" height="24.65" shape-rendering="crispEdges"/><rect fill="#1e1e1e" x="36.6" y="50.3" width="1146.8" height="24.65" shape-rendering="crispEdges"/><rect fill="#1e1e1e" x="1183.4" y="50.3" width="12.2" height="24.65" shape-rendering="crispEdges"/><rect fill="#121212" x="1195.6" y="50.3" width="24.4" height="24.65" shape-rendering="crispEdges"/><rect fill="#121212" x="0" y="74.7" width="24.4" height="24.65" shape-rendering="crispEdges"/><rect fill="#1e1e1e" x="24.4" y="74.7" width="12.2" height="24.65" shape-rendering="crispEdges"/><rect fill="#1e1e1e" x="36.6" y="74.7" width="24.4" height="24.65" shape-rendering="crispEdges"/><rect fill="#1e1e1e" x="61" y="74.7" width="12.2" height="24.65" shape-rendering="crispEdges"/><rect fill="#1e1e1e" x="73.2" y="74.7" width="12.2" height="24.65" shape-rendering="crispEdges"/><rect fill="#1e1e1e" x="85.4" y="74.7" width="61" height="24.65" shape-rendering="crispEdges"/><rect fill="#1e1e1e" x="146.4" y="74.7" width="12.2" height="24.65" shape-rendering="crispEdges"/><rect fill="#1e1e1e" x="158.6" y="74.7" width="280.6" height="24.65" shape-rendering="crispEdges"/><rect fill="#1e1e1e" x="439.2" y="74.7" width="73.2" height="24.65" shape-rendering="crispEdges"/><rect fill="#1e1e1e" x="512.4" y="74.7" width="12.2" height="24.65" shape-rendering="crispEdges"/><rect fill="#1e1e1e" x="524.6" y="74.7" width="219.6" height="24.65" shape-rendering="crispEdges"/><rect fill="#1e1e1e" x="744.2" y="74.7" width="292.8" height="24.65" shape-rendering="crispEdges"/><rect fill="#1e1e1e" x="1037" y="74.7" width="12.2" height="24.65" shape-rendering="crispEdges"/><rect fill="#1e1e1e" x="1049.2" y="74.7" width="0" height="24.65" shape-rendering="crispEdges"/><rect fill="#1e1e1e" x="1049.2" y="74.7" width="97.6" height="24.65" shape-rendering="crispEdges"/><rect fill="#1e1e1e" x="1146.8" y="74.7" width="12.2" height="24.65" shape-rendering="crispEdges"/><rect fill="#1e1e1e" x="1159" y="74.7" width="24.4" height="24.65" shape-rendering="crispEdges"/><rect fill="#1e1e1e" x="1183.4" y="74.7" width="12.2" height="24.65" shape-rendering="crispEdges"/><rect fill="#121212" x="1195.6" y="74.7" width="24.4" height="24.65" shape-rendering="crispEdges"/><rect fill="#121212" x="0" y="99.1" width="24.4" height="24.65" shape-rendering="crispEdges"/><rect fill="#1e1e1e" x="24.4" y="99.1" width="12.2" height="24.65" shape-rendering="crispEdges"/><rect fill="#1e1e1e" x="36.6" y="99.1" width="24.4" height="24.65" shape-rendering="crispEdges"/><rect fill="#1e1e1e" x="61" y="99.1" width="1098" height="24.65" shape-rendering="crispEdges"/><rect fill="#1e1e1e" x="1159" y="99.1" width="24.4" height="24.65" shape-rendering="crispEdges"/><rect fill="#1e1e1e" x="1183.4" y="99.1" width="12.2" height="24.65" shape-rendering="crispEdges"/><rect fill="#121212" x="1195.6" y="99.1" width="24.4" height="24.65" shape-rendering="crispEdges"/><rect fill="#121212" x="0" y="123.5" width="24.4" height="24.65" shape-rendering="crispEdges"/><rect fill="#1e1e1e" x="24.4" y="123.5" width="12.2" height="24.65" shape-rendering="crispEdges"/><rect fill="#1e1e1e" x="36.6" y="123.5" width="24.4" height="24.65" shape-rendering="crispEdges"/><rect fill="#1e1e1e" x="61" y="123.5" width="207.4" height="24.65" shape-rendering="crispEdges"/><rect fill="#1e1e1e" x="268.4" y="123.5" width="890.6" height="24.65" shape-rendering="crispEdges"/><rect fill="#1e1e1e" x="1159" y="123.5" width="24.4" height="24.65" shape-rendering="crispEdges"/><rect fill="#1e1e1e" x="1183.4" y="123.5" width="12.2" height="24.65" shape-rendering="crispEdges"/><rect fill="#121212" x="1195.6" y="123.5" width="24.4" height="24.65" shape-rendering="crispEdges"/><rect fill="#121212" x="0" y="147.9" width="24.4" height="24.65" shape-rendering="crispEdges"/><rect fill="#1e1e1e" x="24.4" y="147.9" width="12.2" height="24.65" shape-rendering="crispEdges"/><rect fill="#1e1e1e" x="36.6" y="147.9" width="24.4" height="24.65" shape-rendering="crispEdges"/><rect fill="#1e1e1e" x="61" y="147.9" width="695.4" height="24.65" shape-rendering="crispEdges"/><rect fill="#1e1e1e" x="756.4" y="147.9" width="402.6" height="24.65" shape-rendering="crispEdges"/><rect fill="#1e1e1e" x="1159" y="147.9" width="24.4" height="24.65" shape-rendering="crispEdges"/><rect fill="#1e1e1e" x="1183.4" y="147.9" width="12.2" height="24.65" shape-rendering="crispEdges"/><rect fill="#121212" x="1195.6" y="147.9" width="24.4" height="24.65" shape-rendering="crispEdges"/><rect fill="#121212" x="0" y="172.3" width="24.4" height="24.65" shape-rendering="crispEdges"/><rect fill="#1e1e1e" x="24.4" y="172.3" width="12.2" height="24.65" shape-rendering="crispEdges"/><rect fill="#1e1e1e" x="36.6" y="172.3" width="24.4" height="24.65" shape-rendering="crispEdges"/><rect fill="#1e1e1e" x="61" y="172.3" width="1098" height="24.65" shape-rendering="crispEdges"/><rect fill="#1e1e1e" x="1159" y="172.3" width="24.4" height="24.65" shape-rendering="crispEdges"/><rect fill="#1e1e1e" x="1183.4" y="172.3" width="12.2" height="24.65" shape-rendering="crispEdges"/><rect fill="#121212" x="1195.6" y="172.3" width="24.4" height="24.65" shape-rendering="crispEdges"/><rect fill="#121212" x="0" y="196.7" width="24.4" height="24.65" shape-rendering="crispEdges"/><rect fill="#1e1e1e" x="24.4" y="196.7" width="12.2" height="24.65" shape-rendering="crispEdges"/><rect fill="#1e1e1e" x="36.6" y="196.7" width="24.4" height="24.65" shape-rendering="crispEdges"/><rect fill="#1e1e1e" x="61" y="196.7" width="402.6" height="24.65" shape-rendering="crispEdges"/><rect fill="#1e1e1e" x="463.6" y="196.7" width="695.4" height="24.65" shape-rendering="crispEdges"/><rect fill="#1e1e1e" x="1159" y="196.7" width="24.4" height="24.65" shape-rendering="crispEdges"/><rect fill="#1e1e1e" x="1183.4" y="196.7" width="12.2" height="24.65" shape-rendering="crispEdges"/><rect fill="#121212" x="1195.6" y="196.7" width="24.4" height="24.65" shape-rendering="crispEdges"/><rect fill="#121212" x="0" y="221.1" width="24.4" height="24.65" shape-rendering="crispEdges"/><rect fill="#1e1e1e" x="24.4" y="221.1" width="12.2" height="24.65" shape-rendering="crispEdges"/><rect fill="#1e1e1e" x="36.6" y="221.1" width="24.4" height="24.65" shape-rendering="crispEdges"/><rect fill="#1e1e1e" x="61" y="221.1" width="207.4" height="24.65" shape-rendering="crispEdges"/><rect fill="#1e1e1e" x="268.4" y="221.1" width="890.6" height="24.65" shape-rendering="crispEdges"/><rect fill="#1e1e1e" x="1159" y="221.1" width="24.4" height="24.65" shape-rendering="crispEdges"/><rect fill="#1e1e1e" x="1183.4" y="221.1" width="12.2" height="24.65" shape-rendering="crispEdges"/><rect fill="#121212" x="1195.6" y="221.1" width="24.4" height="24.65" shape-rendering="crispEdges"/><rect fill="#121212" x="0" y="245.5" width="24.4" height="24.65" shape-rendering="crispEdges"/><rect fill="#1e1e1e" x="24.4" y="245.5" width="12.2" height="24.65" shape-rendering="crispEdges"/><rect fill="#1e1e1e" x="36.6" y="245.5" width="24.4" height="24.65" shape-rendering="crispEdges"/><rect fill="#242f38" x="61" y="245.5" width="12.2" height="24.65" shape-rendering="crispEdges"/><rect fill="#242f38" x="73.2" y="245.5" width="1073.6" height="24.65" shape-rendering="crispEdges"/><rect fill="#242f38" x="1146.8" y="245.5" width="12.2" height="24.65" shape-rendering="crispEdges"/><rect fill="#1e1e1e" x="1159" y="245.5" width="24.4" height="24.65" shape-rendering="crispEdges"/><rect fill="#1e1e1e" x="1183.4" y="245.5" width="12.2" height="24.65" shape-rendering="crispEdges"/><rect fill="#121212" x="1195.6" y="245.5" width="24.4" height="24.65" shape-rendering="crispEdges"/><rect fill="#121212" x="0" y="269.9" width="24.4" height="24.65" shape-rendering="crispEdges"/><rect fill="#1e1e1e" x="24.4" y="269.9" width="12.2" height="24.65" shape-rendering="crispEdges"/><rect fill="#1e1e1e" x="36.6" y="269.9" width="24.4" height="24.65" shape-rendering="crispEdges"/><rect fill="#242f38" x="61" y="269.9" width="12.2" height="24.65" shape-rendering="crispEdges"/><rect fill="#242f38" x="73.2" y="269.9" width="12.2" height="24.65" shape-rendering="crispEdges"/><rect fill="#242f38" x="85.4" y="269.9" width="1012.6" height="24.65" shape-rendering="crispEdges"/><rect fill="#242f38" x="1098" y="269.9" width="36.6" height="24.65" shape-rendering="crispEdges"/><rect fill="#242f38" x="1134.6" y="269.9" width="12.2" height="24.65" shape-rendering="crispEdges"/><rect fill="#242f38" x="1146.8" y="269.9" width="12.2" height="24.65" shape-rendering="crispEdges"/><rect fill="#1e1e1e" x="1159" y="269.9" width="24.4" height="24.65" shape-rendering="crispEdges"/><rect fill="#1e1e1e" x="1183.4" y="269.9" width="12.2" height="24.65" shape-rendering="crispEdges"/><rect fill="#121212" x="1195.6" y="269.9" width="24.4" height="24.65" shape-rendering="crispEdges"/><rect fill="#121212" x="0" y="294.3" width="24.4" height="24.65" shape-rendering="crispEdges"/><rect fill="#1e1e1e" x="24.4" y="294.3" width="12.2" height="24.65" shape-rendering="crispEdges"/><rect fill="#1e1e1e" x="36.6" y="294.3" width="24.4" height="24.65" shape-rendering="crispEdges"/><rect fill="#242f38" x="61" y="294.3" width="12.2" height="24.65" shape-rendering="crispEdges"/><rect fill="#242f38" x="73.2" y="294.3" width="1073.6" height="24.65" shape-rendering="crispEdges"/><rect fill="#242f38" x="1146.8" y="294.3" width="12.2" height="24.65" shape-rendering="crispEdges"/><rect fill="#1e1e1e" x="1159" y="294.3" width="24.4" height="24.65" shape-rendering="crispEdges"/><rect fill="#1e1e1e" x="1183.4" y="294.3" width="12.2" height="24.65" shape-rendering="crispEdges"/><rect fill="#121212" x="1195.6" y="294.3" width="24.4" height="24.65" shape-rendering="crispEdges"/><rect fill="#121212" x="0" y="318.7" width="24.4" height="24.65" shape-rendering="crispEdges"/><rect fill="#1e1e1e" x="24.4" y="318.7" width="12.2" height="24.65" shape-rendering="crispEdges"/><rect fill="#1e1e1e" x="36.6" y="318.7" width="24.4" height="24.65" shape-rendering="crispEdges"/><rect fill="#1e1e1e" x="61" y="318.7" width="1098" height="24.65" shape-rendering="crispEdges"/><rect fill="#1e1e1e" x="1159" y="318.7" width="24.4" height="24.65" shape-rendering="crispEdges"/><rect fill="#1e1e1e" x="1183.4" y="318.7" width="12.2" height="24.65" shape-rendering="crispEdges"/><rect fill="#121212" x="1195.6" y="318.7" width="24.4" height="24.65" shape-rendering="crispEdges"/><rect fill="#121212" x="0" y="343.1" width="24.4" height="24.65" shape-rendering="crispEdges"/><rect fill="#1e1e1e" x="24.4" y="343.1" width="12.2" height="24.65" shape-rendering="crispEdges"/><rect fill="#1e1e1e" x="36.6" y="343.1" width="24.4" height="24.65" shape-rendering="crispEdges"/><rect fill="#1e1e1e" x="61" y="343.1" width="829.6" height="24.65" shape-rendering="crispEdges"/><rect fill="#fea62b" x="890.6" y="343.1" width="170.8" height="24.65" shape-rendering="crispEdges"/><rect fill="#0178d4" x="1061.4" y="343.1" width="12.2" height="24.65" shape-rendering="crispEdges"/><rect fill="#0178d4" x="1073.6" y="343.1" width="73.2" height="24.65" shape-rendering="crispEdges"/><rect fill="#0178d4" x="1146.8" y="343.1" width="12.2" height="24.65" shape-rendering="crispEdges"/><rect fill="#1e1e1e" x="1159" y="343.1" width="24.4" height="24.65" shape-rendering="crispEdges"/><rect fill="#1e1e1e" x="1183.4" y="343.1" width="12.2" height="24.65" shape-rendering="crispEdges"/><rect fill="#121212" x="1195.6" y="343.1" width="24.4" height="24.65" shape-rendering="crispEdges"/><rect fill="#121212" x="0" y="367.5" width="24.4" height="24.65" shape-rendering="crispEdges"/><rect fill="#1e1e1e" x="24.4" y="367.5" width="12.2" height="24.65" shape-rendering="crispEdges"/><rect fill="#1e1e1e" x="36.6" y="367.5" width="1146.8" height="24.65" shape-rendering="crispEdges"/><rect fill="#1e1e1e" x="1183.4" y="367.5" width="12.2" height="24.65" shape-rendering="crispEdges"/><rect fill="#121212" x="1195.6" y="367.5" width="24.4" height="24.65" shape-rendering="crispEdges"/><rect fill="#121212" x="0" y="391.9" width="1220" height="24.65" shape-rendering="crispEdges"/>
    <g class="terminal-3898939857-matrix">
    <text class="terminal-3898939857-r1" x="0" y="20" textLength="1220" clip-path="url(#terminal-3898939857-line-0)">▔▔▔▔▔▔▔▔▔▔▔▔▔▔▔▔▔▔▔▔▔▔▔▔▔▔▔▔▔▔▔▔▔▔▔▔▔▔▔▔▔▔▔▔▔▔▔▔▔▔▔▔▔▔▔▔▔▔▔▔▔▔▔▔▔▔▔▔▔▔▔▔▔▔▔▔▔▔▔▔▔▔▔▔▔▔▔▔▔▔▔▔▔▔▔▔▔▔▔▔</text><text class="terminal-3898939857-r2" x="1220" y="20" textLength="12.2" clip-path="url(#terminal-3898939857-line-0)">
</text><text class="terminal-3898939857-r2" x="1220" y="44.4" textLength="12.2" clip-path="url(#terminal-3898939857-line-1)">
</text><text class="terminal-3898939857-r3" x="24.4" y="68.8" textLength="12.2" clip-path="url(#terminal-3898939857-line-2)">┏</text><text class="terminal-3898939857-r3" x="36.6" y="68.8" textLength="1146.8" clip-path="url(#terminal-3898939857-line-2)">━━━━━━━━━━━━━━━━━━━━━━━━━━━━━━━━━━━━━━━━━━━━━━━━━━━━━━━━━━━━━━━━━━━━━━━━━━━━━━━━━━━━━━━━━━━━━━</text><text class="terminal-3898939857-r3" x="1183.4" y="68.8" textLength="12.2" clip-path="url(#terminal-3898939857-line-2)">┓</text><text class="terminal-3898939857-r2" x="1220" y="68.8" textLength="12.2" clip-path="url(#terminal-3898939857-line-2)">
</text><text class="terminal-3898939857-r3" x="24.4" y="93.2" textLength="12.2" clip-path="url(#terminal-3898939857-line-3)">┃</text><text class="terminal-3898939857-r4" x="73.2" y="93.2" textLength="12.2" clip-path="url(#terminal-3898939857-line-3)">⭘</text><text class="terminal-3898939857-r5" x="439.2" y="93.2" textLength="73.2" clip-path="url(#terminal-3898939857-line-3)">aicage</text><text class="terminal-3898939857-r6" x="524.6" y="93.2" textLength="219.6" clip-path="url(#terminal-3898939857-line-3)">—&#160;container&#160;config</text><text class="terminal-3898939857-r3" x="1183.4" y="93.2" textLength="12.2" clip-path="url(#terminal-3898939857-line-3)">┃</text><text class="terminal-3898939857-r2" x="1220" y="93.2" textLength="12.2" clip-path="url(#terminal-3898939857-line-3)">
</text><text class="terminal-3898939857-r3" x="24.4" y="117.6" textLength="12.2" clip-path="url(#terminal-3898939857-line-4)">┃</text><text class="terminal-3898939857-r3" x="1183.4" y="117.6" textLength="12.2" clip-path="url(#terminal-3898939857-line-4)">┃</text><text class="terminal-3898939857-r2" x="1220" y="117.6" textLength="12.2" clip-path="url(#terminal-3898939857-line-4)">
</text><text class="terminal-3898939857-r3" x="24.4" y="142" textLength="12.2" clip-path="url(#terminal-3898939857-line-5)">┃</text><text class="terminal-3898939857-r7" x="61" y="142" textLength="207.4" clip-path="url(#terminal-3898939857-line-5)">Choose&#160;Extensions</text><text class="terminal-3898939857-r3" x="1183.4" y="142" textLength="12.2" clip-path="url(#terminal-3898939857-line-5)">┃</text><text class="terminal-3898939857-r2" x="1220" y="142" textLength="12.2" clip-path="url(#terminal-3898939857-line-5)">
</text><text class="terminal-3898939857-r3" x="24.4" y="166.4" textLength="12.2" clip-path="url(#terminal-3898939857-line-6)">┃</text><text class="terminal-3898939857-r8" x="61" y="166.4" textLength="695.4" clip-path="url(#terminal-3898939857-line-6)">Optional&#160;extensions&#160;are&#160;loaded&#160;from&#160;$HOME/.aicage-custom.</text><text class="terminal-3898939857-r3" x="1183.4" y="166.4" textLength="12.2" clip-path="url(#terminal-3898939857-line-6)">┃</text><text class="terminal-3898939857-r2" x="1220" y="166.4" textLength="12.2" clip-path="url(#terminal-3898939857-line-6)">
</text><text class="terminal-3898939857-r3" x="24.4" y="190.8" textLength="12.2" clip-path="url(#terminal-3898939857-line-7)">┃</text><text class="terminal-3898939857-r3" x="1183.4" y="190.8" textLength="12.2" clip-path="url(#terminal-3898939857-line-7)">┃</text><text class="terminal-3898939857-r2" x="1220" y="190.8" textLength="12.2" clip-path="url(#terminal-3898939857-line-7)">
</text><text class="terminal-3898939857-r3" x="24.4" y="215.2" textLength="12.2" clip-path="url(#terminal-3898939857-line-8)">┃</text><text class="terminal-3898939857-r7" x="61" y="215.2" textLength="402.6" clip-path="url(#terminal-3898939857-line-8)">No&#160;optional&#160;extensions&#160;available.</text><text class="terminal-3898939857-r3" x="1183.4" y="215.2" textLength="12.2" clip-path="url(#terminal-3898939857-line-8)">┃</text><text class="terminal-3898939857-r2" x="1220" y="215.2" textLength="12.2" clip-path="url(#terminal-3898939857-line-8)">
</text><text class="terminal-3898939857-r3" x="24.4" y="239.6" textLength="12.2" clip-path="url(#terminal-3898939857-line-9)">┃</text><text class="terminal-3898939857-r8" x="61" y="239.6" textLength="207.4" clip-path="url(#terminal-3898939857-line-9)">Get&#160;samples&#160;with:</text><text class="terminal-3898939857-r3" x="1183.4" y="239.6" textLength="12.2" clip-path="url(#terminal-3898939857-line-9)">┃</text><text class="terminal-3898939857-r2" x="1220" y="239.6" textLength="12.2" clip-path="url(#terminal-3898939857-line-9)">
</text><text class="terminal-3898939857-r3" x="24.4" y="264" textLength="12.2" clip-path="url(#terminal-3898939857-line-10)">┃</text><text class="terminal-3898939857-r3" x="61" y="264" textLength="12.2" clip-path="url(#terminal-3898939857-line-10)">╭</text><text class="terminal-3898939857-r3" x="73.2" y="264" textLength="1073.6" clip-path="url(#terminal-3898939857-line-10)">────────────────────────────────────────────────────────────────────────────────────────</text><text class="terminal-3898939857-r3" x="1146.8" y="264" textLength="12.2" clip-path="url(#terminal-3898939857-line-10)">╮</text><text class="terminal-3898939857-r3" x="1183.4" y="264" textLength="12.2" clip-path="url(#terminal-3898939857-line-10)">┃</text><text class="terminal-3898939857-r2" x="1220" y="264" textLength="12.2" clip-path="url(#terminal-3898939857-line-10)">
</text><text class="terminal-3898939857-r3" x="24.4" y="288.4" textLength="12.2" clip-path="url(#terminal-3898939857-line-11)">┃</text><text class="terminal-3898939857-r3" x="61" y="288.4" textLength="12.2" clip-path="url(#terminal-3898939857-line-11)">│</text><text class="terminal-3898939857-r9" x="85.4" y="288.4" textLength="1012.6" clip-path="url(#terminal-3898939857-line-11)">git&#160;clone&#160;https://github.com/aicage/aicage-custom-samples.git&#160;$HOME/.aicage-custom&#160;</text><text class="terminal-3898939857-r3" x="1146.8" y="288.4" textLength="12.2" clip-path="url(#terminal-3898939857-line-11)">│</text><text class="terminal-3898939857-r3" x="1183.4" y="288.4" textLength="12.2" clip-path="url(#terminal-3898939857-line-11)">┃</text><text class="terminal-3898939857-r2" x="1220" y="288.4" textLength="12.2" clip-path="url(#terminal-3898939857-line-11)">
</text><text class="terminal-3898939857-r3" x="24.4" y="312.8" textLength="12.2" clip-path="url(#terminal-3898939857-line-12)">┃</text><text class="terminal-3898939857-r3" x="61" y="312.8" textLength="12.2" clip-path="url(#terminal-3898939857-line-12)">╰</text><text class="terminal-3898939857-r3" x="73.2" y="312.8" textLength="1073.6" clip-path="url(#terminal-3898939857-line-12)">────────────────────────────────────────────────────────────────────────────────────────</text><text class="terminal-3898939857-r3" x="1146.8" y="312.8" textLength="12.2" clip-path="url(#terminal-3898939857-line-12)">╯</text><text class="terminal-3898939857-r3" x="1183.4" y="312.8" textLength="12.2" clip-path="url(#terminal-3898939857-line-12)">┃</text><text class="terminal-3898939857-r2" x="1220" y="312.8" textLength="12.2" clip-path="url(#terminal-3898939857-line-12)">
</text><text class="terminal-3898939857-r3" x="24.4" y="337.2" textLength="12.2" clip-path="url(#terminal-3898939857-line-13)">┃</text><text class="terminal-3898939857-r3" x="1183.4" y="337.2" textLength="12.2" clip-path="url(#terminal-3898939857-line-13)">┃</text><text class="terminal-3898939857-r2" x="1220" y="337.2" textLength="12.2" clip-path="url(#terminal-3898939857-line-13)">
</text><text class="terminal-3898939857-r3" x="24.4" y="361.6" textLength="12.2" clip-path="url(#terminal-3898939857-line-14)">┃</text><text class="terminal-3898939857-r10" x="890.6" y="361.6" textLength="170.8" clip-path="url(#terminal-3898939857-line-14)">&#160;Copy&#160;Command&#160;</text><text class="terminal-3898939857-r11" x="1073.6" y="361.6" textLength="73.2" clip-path="url(#terminal-3898939857-line-14)">&#160;Back&#160;</text><text class="terminal-3898939857-r3" x="1183.4" y="361.6" textLength="12.2" clip-path="url(#terminal-3898939857-line-14)">┃</text><text class="terminal-3898939857-r2" x="1220" y="361.6" textLength="12.2" clip-path="url(#terminal-3898939857-line-14)">
</text><text class="terminal-3898939857-r3" x="24.4" y="386" textLength="12.2" clip-path="url(#terminal-3898939857-line-15)">┗</text><text class="terminal-3898939857-r3" x="36.6" y="386" textLength="1146.8" clip-path="url(#terminal-3898939857-line-15)">━━━━━━━━━━━━━━━━━━━━━━━━━━━━━━━━━━━━━━━━━━━━━━━━━━━━━━━━━━━━━━━━━━━━━━━━━━━━━━━━━━━━━━━━━━━━━━</text><text class="terminal-3898939857-r3" x="1183.4" y="386" textLength="12.2" clip-path="url(#terminal-3898939857-line-15)">┛</text><text class="terminal-3898939857-r2" x="1220" y="386" textLength="12.2" clip-path="url(#terminal-3898939857-line-15)">
</text><text class="terminal-3898939857-r1" x="0" y="410.4" textLength="1220" clip-path="url(#terminal-3898939857-line-16)">▁▁▁▁▁▁▁▁▁▁▁▁▁▁▁▁▁▁▁▁▁▁▁▁▁▁▁▁▁▁▁▁▁▁▁▁▁▁▁▁▁▁▁▁▁▁▁▁▁▁▁▁▁▁▁▁▁▁▁▁▁▁▁▁▁▁▁▁▁▁▁▁▁▁▁▁▁▁▁▁▁▁▁▁▁▁▁▁▁▁▁▁▁▁▁▁▁▁▁▁</text>
    </g>
    </g>
</svg>
