<svg class="rich-terminal" viewBox="0 0 1190 586.8" xmlns="http://www.w3.org/2000/svg">
    <!-- Generated with Rich https://www.textualize.io -->
    <style>

    @font-face {
        font-family: "Fira Code";
        src: local("FiraCode-Regular"),
                url("https://cdnjs.cloudflare.com/ajax/libs/firacode/6.2.0/woff2/FiraCode-Regular.woff2") format("woff2"),
                url("https://cdnjs.cloudflare.com/ajax/libs/firacode/6.2.0/woff/FiraCode-Regular.woff") format("woff");
        font-style: normal;
        font-weight: 400;
    }
    @font-face {
        font-family: "Fira Code";
        src: local("FiraCode-Bold"),
                url("https://cdnjs.cloudflare.com/ajax/libs/firacode/6.2.0/woff2/FiraCode-Bold.woff2") format("woff2"),
                url("https://cdnjs.cloudflare.com/ajax/libs/firacode/6.2.0/woff/FiraCode-Bold.woff") format("woff");
        font-style: bold;
        font-weight: 700;
    }

    .terminal-365327485-matrix {
        font-family: Fira Code, monospace;
        font-size: 20px;
        line-height: 24.4px;
        font-variant-east-asian: full-width;
    }

    .terminal-365327485-title {
        font-size: 18px;
        font-weight: bold;
        font-family: arial;
    }

    .terminal-365327485-r1 { fill: #c5c8c6 }
.terminal-365327485-r2 { fill: #0178d4 }
.terminal-365327485-r3 { fill: #e1e1e1 }
.terminal-365327485-r4 { fill: #e1e1e1;font-weight: bold }
.terminal-365327485-r5 { fill: #9e9e9e }
.terminal-365327485-r6 { fill: #e0e0e0;font-weight: bold }
.terminal-365327485-r7 { fill: #e3e3e3;font-weight: bold }
.terminal-365327485-r8 { fill: #a5a5a5 }
.terminal-365327485-r9 { fill: #1e1e1e;font-weight: bold }
.terminal-365327485-r10 { fill: #242f38 }
.terminal-365327485-r11 { fill: #8ad4a1 }
.terminal-365327485-r12 { fill: #e0e0e0 }
.terminal-365327485-r13 { fill: #000f18 }
.terminal-365327485-r14 { fill: #0c7dd4;font-weight: bold }
    </style>

    <defs>
    <clipPath id="terminal-365327485-clip-terminal">
      <rect x="0" y="0" width="1170.1999999999998" height="535.8" />
    </clipPath>
    <clipPath id="terminal-365327485-line-0">
    <rect x="0" y="1.5" width="1171.2" height="24.65"/>
            </clipPath>
<clipPath id="terminal-365327485-line-1">
    <rect x="0" y="25.9" width="1171.2" height="24.65"/>
            </clipPath>
<clipPath id="terminal-365327485-line-2">
    <rect x="0" y="50.3" width="1171.2" height="24.65"/>
            </clipPath>
<clipPath id="terminal-365327485-line-3">
    <rect x="0" y="74.7" width="1171.2" height="24.65"/>
            </clipPath>
<clipPath id="terminal-365327485-line-4">
    <rect x="0" y="99.1" width="1171.2" height="24.65"/>
            </clipPath>
<clipPath id="terminal-365327485-line-5">
    <rect x="0" y="123.5" width="1171.2" height="24.65"/>
            </clipPath>
<clipPath id="terminal-365327485-line-6">
    <rect x="0" y="147.9" width="1171.2" height="24.65"/>
            </clipPath>
<clipPath id="terminal-365327485-line-7">
    <rect x="0" y="172.3" width="1171.2" height="24.65"/>
            </clipPath>
<clipPath id="terminal-365327485-line-8">
    <rect x="0" y="196.7" width="1171.2" height="24.65"/>
            </clipPath>
<clipPath id="terminal-365327485-line-9">
    <rect x="0" y="221.1" width="1171.2" height="24.65"/>
            </clipPath>
<clipPath id="terminal-365327485-line-10">
    <rect x="0" y="245.5" width="1171.2" height="24.65"/>
            </clipPath>
<clipPath id="terminal-365327485-line-11">
    <rect x="0" y="269.9" width="1171.2" height="24.65"/>
            </clipPath>
<clipPath id="terminal-365327485-line-12">
    <rect x="0" y="294.3" width="1171.2" height="24.65"/>
            </clipPath>
<clipPath id="terminal-365327485-line-13">
    <rect x="0" y="318.7" width="1171.2" height="24.65"/>
            </clipPath>
<clipPath id="terminal-365327485-line-14">
    <rect x="0" y="343.1" width="1171.2" height="24.65"/>
            </clipPath>
<clipPath id="terminal-365327485-line-15">
    <rect x="0" y="367.5" width="1171.2" height="24.65"/>
            </clipPath>
<clipPath id="terminal-365327485-line-16">
    <rect x="0" y="391.9" width="1171.2" height="24.65"/>
            </clipPath>
<clipPath id="terminal-365327485-line-17">
    <rect x="0" y="416.3" width="1171.2" height="24.65"/>
            </clipPath>
<clipPath id="terminal-365327485-line-18">
    <rect x="0" y="440.7" width="1171.2" height="24.65"/>
            </clipPath>
<clipPath id="terminal-365327485-line-19">
    <rect x="0" y="465.1" width="1171.2" height="24.65"/>
            </clipPath>
<clipPath id="terminal-365327485-line-20">
    <rect x="0" y="489.5" width="1171.2" height="24.65"/>
            </clipPath>
    </defs>

    <rect fill="#292929" stroke="rgba(255,255,255,0.35)" stroke-width="1" x="1" y="1" width="1188" height="584.8" rx="8"/><text class="terminal-365327485-title" fill="#c5c8c6" text-anchor="middle" x="594" y="27">aicage</text>
            <g transform="translate(26,22)">
            <circle cx="0" cy="0" r="7" fill="#ff5f57"/>
            <circle cx="22" cy="0" r="7" fill="#febc2e"/>
            <circle cx="44" cy="0" r="7" fill="#28c840"/>
            </g>
        
    <g transform="translate(9, 41)" clip-path="url(#terminal-365327485-clip-terminal)">
    <rect fill="#121212" x="0" y="1.5" width="24.4" height="24.65" shape-rendering="crispEdges"/><rect fill="#1e1e1e" x="24.4" y="1.5" width="12.2" height="24.65" shape-rendering="crispEdges"/><rect fill="#1e1e1e" x="36.6" y="1.5" width="1098" height="24.65" shape-rendering="crispEdges"/><rect fill="#1e1e1e" x="1134.6" y="1.5" width="12.2" height="24.65" shape-rendering="crispEdges"/><rect fill="#121212" x="1146.8" y="1.5" width="24.4" height="24.65" shape-rendering="crispEdges"/><rect fill="#121212" x="0" y="25.9" width="24.4" height="24.65" shape-rendering="crispEdges"/><rect fill="#1e1e1e" x="24.4" y="25.9" width="12.2" height="24.65" shape-rendering="crispEdges"/><rect fill="#1e1e1e" x="36.6" y="25.9" width="24.4" height="24.65" shape-rendering="crispEdges"/><rect fill="#1e1e1e" x="61" y="25.9" width="12.2" height="24.65" shape-rendering="crispEdges"/><rect fill="#1e1e1e" x="73.2" y="25.9" width="12.2" height="24.65" shape-rendering="crispEdges"/><rect fill="#1e1e1e" x="85.4" y="25.9" width="61" height="24.65" shape-rendering="crispEdges"/><rect fill="#1e1e1e" x="146.4" y="25.9" width="12.2" height="24.65" shape-rendering="crispEdges"/><rect fill="#1e1e1e" x="158.6" y="25.9" width="256.2" height="24.65" shape-rendering="crispEdges"/><rect fill="#1e1e1e" x="414.8" y="25.9" width="73.2" height="24.65" shape-rendering="crispEdges"/><rect fill="#1e1e1e" x="488" y="25.9" width="12.2" height="24.65" shape-rendering="crispEdges"/><rect fill="#1e1e1e" x="500.2" y="25.9" width="219.6" height="24.65" shape-rendering="crispEdges"/><rect fill="#1e1e1e" x="719.8" y="25.9" width="268.4" height="24.65" shape-rendering="crispEdges"/><rect fill="#1e1e1e" x="988.2" y="25.9" width="12.2" height="24.65" shape-rendering="crispEdges"/><rect fill="#1e1e1e" x="1000.4" y="25.9" width="0" height="24.65" shape-rendering="crispEdges"/><rect fill="#1e1e1e" x="1000.4" y="25.9" width="97.6" height="24.65" shape-rendering="crispEdges"/><rect fill="#1e1e1e" x="1098" y="25.9" width="12.2" height="24.65" shape-rendering="crispEdges"/><rect fill="#1e1e1e" x="1110.2" y="25.9" width="24.4" height="24.65" shape-rendering="crispEdges"/><rect fill="#1e1e1e" x="1134.6" y="25.9" width="12.2" height="24.65" shape-rendering="crispEdges"/><rect fill="#121212" x="1146.8" y="25.9" width="24.4" height="24.65" shape-rendering="crispEdges"/><rect fill="#121212" x="0" y="50.3" width="24.4" height="24.65" shape-rendering="crispEdges"/><rect fill="#1e1e1e" x="24.4" y="50.3" width="12.2" height="24.65" shape-rendering="crispEdges"/><rect fill="#1e1e1e" x="36.6" y="50.3" width="24.4" height="24.65" shape-rendering="crispEdges"/><rect fill="#1e1e1e" x="61" y="50.3" width="1049.2" height="24.65" shape-rendering="crispEdges"/><rect fill="#1e1e1e" x="1110.2" y="50.3" width="24.4" height="24.65" shape-rendering="crispEdges"/><rect fill="#1e1e1e" x="1134.6" y="50.3" width="12.2" height="24.65" shape-rendering="crispEdges"/><rect fill="#121212" x="1146.8" y="50.3" width="24.4" height="24.65" shape-rendering="crispEdges"/><rect fill="#121212" x="0" y="74.7" width="24.4" height="24.65" shape-rendering="crispEdges"/><rect fill="#1e1e1e" x="24.4" y="74.7" width="12.2" height="24.65" shape-rendering="crispEdges"/><rect fill="#1e1e1e" x="36.6" y="74.7" width="24.4" height="24.65" shape-rendering="crispEdges"/><rect fill="#1e1e1e" x="61" y="74.7" width="170.8" height="24.65" shape-rendering="crispEdges"/><rect fill="#1e1e1e" x="231.8" y="74.7" width="878.4" height="24.65" shape-rendering="crispEdges"/><rect fill="#1e1e1e" x="1110.2" y="74.7" width="24.4" height="24.65" shape-rendering="crispEdges"/><rect fill="#1e1e1e" x="1134.6" y="74.7" width="12.2" height="24.65" shape-rendering="crispEdges"/><rect fill="#121212" x="1146.8" y="74.7" width="24.4" height="24.65" shape-rendering="crispEdges"/><rect fill="#121212" x="0" y="99.1" width="24.4" height="24.65" shape-rendering="crispEdges"/><rect fill="#1e1e1e" x="24.4" y="99.1" width="12.2" height="24.65" shape-rendering="crispEdges"/><rect fill="#1e1e1e" x="36.6" y="99.1" width="24.4" height="24.65" shape-rendering="crispEdges"/><rect fill="#1e1e1e" x="61" y="99.1" width="414.8" height="24.65" shape-rendering="crispEdges"/><rect fill="#1e1e1e" x="475.8" y="99.1" width="634.4" height="24.65" shape-rendering="crispEdges"/><rect fill="#1e1e1e" x="1110.2" y="99.1" width="24.4" height="24.65" shape-rendering="crispEdges"/><rect fill="#1e1e1e" x="1134.6" y="99.1" width="12.2" height="24.65" shape-rendering="crispEdges"/><rect fill="#121212" x="1146.8" y="99.1" width="24.4" height="24.65" shape-rendering="crispEdges"/><rect fill="#121212" x="0" y="123.5" width="24.4" height="24.65" shape-rendering="crispEdges"/><rect fill="#1e1e1e" x="24.4" y="123.5" width="12.2" height="24.65" shape-rendering="crispEdges"/><rect fill="#1e1e1e" x="36.6" y="123.5" width="24.4" height="24.65" shape-rendering="crispEdges"/><rect fill="#1e1e1e" x="61" y="123.5" width="1049.2" height="24.65" shape-rendering="crispEdges"/><rect fill="#1e1e1e" x="1110.2" y="123.5" width="24.4" height="24.65" shape-rendering="crispEdges"/><rect fill="#1e1e1e" x="1134.6" y="123.5" width="12.2" height="24.65" shape-rendering="crispEdges"/><rect fill="#121212" x="1146.8" y="123.5" width="24.4" height="24.65" shape-rendering="crispEdges"/><rect fill="#121212" x="0" y="147.9" width="24.4" height="24.65" shape-rendering="crispEdges"/><rect fill="#1e1e1e" x="24.4" y="147.9" width="12.2" height="24.65" shape-rendering="crispEdges"/><rect fill="#1e1e1e" x="36.6" y="147.9" width="24.4" height="24.65" shape-rendering="crispEdges"/><rect fill="#2d2d2d" x="61" y="147.9" width="341.6" height="24.65" shape-rendering="crispEdges"/><rect fill="#1e1e1e" x="402.6" y="147.9" width="12.2" height="24.65" shape-rendering="crispEdges"/><rect fill="#2d2d2d" x="414.8" y="147.9" width="341.6" height="24.65" shape-rendering="crispEdges"/><rect fill="#1e1e1e" x="756.4" y="147.9" width="12.2" height="24.65" shape-rendering="crispEdges"/><rect fill="#2d2d2d" x="768.6" y="147.9" width="341.6" height="24.65" shape-rendering="crispEdges"/><rect fill="#1e1e1e" x="1110.2" y="147.9" width="24.4" height="24.65" shape-rendering="crispEdges"/><rect fill="#1e1e1e" x="1134.6" y="147.9" width="12.2" height="24.65" shape-rendering="crispEdges"/><rect fill="#121212" x="1146.8" y="147.9" width="24.4" height="24.65" shape-rendering="crispEdges"/><rect fill="#121212" x="0" y="172.3" width="24.4" height="24.65" shape-rendering="crispEdges"/><rect fill="#1e1e1e" x="24.4" y="172.3" width="12.2" height="24.65" shape-rendering="crispEdges"/><rect fill="#1e1e1e" x="36.6" y="172.3" width="24.4" height="24.65" shape-rendering="crispEdges"/><rect fill="#2d2d2d" x="61" y="172.3" width="97.6" height="24.65" shape-rendering="crispEdges"/><rect fill="#2d2d2d" x="158.6" y="172.3" width="146.4" height="24.65" shape-rendering="crispEdges"/><rect fill="#2d2d2d" x="305" y="172.3" width="97.6" height="24.65" shape-rendering="crispEdges"/><rect fill="#1e1e1e" x="402.6" y="172.3" width="12.2" height="24.65" shape-rendering="crispEdges"/><rect fill="#2d2d2d" x="414.8" y="172.3" width="85.4" height="24.65" shape-rendering="crispEdges"/><rect fill="#2d2d2d" x="500.2" y="172.3" width="158.6" height="24.65" shape-rendering="crispEdges"/><rect fill="#2d2d2d" x="658.8" y="172.3" width="97.6" height="24.65" shape-rendering="crispEdges"/><rect fill="#1e1e1e" x="756.4" y="172.3" width="12.2" height="24.65" shape-rendering="crispEdges"/><rect fill="#2d2d2d" x="768.6" y="172.3" width="134.2" height="24.65" shape-rendering="crispEdges"/><rect fill="#2d2d2d" x="902.8" y="172.3" width="73.2" height="24.65" shape-rendering="crispEdges"/><rect fill="#2d2d2d" x="976" y="172.3" width="134.2" height="24.65" shape-rendering="crispEdges"/><rect fill="#1e1e1e" x="1110.2" y="172.3" width="24.4" height="24.65" shape-rendering="crispEdges"/><rect fill="#1e1e1e" x="1134.6" y="172.3" width="12.2" height="24.65" shape-rendering="crispEdges"/><rect fill="#121212" x="1146.8" y="172.3" width="24.4" height="24.65" shape-rendering="crispEdges"/><rect fill="#121212" x="0" y="196.7" width="24.4" height="24.65" shape-rendering="crispEdges"/><rect fill="#1e1e1e" x="24.4" y="196.7" width="12.2" height="24.65" shape-rendering="crispEdges"/><rect fill="#1e1e1e" x="36.6" y="196.7" width="24.4" height="24.65" shape-rendering="crispEdges"/><rect fill="#2d2d2d" x="61" y="196.7" width="97.6" height="24.65" shape-rendering="crispEdges"/><rect fill="#2d2d2d" x="158.6" y="196.7" width="146.4" height="24.65" shape-rendering="crispEdges"/><rect fill="#2d2d2d" x="305" y="196.7" width="97.6" height="24.65" shape-rendering="crispEdges"/><rect fill="#1e1e1e" x="402.6" y="196.7" width="12.2" height="24.65" shape-rendering="crispEdges"/><rect fill="#2d2d2d" x="414.8" y="196.7" width="134.2" height="24.65" shape-rendering="crispEdges"/><rect fill="#2d2d2d" x="549" y="196.7" width="61" height="24.65" shape-rendering="crispEdges"/><rect fill="#2d2d2d" x="610" y="196.7" width="146.4" height="24.65" shape-rendering="crispEdges"/><rect fill="#1e1e1e" x="756.4" y="196.7" width="12.2" height="24.65" shape-rendering="crispEdges"/><rect fill="#2d2d2d" x="768.6" y="196.7" width="122" height="24.65" shape-rendering="crispEdges"/><rect fill="#2d2d2d" x="890.6" y="196.7" width="97.6" height="24.65" shape-rendering="crispEdges"/><rect fill="#2d2d2d" x="988.2" y="196.7" width="122" height="24.65" shape-rendering="crispEdges"/><rect fill="#1e1e1e" x="1110.2" y="196.7" width="24.4" height="24.65" shape-rendering="crispEdges"/><rect fill="#1e1e1e" x="1134.6" y="196.7" width="12.2" height="24.65" shape-rendering="crispEdges"/><rect fill="#121212" x="1146.8" y="196.7" width="24.4" height="24.65" shape-rendering="crispEdges"/><rect fill="#121212" x="0" y="221.1" width="24.4" height="24.65" shape-rendering="crispEdges"/><rect fill="#1e1e1e" x="24.4" y="221.1" width="12.2" height="24.65" shape-rendering="crispEdges"/><rect fill="#1e1e1e" x="36.6" y="221.1" width="24.4" height="24.65" shape-rendering="crispEdges"/><rect fill="#2d2d2d" x="61" y="221.1" width="341.6" height="24.65" shape-rendering="crispEdges"/><rect fill="#1e1e1e" x="402.6" y="221.1" width="12.2" height="24.65" shape-rendering="crispEdges"/><rect fill="#2d2d2d" x="414.8" y="221.1" width="341.6" height="24.65" shape-rendering="crispEdges"/><rect fill="#1e1e1e" x="756.4" y="221.1" width="12.2" height="24.65" shape-rendering="crispEdges"/><rect fill="#2d2d2d" x="768.6" y="221.1" width="341.6" height="24.65" shape-rendering="crispEdges"/><rect fill="#1e1e1e" x="1110.2" y="221.1" width="24.4" height="24.65" shape-rendering="crispEdges"/><rect fill="#1e1e1e" x="1134.6" y="221.1" width="12.2" height="24.65" shape-rendering="crispEdges"/><rect fill="#121212" x="1146.8" y="221.1" width="24.4" height="24.65" shape-rendering="crispEdges"/><rect fill="#121212" x="0" y="245.5" width="24.4" height="24.65" shape-rendering="crispEdges"/><rect fill="#1e1e1e" x="24.4" y="245.5" width="12.2" height="24.65" shape-rendering="crispEdges"/><rect fill="#1e1e1e" x="36.6" y="245.5" width="24.4" height="24.65" shape-rendering="crispEdges"/><rect fill="#1e1e1e" x="61" y="245.5" width="1049.2" height="24.65" shape-rendering="crispEdges"/><rect fill="#1e1e1e" x="1110.2" y="245.5" width="24.4" height="24.65" shape-rendering="crispEdges"/><rect fill="#1e1e1e" x="1134.6" y="245.5" width="12.2" height="24.65" shape-rendering="crispEdges"/><rect fill="#121212" x="1146.8" y="245.5" width="24.4" height="24.65" shape-rendering="crispEdges"/><rect fill="#121212" x="0" y="269.9" width="24.4" height="24.65" shape-rendering="crispEdges"/><rect fill="#1e1e1e" x="24.4" y="269.9" width="12.2" height="24.65" shape-rendering="crispEdges"/><rect fill="#1e1e1e" x="36.6" y="269.9" width="24.4" height="24.65" shape-rendering="crispEdges"/><rect fill="#1e1e1e" x="61" y="269.9" width="134.2" height="24.65" shape-rendering="crispEdges"/><rect fill="#1e1e1e" x="195.2" y="269.9" width="12.2" height="24.65" shape-rendering="crispEdges"/><rect fill="#0178d4" x="207.4" y="269.9" width="36.6" height="24.65" shape-rendering="crispEdges"/><rect fill="#1e1e1e" x="244" y="269.9" width="866.2" height="24.65" shape-rendering="crispEdges"/><rect fill="#1e1e1e" x="1110.2" y="269.9" width="24.4" height="24.65" shape-rendering="crispEdges"/><rect fill="#1e1e1e" x="1134.6" y="269.9" width="12.2" height="24.65" shape-rendering="crispEdges"/><rect fill="#121212" x="1146.8" y="269.9" width="24.4" height="24.65" shape-rendering="crispEdges"/><rect fill="#121212" x="0" y="294.3" width="24.4" height="24.65" shape-rendering="crispEdges"/><rect fill="#1e1e1e" x="24.4" y="294.3" width="12.2" height="24.65" shape-rendering="crispEdges"/><rect fill="#1e1e1e" x="36.6" y="294.3" width="24.4" height="24.65" shape-rendering="crispEdges"/><rect fill="#1e1e1e" x="61" y="294.3" width="12.2" height="24.65" shape-rendering="crispEdges"/><rect fill="#242f38" x="73.2" y="294.3" width="12.2" height="24.65" shape-rendering="crispEdges"/><rect fill="#1e1e1e" x="85.4" y="294.3" width="12.2" height="24.65" shape-rendering="crispEdges"/><rect fill="#1e1e1e" x="97.6" y="294.3" width="12.2" height="24.65" shape-rendering="crispEdges"/><rect fill="#1e1e1e" x="109.8" y="294.3" width="451.4" height="24.65" shape-rendering="crispEdges"/><rect fill="#1e1e1e" x="561.2" y="294.3" width="549" height="24.65" shape-rendering="crispEdges"/><rect fill="#1e1e1e" x="1110.2" y="294.3" width="24.4" height="24.65" shape-rendering="crispEdges"/><rect fill="#1e1e1e" x="1134.6" y="294.3" width="12.2" height="24.65" shape-rendering="crispEdges"/><rect fill="#121212" x="1146.8" y="294.3" width="24.4" height="24.65" shape-rendering="crispEdges"/><rect fill="#121212" x="0" y="318.7" width="24.4" height="24.65" shape-rendering="crispEdges"/><rect fill="#1e1e1e" x="24.4" y="318.7" width="12.2" height="24.65" shape-rendering="crispEdges"/><rect fill="#1e1e1e" x="36.6" y="318.7" width="24.4" height="24.65" shape-rendering="crispEdges"/><rect fill="#1e1e1e" x="61" y="318.7" width="12.2" height="24.65" shape-rendering="crispEdges"/><rect fill="#242f38" x="73.2" y="318.7" width="12.2" height="24.65" shape-rendering="crispEdges"/><rect fill="#1e1e1e" x="85.4" y="318.7" width="12.2" height="24.65" shape-rendering="crispEdges"/><rect fill="#1e1e1e" x="97.6" y="318.7" width="12.2" height="24.65" shape-rendering="crispEdges"/><rect fill="#1e1e1e" x="109.8" y="318.7" width="402.6" height="24.65" shape-rendering="crispEdges"/><rect fill="#1e1e1e" x="512.4" y="318.7" width="597.8" height="24.65" shape-rendering="crispEdges"/><rect fill="#1e1e1e" x="1110.2" y="318.7" width="24.4" height="24.65" shape-rendering="crispEdges"/><rect fill="#1e1e1e" x="1134.6" y="318.7" width="12.2" height="24.65" shape-rendering="crispEdges"/><rect fill="#121212" x="1146.8" y="318.7" width="24.4" height="24.65" shape-rendering="crispEdges"/><rect fill="#121212" x="0" y="343.1" width="24.4" height="24.65" shape-rendering="crispEdges"/><rect fill="#1e1e1e" x="24.4" y="343.1" width="12.2" height="24.65" shape-rendering="crispEdges"/><rect fill="#1e1e1e" x="36.6" y="343.1" width="24.4" height="24.65" shape-rendering="crispEdges"/><rect fill="#1e1e1e" x="61" y="343.1" width="12.2" height="24.65" shape-rendering="crispEdges"/><rect fill="#242f38" x="73.2" y="343.1" width="12.2" height="24.65" shape-rendering="crispEdges"/><rect fill="#1e1e1e" x="85.4" y="343.1" width="12.2" height="24.65" shape-rendering="crispEdges"/><rect fill="#1e1e1e" x="97.6" y="343.1" width="12.2" height="24.65" shape-rendering="crispEdges"/><rect fill="#1e1e1e" x="109.8" y="343.1" width="451.4" height="24.65" shape-rendering="crispEdges"/><rect fill="#1e1e1e" x="561.2" y="343.1" width="549" height="24.65" shape-rendering="crispEdges"/><rect fill="#1e1e1e" x="1110.2" y="343.1" width="24.4" height="24.65" shape-rendering="crispEdges"/><rect fill="#1e1e1e" x="1134.6" y="343.1" width="12.2" height="24.65" shape-rendering="crispEdges"/><rect fill="#121212" x="1146.8" y="343.1" width="24.4" height="24.65" shape-rendering="crispEdges"/><rect fill="#121212" x="0" y="367.5" width="24.4" height="24.65" shape-rendering="crispEdges"/><rect fill="#1e1e1e" x="24.4" y="367.5" width="12.2" height="24.65" shape-rendering="crispEdges"/><rect fill="#1e1e1e" x="36.6" y="367.5" width="24.4" height="24.65" shape-rendering="crispEdges"/><rect fill="#1e1e1e" x="61" y="367.5" width="12.2" height="24.65" shape-rendering="crispEdges"/><rect fill="#242f38" x="73.2" y="367.5" width="12.2" height="24.65" shape-rendering="crispEdges"/><rect fill="#1e1e1e" x="85.4" y="367.5" width="12.2" height="24.65" shape-rendering="crispEdges"/><rect fill="#1e1e1e" x="97.6" y="367.5" width="12.2" height="24.65" shape-rendering="crispEdges"/><rect fill="#1e1e1e" x="109.8" y="367.5" width="268.4" height="24.65" shape-rendering="crispEdges"/><rect fill="#1e1e1e" x="378.2" y="367.5" width="732" height="24.65" shape-rendering="crispEdges"/><rect fill="#1e1e1e" x="1110.2" y="367.5" width="24.4" height="24.65" shape-rendering="crispEdges"/><rect fill="#1e1e1e" x="1134.6" y="367.5" width="12.2" height="24.65" shape-rendering="crispEdges"/><rect fill="#121212" x="1146.8" y="367.5" width="24.4" height="24.65" shape-rendering="crispEdges"/><rect fill="#121212" x="0" y="391.9" width="24.4" height="24.65" shape-rendering="crispEdges"/><rect fill="#1e1e1e" x="24.4" y="391.9" width="12.2" height="24.65" shape-rendering="crispEdges"/><rect fill="#1e1e1e" x="36.6" y="391.9" width="24.4" height="24.65" shape-rendering="crispEdges"/><rect fill="#1e1e1e" x="61" y="391.9" width="12.2" height="24.65" shape-rendering="crispEdges"/><rect fill="#242f38" x="73.2" y="391.9" width="12.2" height="24.65" shape-rendering="crispEdges"/><rect fill="#1e1e1e" x="85.4" y="391.9" width="12.2" height="24.65" shape-rendering="crispEdges"/><rect fill="#1e1e1e" x="97.6" y="391.9" width="12.2" height="24.65" shape-rendering="crispEdges"/><rect fill="#1e1e1e" x="109.8" y="391.9" width="292.8" height="24.65" shape-rendering="crispEdges"/><rect fill="#1e1e1e" x="402.6" y="391.9" width="707.6" height="24.65" shape-rendering="crispEdges"/><rect fill="#1e1e1e" x="1110.2" y="391.9" width="24.4" height="24.65" shape-rendering="crispEdges"/><rect fill="#1e1e1e" x="1134.6" y="391.9" width="12.2" height="24.65" shape-rendering="crispEdges"/><rect fill="#121212" x="1146.8" y="391.9" width="24.4" height="24.65" shape-rendering="crispEdges"/><rect fill="#121212" x="0" y="416.3" width="24.4" height="24.65" shape-rendering="crispEdges"/><rect fill="#1e1e1e" x="24.4" y="416.3" width="12.2" height="24.65" shape-rendering="crispEdges"/><rect fill="#1e1e1e" x="36.6" y="416.3" width="24.4" height="24.65" shape-rendering="crispEdges"/><rect fill="#1e1e1e" x="61" y="416.3" width="73.2" height="24.65" shape-rendering="crispEdges"/><rect fill="#1e1e1e" x="134.2" y="416.3" width="976" height="24.65" shape-rendering="crispEdges"/><rect fill="#1e1e1e" x="1110.2" y="416.3" width="24.4" height="24.65" shape-rendering="crispEdges"/><rect fill="#1e1e1e" x="1134.6" y="416.3" width="12.2" height="24.65" shape-rendering="crispEdges"/><rect fill="#121212" x="1146.8" y="416.3" width="24.4" height="24.65" shape-rendering="crispEdges"/><rect fill="#121212" x="0" y="440.7" width="24.4" height="24.65" shape-rendering="crispEdges"/><rect fill="#1e1e1e" x="24.4" y="440.7" width="12.2" height="24.65" shape-rendering="crispEdges"/><rect fill="#1e1e1e" x="36.6" y="440.7" width="24.4" height="24.65" shape-rendering="crispEdges"/><rect fill="#1e1e1e" x="61" y="440.7" width="12.2" height="24.65" shape-rendering="crispEdges"/><rect fill="#242f38" x="73.2" y="440.7" width="12.2" height="24.65" shape-rendering="crispEdges"/><rect fill="#1e1e1e" x="85.4" y="440.7" width="12.2" height="24.65" shape-rendering="crispEdges"/><rect fill="#1e1e1e" x="97.6" y="440.7" width="12.2" height="24.65" shape-rendering="crispEdges"/><rect fill="#1e1e1e" x="109.8" y="440.7" width="158.6" height="24.65" shape-rendering="crispEdges"/><rect fill="#1e1e1e" x="268.4" y="440.7" width="841.8" height="24.65" shape-rendering="crispEdges"/><rect fill="#1e1e1e" x="1110.2" y="440.7" width="24.4" height="24.65" shape-rendering="crispEdges"/><rect fill="#1e1e1e" x="1134.6" y="440.7" width="12.2" height="24.65" shape-rendering="crispEdges"/><rect fill="#121212" x="1146.8" y="440.7" width="24.4" height="24.65" shape-rendering="crispEdges"/><rect fill="#121212" x="0" y="465.1" width="24.4" height="24.65" shape-rendering="crispEdges"/><rect fill="#1e1e1e" x="24.4" y="465.1" width="12.2" height="24.65" shape-rendering="crispEdges"/><rect fill="#1e1e1e" x="36.6" y="465.1" width="24.4" height="24.65" shape-rendering="crispEdges"/><rect fill="#1e1e1e" x="61" y="465.1" width="1049.2" height="24.65" shape-rendering="crispEdges"/><rect fill="#1e1e1e" x="1110.2" y="465.1" width="24.4" height="24.65" shape-rendering="crispEdges"/><rect fill="#1e1e1e" x="1134.6" y="465.1" width="12.2" height="24.65" shape-rendering="crispEdges"/><rect fill="#121212" x="1146.8" y="465.1" width="24.4" height="24.65" shape-rendering="crispEdges"/><rect fill="#121212" x="0" y="489.5" width="24.4" height="24.65" shape-rendering="crispEdges"/><rect fill="#1e1e1e" x="24.4" y="489.5" width="12.2" height="24.65" shape-rendering="crispEdges"/><rect fill="#1e1e1e" x="36.6" y="489.5" width="24.4" height="24.65" shape-rendering="crispEdges"/><rect fill="#1e1e1e" x="61" y="489.5" width="854" height="24.65" shape-rendering="crispEdges"/><rect fill="#1e1e1e" x="915" y="489.5" width="97.6" height="24.65" shape-rendering="crispEdges"/><rect fill="#0c7dd4" x="1012.6" y="489.5" width="24.4" height="24.65" shape-rendering="crispEdges"/><rect fill="#dfeef9" x="1037" y="489.5" width="48.8" height="24.65" shape-rendering="crispEdges"/><rect fill="#0c7dd4" x="1085.8" y="489.5" width="24.4" height="24.65" shape-rendering="crispEdges"/><rect fill="#1e1e1e" x="1110.2" y="489.5" width="24.4" height="24.65" shape-rendering="crispEdges"/><rect fill="#1e1e1e" x="1134.6" y="489.5" width="12.2" height="24.65" shape-rendering="crispEdges"/><rect fill="#121212" x="1146.8" y="489.5" width="24.4" height="24.65" shape-rendering="crispEdges"/><rect fill="#121212" x="0" y="513.9" width="24.4" height="24.65" shape-rendering="crispEdges"/><rect fill="#1e1e1e" x="24.4" y="513.9" width="12.2" height="24.65" shape-rendering="crispEdges"/><rect fill="#1e1e1e" x="36.6" y="513.9" width="1098" height="24.65" shape-rendering="crispEdges"/><rect fill="#1e1e1e" x="1134.6" y="513.9" width="12.2" height="24.65" shape-rendering="crispEdges"/><rect fill="#121212" x="1146.8" y="513.9" width="24.4" height="24.65" shape-rendering="crispEdges"/>
    <g class="terminal-365327485-matrix">
    <text class="terminal-365327485-r2" x="24.4" y="20" textLength="12.2" clip-path="url(#terminal-365327485-line-0)">┏</text><text class="terminal-365327485-r2" x="36.6" y="20" textLength="1098" clip-path="url(#terminal-365327485-line-0)">━━━━━━━━━━━━━━━━━━━━━━━━━━━━━━━━━━━━━━━━━━━━━━━━━━━━━━━━━━━━━━━━━━━━━━━━━━━━━━━━━━━━━━━━━━</text><text class="terminal-365327485-r2" x="1134.6" y="20" textLength="12.2" clip-path="url(#terminal-365327485-line-0)">┓</text><text class="terminal-365327485-r1" x="1171.2" y="20" textLength="12.2" clip-path="url(#terminal-365327485-line-0)">
</text><text class="terminal-365327485-r2" x="24.4" y="44.4" textLength="12.2" clip-path="url(#terminal-365327485-line-1)">┃</text><text class="terminal-365327485-r3" x="73.2" y="44.4" textLength="12.2" clip-path="url(#terminal-365327485-line-1)">⭘</text><text class="terminal-365327485-r4" x="414.8" y="44.4" textLength="73.2" clip-path="url(#terminal-365327485-line-1)">aicage</text><text class="terminal-365327485-r5" x="500.2" y="44.4" textLength="219.6" clip-path="url(#terminal-365327485-line-1)">—&#160;container&#160;config</text><text class="terminal-365327485-r2" x="1134.6" y="44.4" textLength="12.2" clip-path="url(#terminal-365327485-line-1)">┃</text><text class="terminal-365327485-r1" x="1171.2" y="44.4" textLength="12.2" clip-path="url(#terminal-365327485-line-1)">
</text><text class="terminal-365327485-r2" x="24.4" y="68.8" textLength="12.2" clip-path="url(#terminal-365327485-line-2)">┃</text><text class="terminal-365327485-r2" x="1134.6" y="68.8" textLength="12.2" clip-path="url(#terminal-365327485-line-2)">┃</text><text class="terminal-365327485-r1" x="1171.2" y="68.8" textLength="12.2" clip-path="url(#terminal-365327485-line-2)">
</text><text class="terminal-365327485-r2" x="24.4" y="93.2" textLength="12.2" clip-path="url(#terminal-365327485-line-3)">┃</text><text class="terminal-365327485-r6" x="61" y="93.2" textLength="170.8" clip-path="url(#terminal-365327485-line-3)">Agent:&#160;&#160;&#160;codex</text><text class="terminal-365327485-r2" x="1134.6" y="93.2" textLength="12.2" clip-path="url(#terminal-365327485-line-3)">┃</text><text class="terminal-365327485-r1" x="1171.2" y="93.2" textLength="12.2" clip-path="url(#terminal-365327485-line-3)">
</text><text class="terminal-365327485-r2" x="24.4" y="117.6" textLength="12.2" clip-path="url(#terminal-365327485-line-4)">┃</text><text class="terminal-365327485-r6" x="61" y="117.6" textLength="414.8" clip-path="url(#terminal-365327485-line-4)">Project:&#160;/tmp/workspace/my-project</text><text class="terminal-365327485-r2" x="1134.6" y="117.6" textLength="12.2" clip-path="url(#terminal-365327485-line-4)">┃</text><text class="terminal-365327485-r1" x="1171.2" y="117.6" textLength="12.2" clip-path="url(#terminal-365327485-line-4)">
</text><text class="terminal-365327485-r2" x="24.4" y="142" textLength="12.2" clip-path="url(#terminal-365327485-line-5)">┃</text><text class="terminal-365327485-r2" x="1134.6" y="142" textLength="12.2" clip-path="url(#terminal-365327485-line-5)">┃</text><text class="terminal-365327485-r1" x="1171.2" y="142" textLength="12.2" clip-path="url(#terminal-365327485-line-5)">
</text><text class="terminal-365327485-r2" x="24.4" y="166.4" textLength="12.2" clip-path="url(#terminal-365327485-line-6)">┃</text><text class="terminal-365327485-r2" x="1134.6" y="166.4" textLength="12.2" clip-path="url(#terminal-365327485-line-6)">┃</text><text class="terminal-365327485-r1" x="1171.2" y="166.4" textLength="12.2" clip-path="url(#terminal-365327485-line-6)">
</text><text class="terminal-365327485-r2" x="24.4" y="190.8" textLength="12.2" clip-path="url(#terminal-365327485-line-7)">┃</text><text class="terminal-365327485-r7" x="158.6" y="190.8" textLength="146.4" clip-path="url(#terminal-365327485-line-7)">&#160;Extensions&#160;</text><text class="terminal-365327485-r7" x="500.2" y="190.8" textLength="158.6" clip-path="url(#terminal-365327485-line-7)">&#160;Docker&#160;Args&#160;</text><text class="terminal-365327485-r7" x="902.8" y="190.8" textLength="73.2" clip-path="url(#terminal-365327485-line-7)">&#160;Base&#160;</text><text class="terminal-365327485-r2" x="1134.6" y="190.8" textLength="12.2" clip-path="url(#terminal-365327485-line-7)">┃</text><text class="terminal-365327485-r1" x="1171.2" y="190.8" textLength="12.2" clip-path="url(#terminal-365327485-line-7)">
</text><text class="terminal-365327485-r2" x="24.4" y="215.2" textLength="12.2" clip-path="url(#terminal-365327485-line-8)">┃</text><text class="terminal-365327485-r7" x="158.6" y="215.2" textLength="146.4" clip-path="url(#terminal-365327485-line-8)">&#160;1&#160;selected&#160;</text><text class="terminal-365327485-r7" x="549" y="215.2" textLength="61" clip-path="url(#terminal-365327485-line-8)">&#160;yes&#160;</text><text class="terminal-365327485-r7" x="890.6" y="215.2" textLength="97.6" clip-path="url(#terminal-365327485-line-8)">&#160;fedora&#160;</text><text class="terminal-365327485-r2" x="1134.6" y="215.2" textLength="12.2" clip-path="url(#terminal-365327485-line-8)">┃</text><text class="terminal-365327485-r1" x="1171.2" y="215.2" textLength="12.2" clip-path="url(#terminal-365327485-line-8)">
</text><text class="terminal-365327485-r2" x="24.4" y="239.6" textLength="12.2" clip-path="url(#terminal-365327485-line-9)">┃</text><text class="terminal-365327485-r2" x="1134.6" y="239.6" textLength="12.2" clip-path="url(#terminal-365327485-line-9)">┃</text><text class="terminal-365327485-r1" x="1171.2" y="239.6" textLength="12.2" clip-path="url(#terminal-365327485-line-9)">
</text><text class="terminal-365327485-r2" x="24.4" y="264" textLength="12.2" clip-path="url(#terminal-365327485-line-10)">┃</text><text class="terminal-365327485-r2" x="1134.6" y="264" textLength="12.2" clip-path="url(#terminal-365327485-line-10)">┃</text><text class="terminal-365327485-r1" x="1171.2" y="264" textLength="12.2" clip-path="url(#terminal-365327485-line-10)">
</text><text class="terminal-365327485-r2" x="24.4" y="288.4" textLength="12.2" clip-path="url(#terminal-365327485-line-11)">┃</text><text class="terminal-365327485-r8" x="61" y="288.4" textLength="134.2" clip-path="url(#terminal-365327485-line-11)">Bind&#160;Mounts</text><text class="terminal-365327485-r9" x="207.4" y="288.4" textLength="36.6" clip-path="url(#terminal-365327485-line-11)">&#160;+&#160;</text><text class="terminal-365327485-r2" x="1134.6" y="288.4" textLength="12.2" clip-path="url(#terminal-365327485-line-11)">┃</text><text class="terminal-365327485-r1" x="1171.2" y="288.4" textLength="12.2" clip-path="url(#terminal-365327485-line-11)">
</text><text class="terminal-365327485-r2" x="24.4" y="312.8" textLength="12.2" clip-path="url(#terminal-365327485-line-12)">┃</text><text class="terminal-365327485-r10" x="61" y="312.8" textLength="12.2" clip-path="url(#terminal-365327485-line-12)">▐</text><text class="terminal-365327485-r11" x="73.2" y="312.8" textLength="12.2" clip-path="url(#terminal-365327485-line-12)">X</text><text class="terminal-365327485-r10" x="85.4" y="312.8" textLength="12.2" clip-path="url(#terminal-365327485-line-12)">▌</text><text class="terminal-365327485-r12" x="109.8" y="312.8" textLength="451.4" clip-path="url(#terminal-365327485-line-12)">Git&#160;config&#160;&#160;:&#160;/home/stefan/.gitconfig</text><text class="terminal-365327485-r2" x="1134.6" y="312.8" textLength="12.2" clip-path="url(#terminal-365327485-line-12)">┃</text><text class="terminal-365327485-r1" x="1171.2" y="312.8" textLength="12.2" clip-path="url(#terminal-365327485-line-12)">
</text><text class="terminal-365327485-r2" x="24.4" y="337.2" textLength="12.2" clip-path="url(#terminal-365327485-line-13)">┃</text><text class="terminal-365327485-r10" x="61" y="337.2" textLength="12.2" clip-path="url(#terminal-365327485-line-13)">▐</text><text class="terminal-365327485-r11" x="73.2" y="337.2" textLength="12.2" clip-path="url(#terminal-365327485-line-13)">X</text><text class="terminal-365327485-r10" x="85.4" y="337.2" textLength="12.2" clip-path="url(#terminal-365327485-line-13)">▌</text><text class="terminal-365327485-r12" x="109.8" y="337.2" textLength="402.6" clip-path="url(#terminal-365327485-line-13)">GnuPG&#160;&#160;&#160;&#160;&#160;&#160;&#160;:&#160;/home/stefan/.gnupg</text><text class="terminal-365327485-r2" x="1134.6" y="337.2" textLength="12.2" clip-path="url(#terminal-365327485-line-13)">┃</text><text class="terminal-365327485-r1" x="1171.2" y="337.2" textLength="12.2" clip-path="url(#terminal-365327485-line-13)">
</text><text class="terminal-365327485-r2" x="24.4" y="361.6" textLength="12.2" clip-path="url(#terminal-365327485-line-14)">┃</text><text class="terminal-365327485-r10" x="61" y="361.6" textLength="12.2" clip-path="url(#terminal-365327485-line-14)">▐</text><text class="terminal-365327485-r11" x="73.2" y="361.6" textLength="12.2" clip-path="url(#terminal-365327485-line-14)">X</text><text class="terminal-365327485-r10" x="85.4" y="361.6" textLength="12.2" clip-path="url(#terminal-365327485-line-14)">▌</text><text class="terminal-365327485-r12" x="109.8" y="361.6" textLength="451.4" clip-path="url(#terminal-365327485-line-14)">Extension&#160;gh:&#160;/home/stefan/.config/gh</text><text class="terminal-365327485-r2" x="1134.6" y="361.6" textLength="12.2" clip-path="url(#terminal-365327485-line-14)">┃</text><text class="terminal-365327485-r1" x="1171.2" y="361.6" textLength="12.2" clip-path="url(#terminal-365327485-line-14)">
</text><text class="terminal-365327485-r2" x="24.4" y="386" textLength="12.2" clip-path="url(#terminal-365327485-line-15)">┃</text><text class="terminal-365327485-r10" x="61" y="386" textLength="12.2" clip-path="url(#terminal-365327485-line-15)">▐</text><text class="terminal-365327485-r11" x="73.2" y="386" textLength="12.2" clip-path="url(#terminal-365327485-line-15)">X</text><text class="terminal-365327485-r10" x="85.4" y="386" textLength="12.2" clip-path="url(#terminal-365327485-line-15)">▌</text><text class="terminal-365327485-r12" x="109.8" y="386" textLength="268.4" clip-path="url(#terminal-365327485-line-15)">&#160;&#160;&#160;&#160;&#160;&#160;&#160;&#160;&#160;&#160;&#160;&#160;:&#160;/foo/bar</text><text class="terminal-365327485-r2" x="1134.6" y="386" textLength="12.2" clip-path="url(#terminal-365327485-line-15)">┃</text><text class="terminal-365327485-r1" x="1171.2" y="386" textLength="12.2" clip-path="url(#terminal-365327485-line-15)">
</text><text class="terminal-365327485-r2" x="24.4" y="410.4" textLength="12.2" clip-path="url(#terminal-365327485-line-16)">┃</text><text class="terminal-365327485-r10" x="61" y="410.4" textLength="12.2" clip-path="url(#terminal-365327485-line-16)">▐</text><text class="terminal-365327485-r11" x="73.2" y="410.4" textLength="12.2" clip-path="url(#terminal-365327485-line-16)">X</text><text class="terminal-365327485-r10" x="85.4" y="410.4" textLength="12.2" clip-path="url(#terminal-365327485-line-16)">▌</text><text class="terminal-365327485-r12" x="109.8" y="410.4" textLength="292.8" clip-path="url(#terminal-365327485-line-16)">Read-only&#160;&#160;&#160;:&#160;/read/only</text><text class="terminal-365327485-r2" x="1134.6" y="410.4" textLength="12.2" clip-path="url(#terminal-365327485-line-16)">┃</text><text class="terminal-365327485-r1" x="1171.2" y="410.4" textLength="12.2" clip-path="url(#terminal-365327485-line-16)">
</text><text class="terminal-365327485-r2" x="24.4" y="434.8" textLength="12.2" clip-path="url(#terminal-365327485-line-17)">┃</text><text class="terminal-365327485-r8" x="61" y="434.8" textLength="73.2" clip-path="url(#terminal-365327485-line-17)">Docker</text><text class="terminal-365327485-r2" x="1134.6" y="434.8" textLength="12.2" clip-path="url(#terminal-365327485-line-17)">┃</text><text class="terminal-365327485-r1" x="1171.2" y="434.8" textLength="12.2" clip-path="url(#terminal-365327485-line-17)">
</text><text class="terminal-365327485-r2" x="24.4" y="459.2" textLength="12.2" clip-path="url(#terminal-365327485-line-18)">┃</text><text class="terminal-365327485-r10" x="61" y="459.2" textLength="12.2" clip-path="url(#terminal-365327485-line-18)">▐</text><text class="terminal-365327485-r13" x="73.2" y="459.2" textLength="12.2" clip-path="url(#terminal-365327485-line-18)">X</text><text class="terminal-365327485-r10" x="85.4" y="459.2" textLength="12.2" clip-path="url(#terminal-365327485-line-18)">▌</text><text class="terminal-365327485-r12" x="109.8" y="459.2" textLength="158.6" clip-path="url(#terminal-365327485-line-18)">Docker&#160;socket</text><text class="terminal-365327485-r2" x="1134.6" y="459.2" textLength="12.2" clip-path="url(#terminal-365327485-line-18)">┃</text><text class="terminal-365327485-r1" x="1171.2" y="459.2" textLength="12.2" clip-path="url(#terminal-365327485-line-18)">
</text><text class="terminal-365327485-r2" x="24.4" y="483.6" textLength="12.2" clip-path="url(#terminal-365327485-line-19)">┃</text><text class="terminal-365327485-r2" x="1134.6" y="483.6" textLength="12.2" clip-path="url(#terminal-365327485-line-19)">┃</text><text class="terminal-365327485-r1" x="1171.2" y="483.6" textLength="12.2" clip-path="url(#terminal-365327485-line-19)">
</text><text class="terminal-365327485-r2" x="24.4" y="508" textLength="12.2" clip-path="url(#terminal-365327485-line-20)">┃</text><text class="terminal-365327485-r6" x="915" y="508" textLength="97.6" clip-path="url(#terminal-365327485-line-20)">&#160;Cancel&#160;</text><text class="terminal-365327485-r14" x="1037" y="508" textLength="48.8" clip-path="url(#terminal-365327485-line-20)">&#160;OK&#160;</text><text class="terminal-365327485-r2" x="1134.6" y="508" textLength="12.2" clip-path="url(#terminal-365327485-line-20)">┃</text><text class="terminal-365327485-r1" x="1171.2" y="508" textLength="12.2" clip-path="url(#terminal-365327485-line-20)">
</text><text class="terminal-365327485-r2" x="24.4" y="532.4" textLength="12.2" clip-path="url(#terminal-365327485-line-21)">┗</text><text class="terminal-365327485-r2" x="36.6" y="532.4" textLength="1098" clip-path="url(#terminal-365327485-line-21)">━━━━━━━━━━━━━━━━━━━━━━━━━━━━━━━━━━━━━━━━━━━━━━━━━━━━━━━━━━━━━━━━━━━━━━━━━━━━━━━━━━━━━━━━━━</text><text class="terminal-365327485-r2" x="1134.6" y="532.4" textLength="12.2" clip-path="url(#terminal-365327485-line-21)">┛</text>
    </g>
    </g>
</svg>
